<svg width="120" height="114" viewBox="0 0 120 114" fill="none" xmlns="http://www.w3.org/2000/svg">
<path d="M0.265625 53.8009C0.265625 34.3058 9.36336 22.0022 26.779 22.0022C44.368 22.0022 53.2058 33.3527 53.2058 52.7612C53.2058 72.6029 44.2813 85.3397 26.779 85.3397C9.70994 85.4264 0.265625 73.2094 0.265625 53.8009ZM17.8546 53.3677C17.8546 60.9058 18.4611 66.7977 19.5008 71.4765C20.6272 76.3286 23.0533 78.4948 26.8657 78.4948C30.7647 78.4948 33.1908 76.3286 34.3171 71.4765C35.3569 66.7977 35.7901 60.9058 35.7901 53.3677C35.7901 39.2446 34.3171 28.9338 26.8657 28.9338C19.4142 28.9338 17.8546 39.5045 17.8546 53.3677ZM98.9544 94.8707L97.9146 93.3977C96.1817 90.9717 94.0156 90.9717 91.8495 92.7912C84.3113 99.0297 74.6071 102.062 63.8631 102.062C53.2924 102.062 43.4149 98.943 35.8767 92.6179C33.7106 90.7984 31.5445 90.885 29.8116 93.3111L28.7719 94.784C28.1653 95.7371 28.1653 96.4303 28.7719 97.2101C36.8298 107.001 49.6533 113.326 63.9497 113.326C78.2462 113.326 91.0697 107.001 99.1276 97.2101C99.6475 96.4303 99.4742 95.7371 98.9544 94.8707ZM54.852 5.01975L58.4911 23.4752C58.9243 25.9012 60.484 27.0276 62.8234 27.0276H64.6429C67.069 27.0276 68.5419 25.9012 68.9752 23.4752L72.6143 5.01975C73.2208 2.24711 71.6612 0.6875 68.9752 0.6875H58.4911C55.7185 0.6875 54.2455 2.24711 54.852 5.01975ZM72.6143 73.4694C72.6143 82.3072 83.4449 85.4264 94.4488 85.4264C109.005 85.4264 119.143 79.1879 119.143 66.4511C119.143 56.8335 111.431 52.4146 103.373 48.169C94.6221 43.5768 90.3765 40.4576 90.3765 34.6524C90.3765 30.84 92.8892 28.3273 96.9615 28.3273C101.467 28.3273 103.547 31.2732 103.547 37.8582C103.547 40.1977 105.366 41.1507 109.525 40.1977C112.384 39.5045 113.424 39.2446 115.937 38.4648C117.756 37.8582 119.056 36.8185 119.056 33.8726C119.056 25.1214 108.745 22.0022 98.0013 22.0022C85.611 22.0022 74.3472 27.2009 74.3472 39.1579C74.3472 49.1221 82.5784 53.541 90.2032 57.5267C98.7811 62.1189 103.027 65.2381 103.027 71.0433C103.027 76.0687 100.427 79.1013 95.4886 79.1013C90.5498 79.1013 88.0371 75.8088 88.0371 69.1371C88.0371 65.3247 87.2573 64.8048 83.0983 65.6713C79.8058 66.3645 76.6866 67.3176 75.0403 67.8374C73.654 68.2707 72.6143 69.9169 72.6143 73.4694Z" fill="#5D47EE"/>
</svg>
