<svg width="364" height="107" viewBox="0 0 364 107" fill="none" xmlns="http://www.w3.org/2000/svg">
<g clip-path="url(#clip0_2492_6545)">
<path d="M51.2583 50.0936C51.2583 68.4417 42.5211 80.2369 25.702 80.2369C9.02845 80.2369 0 68.9514 0 51.1857C0 33.056 8.81002 21.6976 25.702 21.6976C42.6667 21.6248 51.2583 32.2551 51.2583 50.0936ZM32.7645 67.3496C33.8567 62.9809 34.3664 57.4474 34.3664 50.6032C34.3664 37.5702 32.7645 28.0321 25.6291 28.0321C18.4938 28.0321 16.8919 37.7887 16.8919 50.6032C16.8919 57.5202 17.4016 63.0538 18.4938 67.3496C19.5859 71.7182 21.9158 73.8296 25.6291 73.8296C29.4153 73.8296 31.7452 71.7182 32.7645 67.3496Z" fill="#5D47EE"/>
<path d="M92.6862 91.158C85.2596 100.186 73.3916 106.011 60.213 106.011C47.0343 106.011 35.1663 100.186 27.7397 91.158C27.23 90.4299 27.23 89.7747 27.7397 88.9009L28.6862 87.5175C30.288 85.2604 32.3267 85.1876 34.2926 86.8623C41.2823 92.6871 50.4564 95.5995 60.213 95.5995C70.188 95.5995 79.0708 92.7599 86.1333 87.0079C88.172 85.3332 90.1379 85.3332 91.7397 87.5175L92.6862 88.9009C93.1959 89.7747 93.2687 90.4299 92.6862 91.158ZM55.2619 2.11133H65.0184C67.5668 2.11133 68.9502 3.56753 68.4405 6.11588L65.0184 23.0078C64.5816 25.2649 63.1982 26.2843 61.0139 26.2843H59.3392C57.0821 26.2843 55.6987 25.1921 55.3347 23.0078L51.9126 6.11588C51.3301 3.56753 52.7135 2.11133 55.2619 2.11133Z" fill="#5D47EE"/>
<path d="M85.0424 33.3463C85.0424 38.7343 88.9742 41.6467 97.0561 45.8697C104.483 49.8014 111.618 53.806 111.618 62.7616C111.618 74.5568 102.298 80.3088 88.8286 80.3088C78.6351 80.3088 68.6602 77.4692 68.6602 69.2417C68.6602 65.9652 69.3321 64.8575 70.6879 64.2139C72.0719 63.557 75.2859 62.6888 78.3439 62.0335C82.13 61.1598 82.9309 61.7423 82.9309 65.2371C82.9309 71.426 85.2609 74.484 89.8479 74.484C94.4349 74.484 96.8377 71.7172 96.8377 67.0574C96.8377 61.6694 92.9059 58.757 84.9696 54.5341C77.9799 50.8208 70.3348 46.8162 70.3348 37.5693C70.3348 26.5022 80.7466 21.7695 92.1778 21.7695C102.08 21.7695 111.618 24.6091 111.618 32.691C111.618 35.4578 110.453 36.4044 108.779 36.914C106.449 37.6421 105.502 37.8606 102.808 38.5158C99.022 39.4624 97.2745 38.5158 97.2745 36.4044C97.2745 30.3611 95.3815 27.5943 91.2313 27.5943C87.3723 27.4487 85.0424 29.7786 85.0424 33.3463Z" fill="#5D47EE"/>
<path d="M121.811 24.1739C130.693 21.6255 132.441 21.3343 133.824 24.2467C134.261 25.3389 134.916 27.6688 135.426 30.2899C138.266 24.5379 143.581 21.5527 151.372 21.5527C159.526 21.5527 164.405 24.5379 166.662 30.4356C169.501 24.4651 174.816 21.5527 182.68 21.5527C194.985 21.5527 199.645 28.2513 199.645 41.5027V65.8213C199.645 70.918 199.936 72.9566 201.319 75.1409C202.047 76.2331 201.756 76.5972 200.664 77.034C197.387 78.2718 194.402 79.2911 191.344 79.5824C187.922 80.0192 183.408 76.5971 183.408 68.224V42.4492C183.408 34.0761 182.534 29.7075 176.709 29.7075C170.739 29.7075 168.773 34.8042 168.336 42.8861V75.5778C168.336 77.1796 167.899 77.9077 166.006 77.9077H153.92C152.1 77.9077 152.1 77.034 152.1 75.3594V42.4492C152.1 34.0761 151.226 29.7075 145.401 29.7075C138.484 29.7075 136.882 36.6244 136.882 47.1091V72.811C136.882 77.034 136.809 77.9077 133.824 77.9077H122.393C120.5 77.9077 120.718 76.0875 120.718 75.1409V41.1386C120.718 33.9304 120.5 30.2899 120.282 27.1591C120.063 25.0476 120.354 24.6108 121.811 24.1739Z" fill="#5D47EE"/>
<path d="M219.596 0C224.692 0 227.969 2.76678 227.969 7.42663C227.969 12.2321 224.328 14.8533 219.232 14.8533C214.208 14.8533 210.713 12.2321 210.713 7.64506C210.786 2.83959 214.499 0 219.596 0ZM228.624 75.14C229.352 76.3049 228.915 76.5962 227.75 77.0331C224.911 78.1252 222.217 78.7077 219.013 79.363C215.373 80.0911 210.931 77.2515 210.931 68.8783V25.3379C210.931 24.3914 211.587 23.8817 212.533 23.7361L225.566 22.2799C226.513 22.2071 227.168 22.9352 227.168 23.8817V65.8931C227.241 70.917 227.241 72.8829 228.624 75.14Z" fill="#5D47EE"/>
<path d="M257.238 75.139C257.966 76.304 257.529 76.5952 256.364 77.0321C253.524 78.1242 250.83 78.7067 247.627 79.362C243.986 80.0901 239.545 77.2505 239.545 68.8773V5.16851C239.545 4.22198 240.2 3.71231 241.147 3.56669L254.18 2.11049C255.126 2.03768 255.782 2.76578 255.782 3.71231V65.8921C255.854 70.916 255.854 72.8819 257.238 75.139Z" fill="#5D47EE"/>
<path d="M309.224 62.6171C309.952 63.4908 310.607 64.5101 311.481 66.3304C312.355 68.1506 311.991 68.8059 311.7 69.6068C309.879 73.757 302.016 80.0915 291.458 80.2371C274.494 80.2371 265.684 69.17 265.684 51.2587C265.684 32.6921 275.367 21.625 293.206 21.625C304.637 21.625 313.083 26.9401 313.083 37.1335C313.083 49.7297 303.545 53.8071 288.109 53.8071C285.634 53.8071 283.886 53.7342 282.503 53.5158C282.94 63.5636 285.998 69.7525 294.152 69.7525C299.686 69.7525 304.564 67.2769 307.404 62.8355C307.913 62.1074 308.642 61.9618 309.224 62.6171ZM284.541 48.5647C293.424 48.5647 298.157 45.5795 298.157 37.4248C298.157 32.0368 295.9 27.8867 291.604 27.8867C284.833 27.8867 282.576 37.5704 282.503 48.5647H284.541Z" fill="#5D47EE"/>
<path d="M338.568 35.0215C337.84 38.2252 337.476 42.2297 337.476 47.2536V72.8099C337.476 77.0329 337.403 77.9066 334.418 77.9066H322.986C321.093 77.9066 321.312 76.0864 321.312 75.1399V41.1376C321.312 33.9294 321.093 30.2889 320.875 27.158C320.656 25.0465 320.948 24.6825 322.477 24.3184C331.36 21.7701 333.107 21.3332 334.49 24.3184C334.927 25.4106 335.582 27.5221 336.092 30.0704C339.296 24.3184 344.028 21.6973 349.853 21.6973C357.935 21.6973 363.032 26.5755 363.032 34.5118C363.032 39.6085 363.032 40.2638 356.77 41.9385L350.8 43.5403C348.761 44.05 348.47 43.4675 348.47 42.0841V38.1523C348.47 32.9828 346.795 30.4345 343.446 30.4345C340.898 30.3617 339.296 31.9635 338.568 35.0215Z" fill="#5D47EE"/>
</g>
<defs>
<clipPath id="clip0_2492_6545">
<rect width="363.031" height="106.011" fill="white"/>
</clipPath>
</defs>
</svg>
