<svg width="165" height="42" viewBox="0 0 165 42" fill="none" xmlns="http://www.w3.org/2000/svg">
<g clip-path="url(#clip0_3742_17109)">
<path d="M20.3099 19.8476C20.3099 27.1176 16.848 31.7912 10.1838 31.7912C3.57731 31.7912 0 27.3195 0 20.2803C0 13.0968 3.49076 8.59634 10.1838 8.59634C16.9057 8.56749 20.3099 12.7795 20.3099 19.8476ZM12.9822 26.6848C13.4149 24.9539 13.6169 22.7613 13.6169 20.0495C13.6169 14.8855 12.9822 11.1062 10.1549 11.1062C7.32771 11.1062 6.69303 14.972 6.69303 20.0495C6.69303 22.7902 6.89497 24.9827 7.32771 26.6848C7.76045 28.4158 8.68363 29.2524 10.1549 29.2524C11.6551 29.2524 12.5783 28.4158 12.9822 26.6848Z" fill="#5D47EE"/>
<path d="M36.7249 36.1186C33.7822 39.6959 29.0798 42.0039 23.8581 42.0039C18.6364 42.0039 13.9339 39.6959 10.9913 36.1186C10.7894 35.8301 10.7894 35.5705 10.9913 35.2243L11.3663 34.6761C12.001 33.7818 12.8088 33.753 13.5877 34.4165C16.3573 36.7244 19.9923 37.8784 23.8581 37.8784C27.8104 37.8784 31.33 36.7533 34.1284 34.4742C34.9362 33.8107 35.7151 33.8107 36.3498 34.6761L36.7249 35.2243C36.9268 35.5705 36.9556 35.8301 36.7249 36.1186ZM21.8963 0.835938H25.7621C26.7719 0.835938 27.32 1.41292 27.118 2.42265L25.7621 9.11568C25.589 10.01 25.0409 10.4139 24.1754 10.4139H23.5119C22.6176 10.4139 22.0694 9.98116 21.9252 9.11568L20.5693 2.42265C20.3385 1.41292 20.8866 0.835938 21.8963 0.835938Z" fill="#5D47EE"/>
<path d="M33.6962 13.2125C33.6962 15.3474 35.254 16.5013 38.4563 18.1746C41.3989 19.7325 44.2262 21.3192 44.2262 24.8676C44.2262 29.5412 40.5334 31.8203 35.1963 31.8203C31.1574 31.8203 27.2051 30.6952 27.2051 27.4352C27.2051 26.137 27.4713 25.6981 28.0085 25.4431C28.5569 25.1828 29.8304 24.8388 31.042 24.5791C32.5422 24.2329 32.8595 24.4637 32.8595 25.8485C32.8595 28.3007 33.7827 29.5124 35.6002 29.5124C37.4177 29.5124 38.3698 28.4161 38.3698 26.5697C38.3698 24.4349 36.8119 23.2809 33.6673 21.6077C30.8978 20.1363 27.8686 18.5496 27.8686 14.8858C27.8686 10.5007 31.9941 8.62549 36.5234 8.62549C40.4469 8.62549 44.2262 9.75061 44.2262 12.9529C44.2262 14.0492 43.7646 14.4242 43.101 14.6261C42.1779 14.9146 41.8028 15.0012 40.7354 15.2608C39.2352 15.6359 38.5428 15.2608 38.5428 14.4242C38.5428 12.0297 37.7928 10.9334 36.1484 10.9334C34.6193 10.8757 33.6962 11.7989 33.6962 13.2125Z" fill="#5D47EE"/>
<path d="M48.2643 9.5791C51.7839 8.56938 52.4763 8.45398 53.0245 9.60795C53.1975 10.0407 53.4572 10.9639 53.6591 12.0024C54.7843 9.72335 56.8903 8.54053 59.9771 8.54053C63.2082 8.54053 65.1411 9.72335 66.0355 12.0601C67.1606 9.6945 69.2666 8.54053 72.3823 8.54053C77.2578 8.54053 79.1042 11.1947 79.1042 16.4452V26.0809C79.1042 28.1003 79.2196 28.9081 79.7677 29.7736C80.0562 30.2063 79.9408 30.3506 79.5081 30.5237C78.2099 31.0141 77.027 31.418 75.8154 31.5334C74.4595 31.7065 72.6708 30.3506 72.6708 27.0329V16.8203C72.6708 13.5026 72.3246 11.7716 70.0167 11.7716C67.651 11.7716 66.8721 13.7911 66.699 16.9934V29.9467C66.699 30.5814 66.5259 30.8699 65.7758 30.8699H60.9869C60.2656 30.8699 60.2656 30.5237 60.2656 29.8601V16.8203C60.2656 13.5026 59.9194 11.7716 57.6115 11.7716C54.8708 11.7716 54.2361 14.5123 54.2361 18.6666V28.8504C54.2361 30.5237 54.2073 30.8699 53.0245 30.8699H48.4951C47.745 30.8699 47.8316 30.1486 47.8316 29.7736V16.301C47.8316 13.4449 47.745 12.0024 47.6585 10.7619C47.5719 9.92529 47.6873 9.7522 48.2643 9.5791Z" fill="#5D47EE"/>
<path d="M87.0098 0C89.0293 0 90.3275 1.09627 90.3275 2.94263C90.3275 4.84668 88.8851 5.88525 86.8656 5.88525C84.875 5.88525 83.4902 4.84668 83.4902 3.02917C83.5191 1.12512 84.9904 0 87.0098 0ZM90.5872 29.7724C90.8757 30.234 90.7026 30.3494 90.241 30.5225C89.1158 30.9553 88.0484 31.1861 86.7791 31.4457C85.3366 31.7342 83.5768 30.6091 83.5768 27.2914V10.0395C83.5768 9.66451 83.8364 9.46256 84.2115 9.40486L89.3755 8.82788C89.7505 8.79903 90.0102 9.08752 90.0102 9.46256V26.1086C90.039 28.0992 90.039 28.8781 90.5872 29.7724Z" fill="#5D47EE"/>
<path d="M101.924 29.7723C102.213 30.2339 102.04 30.3493 101.578 30.5224C100.453 30.9551 99.3857 31.1859 98.1163 31.4455C96.6739 31.734 94.9141 30.6089 94.9141 27.2912V2.04813C94.9141 1.67309 95.1737 1.47115 95.5488 1.41345L100.713 0.836462C101.088 0.807613 101.347 1.09611 101.347 1.47115V26.1084C101.376 28.099 101.376 28.878 101.924 29.7723Z" fill="#5D47EE"/>
<path d="M122.523 24.8105C122.812 25.1567 123.071 25.5606 123.418 26.2818C123.764 27.003 123.62 27.2627 123.504 27.58C122.783 29.2244 119.667 31.7343 115.484 31.792C108.762 31.792 105.271 27.4069 105.271 20.31C105.271 12.9534 109.108 8.56836 116.177 8.56836C120.706 8.56836 124.052 10.6744 124.052 14.7133C124.052 19.7042 120.273 21.3197 114.157 21.3197C113.176 21.3197 112.484 21.2909 111.936 21.2043C112.109 25.1855 113.32 27.6377 116.552 27.6377C118.744 27.6377 120.677 26.6569 121.802 24.897C122.004 24.6086 122.293 24.5509 122.523 24.8105ZM112.743 19.2426C116.263 19.2426 118.138 18.0598 118.138 14.8287C118.138 12.6938 117.244 11.0494 115.542 11.0494C112.859 11.0494 111.965 14.8863 111.936 19.2426H112.743Z" fill="#5D47EE"/>
<path d="M134.149 13.8756C133.861 15.145 133.716 16.7317 133.716 18.7223V28.8484C133.716 30.5216 133.688 30.8678 132.505 30.8678H127.975C127.225 30.8678 127.312 30.1466 127.312 29.7716V16.2989C127.312 13.4429 127.225 12.0004 127.139 10.7599C127.052 9.92326 127.168 9.77901 127.773 9.63477C131.293 8.62504 131.985 8.45195 132.534 9.63477C132.707 10.0675 132.966 10.9041 133.168 11.9139C134.438 9.63477 136.313 8.59619 138.621 8.59619C141.823 8.59619 143.842 10.5291 143.842 13.6737C143.842 15.6931 143.842 15.9528 141.361 16.6163L138.996 17.251C138.188 17.4529 138.073 17.2221 138.073 16.674V15.1161C138.073 13.0678 137.409 12.0581 136.082 12.0581C135.072 12.0293 134.438 12.6639 134.149 13.8756Z" fill="#5D47EE"/>
<path d="M148.204 11.8264H146.29V4.37102H143.83V2.77344H150.664V4.37102H148.204V11.8264Z" fill="#5D47EE"/>
<path d="M155.889 11.8264L153.708 4.72604H153.658C153.666 4.8951 153.679 5.14868 153.696 5.4868C153.713 5.82491 153.73 6.18838 153.747 6.57721C153.763 6.95759 153.772 7.30416 153.772 7.61691V11.8264H152.06V2.77344H154.672L156.815 9.69631H156.853L159.123 2.77344H161.734V11.8264H159.947V7.54083C159.947 7.25344 159.951 6.92378 159.959 6.55185C159.976 6.17993 159.989 5.82914 159.997 5.49948C160.014 5.16136 160.027 4.90778 160.035 4.73872H159.985L157.652 11.8264H155.889Z" fill="#5D47EE"/>
</g>
<defs>
<clipPath id="clip0_3742_17109">
<rect width="164.038" height="42" fill="white"/>
</clipPath>
</defs>
</svg>
