<svg width="364" height="107" viewBox="0 0 364 107" fill="none" xmlns="http://www.w3.org/2000/svg">
<g clip-path="url(#clip0_2492_6565)">
<path d="M51.2583 50.117C51.2583 68.4651 42.5211 80.2604 25.702 80.2604C9.02845 80.2604 0 68.9748 0 51.2092C0 33.0794 8.81002 21.7211 25.702 21.7211C42.6667 21.6483 51.2583 32.2785 51.2583 50.117ZM32.7645 67.373C33.8567 63.0044 34.3664 57.4708 34.3664 50.6267C34.3664 37.5937 32.7645 28.0556 25.6291 28.0556C18.4938 28.0556 16.8919 37.8121 16.8919 50.6267C16.8919 57.5436 17.4016 63.0772 18.4938 67.373C19.5859 71.7416 21.9158 73.8531 25.6291 73.8531C29.4153 73.8531 31.7452 71.7416 32.7645 67.373Z" fill="white"/>
<path d="M92.6862 91.1815C85.2596 100.21 73.3916 106.035 60.213 106.035C47.0343 106.035 35.1663 100.21 27.7397 91.1815C27.23 90.4534 27.23 89.7981 27.7397 88.9244L28.6862 87.541C30.288 85.2839 32.3267 85.2111 34.2926 86.8857C41.2823 92.7105 50.4564 95.6229 60.213 95.6229C70.188 95.6229 79.0708 92.7833 86.1333 87.0313C88.172 85.3567 90.1379 85.3567 91.7397 87.541L92.6862 88.9244C93.1959 89.7981 93.2687 90.4534 92.6862 91.1815ZM55.2619 2.13477H65.0184C67.5668 2.13477 68.9502 3.59097 68.4405 6.13932L65.0184 23.0313C64.5816 25.2884 63.1982 26.3077 61.0139 26.3077H59.3392C57.0821 26.3077 55.6987 25.2156 55.3347 23.0313L51.9126 6.13932C51.3301 3.59097 52.7135 2.13477 55.2619 2.13477Z" fill="white"/>
<path d="M85.0424 33.3698C85.0424 38.7577 88.9742 41.6701 97.0561 45.8931C104.483 49.8248 111.618 53.8294 111.618 62.785C111.618 74.5803 102.298 80.3323 88.8286 80.3323C78.6351 80.3323 68.6602 77.4927 68.6602 69.2651C68.6602 65.9887 69.3321 64.8809 70.6879 64.2374C72.0719 63.5804 75.2859 62.7122 78.3439 62.0569C82.13 61.1832 82.9309 61.7657 82.9309 65.2606C82.9309 71.4494 85.2609 74.5075 89.8479 74.5075C94.4349 74.5075 96.8377 71.7407 96.8377 67.0808C96.8377 61.6929 92.9059 58.7805 84.9696 54.5575C77.9799 50.8442 70.3348 46.8396 70.3348 37.5928C70.3348 26.5256 80.7466 21.793 92.1778 21.793C102.08 21.793 111.618 24.6326 111.618 32.7145C111.618 35.4813 110.453 36.4278 108.779 36.9375C106.449 37.6656 105.502 37.884 102.808 38.5393C99.022 39.4858 97.2745 38.5393 97.2745 36.4278C97.2745 30.3846 95.3815 27.6178 91.2313 27.6178C87.3723 27.4722 85.0424 29.8021 85.0424 33.3698Z" fill="white"/>
<path d="M121.811 24.1973C130.693 21.649 132.441 21.3577 133.824 24.2701C134.261 25.3623 134.916 27.6922 135.426 30.3134C138.266 24.5614 143.581 21.5762 151.372 21.5762C159.526 21.5762 164.405 24.5614 166.662 30.459C169.501 24.4886 174.816 21.5762 182.68 21.5762C194.985 21.5762 199.645 28.2747 199.645 41.5261V65.8447C199.645 70.9414 199.936 72.9801 201.319 75.1644C202.047 76.2565 201.756 76.6206 200.664 77.0574C197.387 78.2952 194.402 79.3146 191.344 79.6058C187.922 80.0427 183.408 76.6206 183.408 68.2474V42.4727C183.408 34.0995 182.534 29.7309 176.709 29.7309C170.739 29.7309 168.773 34.8276 168.336 42.9095V75.6012C168.336 77.2031 167.899 77.9312 166.006 77.9312H153.92C152.1 77.9312 152.1 77.0574 152.1 75.3828V42.4727C152.1 34.0995 151.226 29.7309 145.401 29.7309C138.484 29.7309 136.882 36.6479 136.882 47.1325V72.8345C136.882 77.0574 136.809 77.9312 133.824 77.9312H122.393C120.5 77.9312 120.718 76.1109 120.718 75.1644V41.1621C120.718 33.9539 120.5 30.3134 120.282 27.1825C120.063 25.0711 120.354 24.6342 121.811 24.1973Z" fill="white"/>
<path d="M219.596 0.0234375C224.692 0.0234375 227.969 2.79022 227.969 7.45006C227.969 12.2555 224.328 14.8767 219.232 14.8767C214.208 14.8767 210.713 12.2555 210.713 7.66849C210.786 2.86303 214.499 0.0234375 219.596 0.0234375ZM228.624 75.1634C229.352 76.3284 228.915 76.6196 227.75 77.0565C224.911 78.1486 222.217 78.7311 219.013 79.3864C215.373 80.1145 210.931 77.2749 210.931 68.9018V25.3613C210.931 24.4148 211.587 23.9051 212.533 23.7595L225.566 22.3033C226.513 22.2305 227.168 22.9586 227.168 23.9051V65.9165C227.241 70.9404 227.241 72.9063 228.624 75.1634Z" fill="white"/>
<path d="M257.238 75.1624C257.966 76.3274 257.529 76.6186 256.364 77.0555C253.524 78.1476 250.83 78.7301 247.627 79.3854C243.986 80.1135 239.545 77.2739 239.545 68.9008V5.19195C239.545 4.24542 240.2 3.73575 241.147 3.59013L254.18 2.13393C255.126 2.06112 255.782 2.78922 255.782 3.73575V65.9156C255.854 70.9394 255.854 72.9053 257.238 75.1624Z" fill="white"/>
<path d="M309.224 62.6405C309.952 63.5142 310.607 64.5336 311.481 66.3538C312.355 68.1741 311.991 68.8294 311.7 69.6303C309.879 73.7804 302.016 80.1149 291.458 80.2605C274.494 80.2605 265.684 69.1934 265.684 51.2821C265.684 32.7156 275.367 21.6484 293.206 21.6484C304.637 21.6484 313.083 26.9636 313.083 37.157C313.083 49.7531 303.545 53.8305 288.109 53.8305C285.634 53.8305 283.886 53.7577 282.503 53.5392C282.94 63.587 285.998 69.7759 294.152 69.7759C299.686 69.7759 304.564 67.3004 307.404 62.8589C307.913 62.1308 308.642 61.9852 309.224 62.6405ZM284.541 48.5882C293.424 48.5882 298.157 45.603 298.157 37.4482C298.157 32.0603 295.9 27.9101 291.604 27.9101C284.833 27.9101 282.576 37.5938 282.503 48.5882H284.541Z" fill="white"/>
<path d="M338.568 35.0449C337.84 38.2486 337.476 42.2531 337.476 47.277V72.8334C337.476 77.0564 337.403 77.9301 334.418 77.9301H322.986C321.093 77.9301 321.312 76.1098 321.312 75.1633V41.161C321.312 33.9528 321.093 30.3123 320.875 27.1815C320.656 25.07 320.948 24.7059 322.477 24.3419C331.36 21.7935 333.107 21.3567 334.49 24.3419C334.927 25.434 335.582 27.5455 336.092 30.0939C339.296 24.3419 344.028 21.7207 349.853 21.7207C357.935 21.7207 363.032 26.599 363.032 34.5353C363.032 39.632 363.032 40.2873 356.77 41.9619L350.8 43.5637C348.761 44.0734 348.47 43.4909 348.47 42.1075V38.1758C348.47 33.0063 346.795 30.4579 343.446 30.4579C340.898 30.3851 339.296 31.9869 338.568 35.0449Z" fill="white"/>
</g>
<defs>
<clipPath id="clip0_2492_6565">
<rect width="363.031" height="106.011" fill="white" transform="translate(0 0.0234375)"/>
</clipPath>
</defs>
</svg>
