<svg xmlns="http://www.w3.org/2000/svg" width="35" height="30" viewBox="0 0 35 30">
    <path fill="none" stroke="#564aeb" stroke-width="1.5" d="M6 4h23v23H6V4zm23 6H6m5-3V1M24 7V1"/>
    <path fill="#564aeb" d="M10.6 23.6v-5L9 19v-1.4l3.2-1.1h.1v7.1h-1.7zm8.7-6.1c.2.3.3.6.3 1s-.1.8-.4 1.1c-.3.3-.6.6-1 .7-.4.2-.9.3-1.3.3s-.8-.1-1.2-.2c-.4-.1-.7-.4-1-.7-.3-.3-.4-.8-.4-1.2h1.8c0 .1 0 .2.1.3.1.1.2.2.3.2.1.1.3.1.4.1.2 0 .3 0 .5-.1l.3-.3c.1-.1.1-.2.1-.4 0-.3-.1-.5-.2-.7-.2-.2-.4-.2-.7-.2h-.8V16h.9c.4.1.8-.2.8-.6v-.2c0-.1 0-.2-.1-.3-.1-.1-.1-.2-.3-.2-.1-.1-.3-.1-.4-.1-.1 0-.2 0-.4.1-.1 0-.2.1-.3.2-.1.1-.1.2-.1.3h-1.8c0-.4.1-.7.3-1 .2-.3.5-.5.9-.7.4-.2.8-.2 1.2-.2.5 0 .9.1 1.4.2.4.1.7.4.9.7.2.3.3.7.3 1.1 0 .3-.1.6-.3.9-.2.3-.5.5-.8.6.5.2.8.4 1 .7zm6 1.6c.3.2.6.5.7.9.2.4.2.8.2 1.3 0 .4-.1.9-.3 1.2-.2.4-.5.7-.9.9-.4.2-.8.3-1.3.3s-.9-.1-1.4-.3c-.4-.2-.7-.6-1-1-.3-.5-.4-1-.4-1.5v-.7c0-.7.2-1.4.5-2.1.4-.6.9-1 1.5-1.3.6-.3 1.2-.4 1.8-.4h.3v1.4c-.5 0-1 .1-1.5.4-.4.3-.7.7-.7 1.2.2-.2.4-.3.6-.4.2-.1.5-.2.8-.1.4-.1.7 0 1.1.2zM24 22.2c.1-.1.2-.2.3-.4.1-.2.1-.4.1-.5 0-.3-.1-.6-.2-.8-.2-.2-.4-.3-.6-.3-.2 0-.3 0-.5.1l-.3.3v.5c0 .3 0 .6.2.9.2.2.4.3.7.3 0 0 .2 0 .3-.1z"/>
</svg>