<svg width="170" height="100" viewBox="0 0 170 100" fill="none" xmlns="http://www.w3.org/2000/svg">
<path fill-rule="evenodd" clip-rule="evenodd" d="M96.7895 47.0266H96.5527V47.0264C96.5527 46.9212 96.5527 46.8423 96.579 46.7897C96.6316 46.5792 96.6842 46.395 96.7632 46.2108C96.7851 46.1505 96.807 46.0892 96.8291 46.0271C96.9134 45.791 97.0011 45.5453 97.1053 45.316L97.4211 44.6845C97.5132 44.5266 97.5987 44.3621 97.6842 44.1976C97.7698 44.0331 97.8553 43.8687 97.9474 43.7108C98.1316 43.4213 98.3421 43.1581 98.5526 42.895C98.6112 42.8144 98.6678 42.7318 98.7245 42.6489C98.8718 42.4338 99.0206 42.2165 99.2105 42.0266C99.5481 41.6692 99.9156 41.3268 100.279 40.988C100.397 40.8778 100.515 40.768 100.632 40.6581C100.645 40.6581 100.651 40.6516 100.658 40.645C100.664 40.6384 100.671 40.6318 100.684 40.6318C100.974 40.395 101.29 40.1845 101.605 39.9739C101.661 39.9389 101.719 39.902 101.779 39.8642C101.942 39.7601 102.116 39.6494 102.29 39.5529C102.434 39.4805 102.577 39.4048 102.72 39.3292C103.15 39.1022 103.579 38.8752 104.053 38.7371C104.224 38.6845 104.388 38.6252 104.553 38.566C104.717 38.5068 104.882 38.4476 105.053 38.395C105.216 38.3404 105.368 38.311 105.524 38.2806C105.593 38.2671 105.664 38.2533 105.737 38.2371C105.809 38.2173 105.882 38.196 105.954 38.1746C106.171 38.1104 106.388 38.0463 106.605 38.0266C106.853 37.9912 107.089 37.9796 107.329 37.9678C107.446 37.962 107.564 37.9562 107.684 37.9476H108.184C108.421 37.9213 108.526 37.8423 108.526 37.7108V31.7897C108.526 31.6581 108.474 31.5792 108.316 31.5792C108.182 31.5888 108.048 31.5844 107.914 31.5801C107.679 31.5724 107.445 31.5648 107.211 31.6318C107 31.6843 106.779 31.6903 106.561 31.6961C106.451 31.699 106.343 31.702 106.237 31.7108C105.947 31.7371 105.684 31.7634 105.421 31.7897C105.263 31.816 105.132 31.8423 105 31.8686L105 31.8687C104.966 31.8784 104.933 31.8881 104.9 31.8977C104.757 31.9399 104.624 31.9788 104.474 32.0002C104.342 32.0266 104.184 32.0529 104.026 32.0792L103.711 32.1581C103.605 32.1845 103.507 32.2173 103.408 32.2502C103.309 32.2831 103.211 32.316 103.105 32.3423C102.816 32.4213 102.553 32.5002 102.263 32.6055C102.132 32.6581 102.007 32.7108 101.882 32.7634C101.757 32.816 101.632 32.8687 101.5 32.9213C101.132 33.0791 100.737 33.237 100.342 33.3948L100.342 33.395C100.19 33.4521 100.051 33.5367 99.9168 33.6189C99.8652 33.6505 99.8142 33.6816 99.7632 33.7108C99.3158 33.9476 98.8684 34.1845 98.4474 34.4476C98.0263 34.7108 97.6053 35.0002 97.2106 35.316C97.1031 35.4005 96.9934 35.4827 96.884 35.5646C96.6185 35.7635 96.3553 35.9608 96.1316 36.1845C95.5746 36.7215 95.0478 37.2736 94.5282 37.818C94.3604 37.9938 94.1934 38.1689 94.0263 38.3423C93.9737 38.4081 93.9211 38.4805 93.8684 38.5529C93.8158 38.6252 93.7632 38.6976 93.7106 38.7634C93.6184 38.8818 93.5329 39.0068 93.4474 39.1318C93.3619 39.2568 93.2763 39.3818 93.1842 39.5002C93.0526 39.7108 92.9211 39.895 92.7895 40.0792C92.6667 40.2546 92.5673 40.4301 92.4679 40.6055C92.4182 40.6932 92.3684 40.7809 92.3158 40.8687L91.6842 42.0529C91.579 42.2766 91.4803 42.5002 91.3816 42.7239C91.2829 42.9476 91.1842 43.1713 91.079 43.395C91.0553 43.4542 91.0316 43.5121 91.0082 43.5692C90.9277 43.7661 90.8507 43.9542 90.7895 44.1581C90.7237 44.3818 90.6645 44.5989 90.6053 44.816C90.5461 45.0331 90.4869 45.2502 90.4211 45.4739C90.3816 45.6581 90.3356 45.8358 90.2895 46.0134C90.2435 46.191 90.1974 46.3687 90.1579 46.5529C90.1053 46.7283 90.076 46.9038 90.0468 47.0792C90.0322 47.1669 90.0176 47.2546 90 47.3423C89.9474 47.5704 89.9182 47.7985 89.8889 48.0265C89.8743 48.1406 89.8597 48.2546 89.8421 48.3687C89.7895 48.6845 89.7632 48.9739 89.7632 49.2897C89.7726 49.543 89.7652 49.7962 89.7579 50.0506C89.7445 50.5101 89.7311 50.9734 89.8158 51.4476C89.8512 51.6424 89.8628 51.849 89.8746 52.0596C89.8803 52.162 89.8861 52.2653 89.8948 52.3687L89.8948 52.3688C89.9211 52.6319 89.9474 52.895 89.8684 53.1845V53.2371C89.8948 53.3423 89.9145 53.4476 89.9342 53.5529C89.954 53.6581 89.9737 53.7634 90 53.8687C90.0263 53.9476 90.0395 54.0266 90.0526 54.1055C90.0658 54.1845 90.079 54.2634 90.1053 54.3423C90.1272 54.43 90.1537 54.5221 90.1809 54.617C90.2191 54.75 90.2588 54.8883 90.2895 55.0266C90.3158 55.123 90.3392 55.2195 90.3626 55.316C90.4094 55.509 90.4562 55.702 90.5263 55.895C90.5929 56.1278 90.6804 56.3502 90.7691 56.5753C90.8207 56.7063 90.8727 56.8383 90.9211 56.9739C90.9678 57.0907 91.0122 57.2076 91.0564 57.3237C91.1615 57.6 91.2651 57.8724 91.3947 58.1318C91.7369 58.7897 92.079 59.4476 92.5 60.0792C92.6448 60.2897 92.7829 60.5002 92.9211 60.7108C93.0592 60.9213 93.1974 61.1318 93.3421 61.3423C93.498 61.5606 93.6631 61.7603 93.8265 61.958C93.939 62.0941 94.0506 62.2292 94.1579 62.3687C94.2763 62.5002 94.3948 62.6253 94.5132 62.7503C94.6316 62.8753 94.75 63.0002 94.8685 63.1318C94.9221 63.1855 94.9727 63.2391 95.0224 63.2917C95.1188 63.394 95.2116 63.4923 95.3158 63.5792C95.4428 63.7062 95.5823 63.8206 95.717 63.9312C95.7778 63.9811 95.8375 64.0301 95.8948 64.0792C96.1316 64.316 96.3948 64.5529 96.6316 64.7634L96.6579 64.7897C96.829 64.9081 96.9934 65.0266 97.1579 65.145C97.3224 65.2634 97.4869 65.3818 97.6579 65.5002C97.7895 65.588 97.9211 65.6786 98.0527 65.7692C98.3158 65.9505 98.579 66.1318 98.8421 66.2897C99.1842 66.5002 99.5263 66.6845 99.8948 66.8687C100.184 67.0266 100.5 67.1845 100.79 67.316C101.058 67.4399 101.343 67.5476 101.618 67.6518C101.694 67.6804 101.768 67.7088 101.842 67.7371C102.079 67.816 102.316 67.895 102.526 67.9739C102.618 68.0002 102.717 68.0266 102.816 68.0529C102.915 68.0792 103.013 68.1055 103.105 68.1318C103.211 68.1581 103.309 68.191 103.408 68.2239C103.507 68.2568 103.605 68.2897 103.711 68.316L104.421 68.4739L104.421 68.4739C104.711 68.5529 105 68.6318 105.29 68.6845C105.33 68.6907 105.37 68.6969 105.41 68.7031C105.707 68.7492 105.988 68.7928 106.289 68.816C106.572 68.8513 106.866 68.863 107.165 68.8747C107.311 68.8805 107.458 68.8863 107.605 68.895C107.675 68.895 107.747 68.8921 107.82 68.8892C107.969 68.8834 108.122 68.8773 108.263 68.895C108.421 68.9213 108.474 68.8423 108.474 68.6845V62.9739C108.474 62.9453 108.477 62.9201 108.48 62.8972C108.486 62.8568 108.49 62.8233 108.474 62.7897C108.447 62.7108 108.368 62.6055 108.316 62.6055C107.948 62.5792 107.554 62.553 107.16 62.5267L107.158 62.5266C107.04 62.5134 106.915 62.5002 106.79 62.4871C106.665 62.4739 106.54 62.4608 106.421 62.4476C106.408 62.4476 106.401 62.441 106.395 62.4345C106.388 62.4279 106.382 62.4213 106.368 62.4213C106.334 62.4116 106.301 62.4018 106.269 62.3923C106.125 62.3501 105.992 62.3112 105.842 62.2897L105.368 62.2108C105.29 62.1845 105.184 62.1581 105.079 62.1318C104.816 62.0529 104.579 61.9739 104.316 61.8687C103.974 61.7634 103.605 61.6318 103.263 61.4739C102.763 61.2108 102.263 60.9476 101.789 60.6581C101.421 60.4213 101.026 60.1581 100.684 59.8687C100.64 59.8321 100.594 59.7955 100.549 59.7588C100.299 59.5575 100.042 59.3503 99.8421 59.1055C99.6915 58.9096 99.5149 58.7224 99.3371 58.5338C99.2044 58.3931 99.0711 58.2517 98.9474 58.1055C98.6857 57.822 98.4602 57.5024 98.2409 57.1916C98.1955 57.1273 98.1504 57.0634 98.1053 57.0002C97.7895 56.5529 97.5263 56.0792 97.3158 55.5792C97.25 55.4081 97.1777 55.2437 97.1053 55.0792C97.0329 54.9147 96.9605 54.7502 96.8948 54.5792C96.7369 54.1845 96.6053 53.7897 96.4737 53.395H96.7105H106.053C106.316 53.395 106.342 53.3687 106.342 53.1055V47.3687V47.3686C106.342 47.0529 106.342 47.0266 106.026 47.0266H96.7895ZM77.5001 37.6047V34.7363H77.4475V31.8679C77.4475 31.6311 77.3948 31.6047 77.1843 31.6047C76.9606 31.6179 76.7304 31.6311 76.5001 31.6442C76.2699 31.6574 76.0396 31.6705 75.8159 31.6837C75.5264 31.71 75.2106 31.7363 74.8948 31.7626L74.4212 31.8416C74.3159 31.8679 74.2172 31.8876 74.1185 31.9074C74.0198 31.9271 73.9212 31.9469 73.8159 31.9732C73.7564 31.9817 73.6969 31.9874 73.6383 31.9931C73.5155 32.005 73.3965 32.0165 73.2896 32.0521C73.1185 32.1047 72.9475 32.1508 72.7764 32.1969C72.6054 32.2429 72.4343 32.289 72.2633 32.3416C72.158 32.3811 72.0527 32.414 71.9475 32.4469C71.8422 32.4797 71.737 32.5126 71.6317 32.5521C71.4475 32.631 71.2371 32.71 71.0266 32.7889L71.0264 32.789C70.901 32.836 70.7755 32.8807 70.6508 32.9252C70.3568 33.0299 70.0667 33.1333 69.7896 33.2626C69.1843 33.5521 68.579 33.8679 68.0001 34.1837C67.6843 34.3416 67.3685 34.5258 67.079 34.7363C66.7896 34.9205 66.5264 35.1047 66.2633 35.3153C66.1732 35.3693 66.0954 35.4357 66.0131 35.506C65.9752 35.5384 65.9363 35.5716 65.8948 35.6047C65.7553 35.7243 65.612 35.8364 65.4692 35.948C65.235 36.1312 65.0021 36.3133 64.7896 36.5258C64.3532 36.9423 63.9318 37.3888 63.514 37.8313C63.3775 37.9759 63.2414 38.1201 63.1054 38.2626L62.7106 38.7363C62.5922 38.9074 62.4738 39.0719 62.3554 39.2363C62.2369 39.4008 62.1185 39.5653 62.0001 39.7363C61.737 40.1047 61.5002 40.4731 61.2634 40.8414L61.2633 40.8416C61.1054 41.1047 60.9709 41.3679 60.8364 41.631C60.7691 41.7626 60.7019 41.8942 60.6317 42.0258L60.6314 42.0263C60.4473 42.3946 60.2632 42.7628 60.1054 43.1311C59.9746 43.4145 59.8618 43.734 59.7522 44.0448C59.7295 44.1092 59.7069 44.1731 59.6843 44.2363C59.5791 44.4469 59.5001 44.6837 59.4475 44.9205C59.3773 45.1311 59.3305 45.3416 59.2837 45.5521C59.2603 45.6574 59.237 45.7626 59.2106 45.8679C59.1712 46.0521 59.1251 46.2429 59.0791 46.4337C59.033 46.6245 58.987 46.8153 58.9475 46.9995C58.9212 47.1574 58.9014 47.3153 58.8817 47.4732C58.8619 47.6311 58.8422 47.789 58.8159 47.9469L58.7369 48.5784C58.7106 48.9469 58.6843 49.3416 58.6843 49.7363C58.6843 50.4732 58.7106 51.21 58.7369 51.9469V51.9995C58.7633 52.289 58.8159 52.6047 58.8685 52.8942C58.8817 52.9995 58.8949 53.0982 58.908 53.1969C58.9212 53.2955 58.9343 53.3942 58.9475 53.4995L59.0264 53.8942C59.0659 54.0258 59.0988 54.1574 59.1317 54.289C59.1646 54.4205 59.1975 54.5521 59.237 54.6837C59.2545 54.7626 59.2691 54.8416 59.2837 54.9206C59.313 55.0784 59.3422 55.2363 59.3948 55.3942C59.4606 55.5916 59.533 55.789 59.6054 55.9863C59.6777 56.1837 59.7501 56.3811 59.8159 56.5784C59.8948 56.7758 59.9738 56.9797 60.0527 57.1837C60.1317 57.3876 60.2106 57.5916 60.2896 57.789C60.365 57.9964 60.4675 58.1903 60.5679 58.3804C60.6076 58.4556 60.647 58.5302 60.6843 58.6047C60.8159 58.8416 60.9475 59.1047 61.0791 59.3679C61.1712 59.5126 61.2567 59.6508 61.3422 59.789C61.4277 59.9271 61.5133 60.0653 61.6054 60.21C61.7369 60.4469 61.8685 60.6837 62.0264 60.8942L62.5791 61.6047C62.6765 61.7217 62.7704 61.846 62.8647 61.9707C63.0249 62.1827 63.1863 62.3962 63.3685 62.5784C63.5324 62.7423 63.6939 62.9074 63.855 63.0722C64.4441 63.6746 65.0287 64.2723 65.7106 64.789C65.7984 64.8591 65.8861 64.9323 65.9738 65.0054C66.1492 65.1516 66.3247 65.2977 66.5001 65.4205C66.9474 65.7363 67.3948 65.9995 67.8421 66.2626L67.8422 66.2626C67.9677 66.3324 68.0914 66.4021 68.2142 66.4714C68.5548 66.6634 68.8888 66.8517 69.2369 67.0258C69.5605 67.1876 69.8995 67.3338 70.2302 67.4764C70.3299 67.5194 70.4289 67.5621 70.5264 67.6047L70.5266 67.6048C70.7897 67.71 71.0528 67.8153 71.3159 67.8942C71.5264 67.9732 71.7369 68.0521 71.9475 68.1047C72.079 68.1573 72.2368 68.2099 72.3946 68.2626L72.3948 68.2626C72.5264 68.3021 72.6646 68.335 72.8027 68.3679C72.9409 68.4008 73.0791 68.4337 73.2106 68.4732C73.2764 68.4863 73.3356 68.4995 73.3948 68.5126C73.4541 68.5258 73.5133 68.539 73.5791 68.5521C73.6712 68.5653 73.7698 68.5784 73.8685 68.5916C73.9672 68.6047 74.0659 68.6179 74.158 68.6311C74.4475 68.6574 74.737 68.71 75.0264 68.7626H75.1054C75.3948 68.8153 75.7106 68.8679 76.0264 68.8942C76.273 68.9118 76.5314 68.9059 76.7857 68.9C76.9114 68.8971 77.0362 68.8942 77.158 68.8942C77.4212 68.8942 77.4475 68.8679 77.4475 68.6047V63.5784V62.8153C77.4475 62.6837 77.3949 62.6047 77.2896 62.6047L76.0264 62.5258C75.8898 62.5258 75.7642 62.5036 75.6353 62.4809C75.5657 62.4686 75.495 62.4561 75.4212 62.4469C75.2462 62.425 75.0895 62.385 74.9207 62.3418C74.8863 62.3331 74.8515 62.3242 74.8159 62.3153L74.3422 62.2363C74.1317 62.1837 73.8948 62.1047 73.6843 62.0258C73.4212 61.9469 73.1843 61.8679 72.9212 61.7626C72.6843 61.6837 72.4475 61.5784 72.2369 61.4732C72.116 61.4127 71.9951 61.3544 71.8748 61.2964C71.5762 61.1525 71.2815 61.0104 71.0001 60.8416C70.7369 60.71 70.5001 60.5258 70.2633 60.3416C69.8685 60.0521 69.4738 59.7626 69.1054 59.4469C68.7106 59.0784 68.3685 58.6837 68.0264 58.289C67.7369 57.9732 67.5001 57.6574 67.2633 57.3153C67.213 57.2426 67.1615 57.17 67.1099 57.0971C66.9182 56.8267 66.7242 56.5528 66.5791 56.2626C66.3422 55.7626 66.1317 55.2626 65.9212 54.7626C65.7934 54.4219 65.6829 54.064 65.5756 53.7167C65.5503 53.6348 65.5252 53.5535 65.5001 53.4732C65.4212 53.1837 65.3422 52.8416 65.2896 52.5258L65.2106 52.0521C65.158 51.7363 65.1054 51.3942 65.079 51.0784C65.0527 50.789 65.0527 50.5258 65.079 50.2363C65.0889 50.0782 65.0877 49.9237 65.0864 49.7716C65.0844 49.5187 65.0824 49.2723 65.1317 49.0258C65.1705 48.8449 65.1902 48.664 65.2096 48.4861C65.2297 48.3019 65.2494 48.121 65.2896 47.9469C65.3159 47.8547 65.3225 47.7626 65.329 47.6705C65.3356 47.5784 65.3422 47.4863 65.3685 47.3942C65.4315 47.1422 65.5113 46.907 65.5944 46.6618C65.6155 46.5997 65.6367 46.537 65.658 46.4732C65.7238 46.3021 65.783 46.1311 65.8422 45.96C65.9014 45.789 65.9606 45.6179 66.0264 45.4469C66.079 45.3153 66.158 45.1838 66.2369 45.0522L66.2369 45.0521C66.2974 44.9312 66.3557 44.8102 66.4137 44.6899C66.5576 44.3914 66.6997 44.0966 66.8685 43.8153C67.0078 43.5986 67.1562 43.4002 67.303 43.2038C67.4058 43.0663 67.5078 42.9299 67.6054 42.789C67.6597 42.7165 67.7141 42.6427 67.7687 42.5684C67.9523 42.319 68.1394 42.0646 68.3422 41.8416C68.6094 41.5744 68.8886 41.3193 69.1636 41.068C69.2949 40.9481 69.4252 40.8291 69.5527 40.71L69.5791 40.6837C69.8949 40.4469 70.2369 40.21 70.5791 39.9732C70.8422 39.789 71.1317 39.6047 71.4212 39.4469C71.6668 39.324 71.9358 39.2012 72.2048 39.0784C72.3393 39.017 72.4738 38.9556 72.6054 38.8942C72.8685 38.789 73.158 38.6837 73.4212 38.6047C73.5396 38.5653 73.6646 38.5258 73.7896 38.4863C73.9146 38.4469 74.0396 38.4074 74.158 38.3679L74.1581 38.3679C74.3949 38.2889 74.6317 38.21 74.8685 38.1574C75.1054 38.1047 75.3685 38.0521 75.6317 38.0258L76.4212 37.9469H77.158C77.3948 37.9469 77.5001 37.8416 77.5001 37.6047Z" fill="#2F2E30"/>
</svg>
