<svg width="170" height="100" viewBox="0 0 170 100" fill="none" xmlns="http://www.w3.org/2000/svg">
<path fill-rule="evenodd" clip-rule="evenodd" d="M107.362 33.7243L107.362 33.7235L107.364 33.7208C107.485 33.5406 107.609 33.3549 107.737 33.1582C107.772 33.2075 107.805 33.2512 107.836 33.2918C107.921 33.4026 107.988 33.4899 108.026 33.6055C108.776 34.8555 109.526 36.099 110.276 37.3424C111.026 38.5858 111.776 39.8292 112.526 41.0792C113.671 42.9737 114.809 44.8748 115.947 46.776L115.947 46.7763L115.947 46.7766L115.95 46.7807C117.087 48.6806 118.224 50.5806 119.368 52.4739C121.033 55.21 122.684 57.96 124.331 60.7037L124.332 60.7059L124.333 60.7073C124.95 61.736 125.567 62.7638 126.184 63.7897C126.231 63.8676 126.25 63.9547 126.269 64.0401L126.269 64.0403C126.282 64.0991 126.294 64.1571 126.316 64.2108C126.265 64.2209 126.211 64.2388 126.155 64.2571C126.067 64.2862 125.976 64.316 125.895 64.316H103.079H102C101.737 64.316 101.605 64.395 101.605 64.6845V68.3424C101.605 68.6581 101.737 68.7634 102.026 68.7371H102.395H127.184H129.447C129.71 68.7371 129.842 68.6581 129.842 68.3424C129.816 65.7649 129.816 63.1612 129.816 60.5837V60.5792C129.816 60.395 129.763 60.1845 129.658 60.0266C128.132 57.5529 126.605 55.0529 125.079 52.5529C123.724 50.3423 122.375 48.1318 121.026 45.9212C119.678 43.7107 118.329 41.5002 116.974 39.2897C116.276 38.145 115.572 36.9937 114.868 35.8423C114.164 34.691 113.46 33.5397 112.763 32.395C112.605 32.1582 112.447 32.0266 112.132 32.0266H103.395C103.237 32.0266 103.053 32.0529 102.974 32.1582C102.923 32.218 102.872 32.2778 102.82 32.338L102.82 32.338L102.82 32.3381C102.576 32.6216 102.327 32.9115 102.132 33.2371C101.966 33.5016 101.81 33.7708 101.654 34.0407L101.654 34.0407C101.436 34.4152 101.218 34.7911 100.974 35.1582C98.8712 38.3382 96.7687 41.4919 94.6662 44.6456L94.6661 44.6458L94.6579 44.6582C94.3421 45.1318 94.0263 45.5792 93.6315 46.1318C93.5526 45.8687 93.5 45.7108 93.4474 45.5792C92.7631 43.2108 91.8157 41.0003 90.3684 39.0003C88.7105 36.7108 86.5789 35.0266 84 33.895C80.7368 32.4476 77.2894 31.9213 73.7631 31.8424C70.8872 31.7672 68.0112 31.7591 65.1353 31.7511C63.9849 31.7478 62.8346 31.7446 61.6842 31.7371C61.3376 31.7371 60.9869 31.7455 60.6354 31.7539C60.1059 31.7665 59.5745 31.7792 59.0526 31.7634C58.5598 31.7529 58.0628 31.7341 57.5649 31.7152C56.8133 31.6867 56.0598 31.6582 55.3158 31.6582C49.7368 31.6582 44.1579 31.6582 38.6052 31.6318C38.1579 31.6318 38.0526 31.7897 38.0526 32.1845C38.0526 32.6582 38.0394 33.1384 38.0263 33.6187C38.0131 34.0989 38 34.5792 38 35.0529C37.9868 39.6351 37.9802 44.2239 37.9736 48.816C37.9671 53.4016 37.9605 57.9904 37.9473 62.5792C37.9473 63.5529 37.9408 64.5331 37.9342 65.5134C37.9276 66.4937 37.921 67.4739 37.921 68.4476C37.921 68.6581 37.921 68.8687 38.2105 68.8687C38.8421 68.8687 39.4737 68.8621 40.1052 68.8555C40.7368 68.8489 41.3684 68.8424 42 68.8424C42.421 68.8424 42.5 68.6055 42.5 68.2371V41.1318C42.5 40.668 42.5029 40.2012 42.5058 39.7334L42.5058 39.7332V39.7332C42.5116 38.7946 42.5175 37.8521 42.5 36.9213C42.5 36.5266 42.6052 36.3687 43.0263 36.3687H49.3684C51.0267 36.3599 52.688 36.357 54.3502 36.3541H54.3503H54.3505C57.6735 36.3482 61.0005 36.3424 64.3158 36.2897L65.1451 36.2734C68.9444 36.1982 72.7239 36.1234 76.5263 36.3687C79.2368 36.5529 81.7631 37.2108 84.0263 38.7897C86.1842 40.316 87.8421 42.2897 88.921 44.6845C90 47.0003 90.3421 49.4739 90.1315 52.0266C89.8157 55.7371 88.1842 58.7108 85.1842 60.9213C82.6842 62.7634 79.8421 63.7108 76.8158 64.2634C74.1315 64.7634 71.3947 64.8424 68.6578 64.7371C68.2193 64.7196 67.7807 64.6552 67.3422 64.5909L67.342 64.5909C67.1227 64.5587 66.9035 64.5266 66.6842 64.5003C66.3421 64.4476 66.1316 64.2108 66.1052 63.8687C66.0789 63.6318 66.0526 63.3687 66.0526 63.1318C66.0613 62.75 66.0728 62.3654 66.0844 61.9797L66.0844 61.9794L66.0844 61.9792C66.1079 61.1955 66.1315 60.4077 66.1315 59.6318V59.6249C66.1315 55.6272 66.1315 51.6295 66.1579 47.6318C66.1579 47.2108 66.0263 47.0792 65.6315 47.0792C64.5 47.1055 63.3947 47.1055 62.2631 47.0792C61.8158 47.0792 61.7368 47.2634 61.7368 47.6318V68.4213C61.7368 68.7634 61.8947 68.8687 62.2105 68.8687C62.6052 68.8687 63 68.8753 63.3947 68.8818C63.7894 68.8884 64.1842 68.895 64.5789 68.895C65.4999 68.8884 66.4209 68.8835 67.3419 68.8786C70.1051 68.8637 72.8683 68.8489 75.6315 68.7897C77.8421 68.7371 80 68.395 82.1052 67.7634C83.5526 67.3424 84.9473 66.7634 86.1842 65.8687C88.2105 64.4213 89.6842 62.4739 90.9473 60.395C91.6579 59.2371 92.3289 58.0529 93 56.8686C93.671 55.6844 94.3421 54.5002 95.0526 53.3424C97.0095 50.1496 98.9824 46.9891 100.959 43.8229L100.959 43.8227L100.959 43.8225C101.508 42.9439 102.056 42.0648 102.605 41.1845C103.598 39.5808 104.618 37.991 105.636 36.4051C106.022 35.8048 106.407 35.2052 106.789 34.6055C106.97 34.3101 107.161 34.0248 107.362 33.7243ZM62.4631 37.8455C61.6157 37.8623 60.7684 37.8792 59.921 37.8949H59.8947V37.9476C59.3245 37.9476 58.7543 37.9447 58.1841 37.9417C57.0438 37.9359 55.9034 37.93 54.7631 37.9476C53.0525 37.9607 51.342 37.987 49.6315 38.0134C47.921 38.0397 46.2104 38.066 44.4999 38.0792C44.0526 38.0792 43.9473 38.2634 43.9473 38.6844C43.9736 42.816 43.9999 46.9739 43.9999 51.1055C43.9999 51.5002 44.2105 51.5528 44.5262 51.5528H59.5526C59.9736 51.5528 60.0789 51.3949 60.0789 51.0002C60.0613 50.2809 60.0672 49.5616 60.073 48.8423C60.0759 48.4827 60.0789 48.123 60.0789 47.7634V47.7633C60.0789 47.1318 60.0789 47.1318 59.4736 47.1318H49.6578H49.6578C49.3157 47.1318 48.9999 47.1318 48.6841 47.0528C48.5525 47.0002 48.3157 46.816 48.3157 46.6844C48.2894 45.4476 48.3157 44.1844 48.342 42.9476C48.342 42.5528 48.5526 42.4476 48.921 42.4476C50.6841 42.4739 52.4736 42.5002 54.2368 42.4739C56.8467 42.4626 59.4518 42.4367 62.0541 42.4109H62.0542L62.0548 42.4109C65.5135 42.3766 68.9672 42.3423 72.421 42.3423C74.1578 42.3423 75.9736 42.3423 77.6578 42.737C80.6841 43.4213 82.7894 45.2897 83.6578 48.3686C84.4473 51.1055 83.842 53.5528 81.9999 55.6318C79.5526 58.4213 76.342 59.1055 72.7894 58.5792C72.4736 58.5265 72.3157 58.316 72.3157 58.0265V56.9739C72.3245 55.9407 72.3303 54.9104 72.3362 53.881C72.3479 51.8168 72.3596 49.7565 72.3947 47.6844C72.421 47.2634 72.3157 47.1055 71.842 47.1055C70.6841 47.1318 69.5263 47.1318 68.3684 47.1055C67.9473 47.1055 67.842 47.237 67.842 47.6318V58.2897C67.842 58.7291 67.8391 59.1656 67.8362 59.6011L67.8361 59.6016C67.8303 60.47 67.8245 61.3345 67.842 62.2107C67.8683 62.8686 67.9999 62.9739 68.6315 62.9739C68.921 62.9791 69.2116 62.9852 69.5029 62.9914L69.5032 62.9915L69.5034 62.9915C70.6949 63.0168 71.9 63.0425 73.1052 63.0002C76.4473 62.8686 79.6315 62.2107 82.5526 60.5528C84.921 59.2107 86.7368 57.3423 87.6841 54.7634C88.8157 51.6844 88.7894 48.5792 87.4473 45.5528C85.6578 41.5265 82.5789 38.9476 78.2368 38.1055C76.421 37.737 74.4999 37.7107 72.6315 37.7107C69.242 37.7107 65.8526 37.7781 62.4631 37.8455ZM97.8518 52.3214L97.8546 52.3167L97.8552 52.3157C101.112 46.8946 104.368 41.4735 107.632 36.0262C110.316 40.46 112.986 44.8741 115.657 49.2881C118.328 53.703 121 58.1179 123.684 62.5525C123.368 62.5788 123.132 62.5788 122.895 62.5788H103.921C103.711 62.5788 103.5 62.5759 103.289 62.5729C102.868 62.5671 102.447 62.5612 102.026 62.5788C101.684 62.6051 101.579 62.4735 101.579 62.1314C101.605 61.0262 101.605 59.9472 101.579 58.842C101.579 58.4472 101.711 58.3156 102.105 58.3156H112.789H115.184C115.316 58.3156 115.5 58.2893 115.553 58.2104C115.605 58.1314 115.553 57.9472 115.474 57.8419C114.263 55.7367 113.026 53.6314 111.789 51.5525C111.311 50.7376 110.836 49.9227 110.362 49.1093C109.612 47.8214 108.863 46.5372 108.105 45.263C107.842 44.7893 107.789 44.7893 107.526 45.2367L107.525 45.2396C106.525 46.9491 105.526 48.6587 104.5 50.3683C103.803 51.5656 103.099 52.7695 102.395 53.9733C101.691 55.1774 100.987 56.3814 100.289 57.5788C99.5658 58.8025 98.8487 60.0327 98.1316 61.263L98.131 61.2639C97.4141 62.4939 96.6972 63.7238 95.9737 64.9472C95.3421 66.0262 94.7105 67.1051 94.1053 68.1841C93.921 68.5262 93.7105 68.6841 93.2894 68.6577C92.2359 68.6402 91.1706 68.6461 90.1093 68.6519H90.1091H90.1083C89.5793 68.6548 89.0513 68.6577 88.5263 68.6577C88.4652 68.6577 88.4042 68.6489 88.3175 68.6363C88.2547 68.6272 88.1784 68.6162 88.0789 68.6051C91.3409 63.1597 94.5964 57.7405 97.8518 52.3214ZM59.3684 53.1584H52.0263L44.6579 53.211C44.3289 53.211 44.1645 53.211 44.0822 53.2933C44 53.3755 44 53.54 44 53.8689C43.9737 58.7374 43.9211 63.6058 43.8684 68.4742C43.8684 68.8163 43.9737 68.8953 44.2895 68.8953H47.4474C47.8071 68.8953 47.9847 68.8953 48.0724 68.8065C48.1579 68.7199 48.1579 68.5488 48.1579 68.211C48.1316 64.8426 48.1316 61.4742 48.1316 58.1321C48.1316 57.7374 48.2105 57.5795 48.6579 57.5795H59.4474C59.8158 57.5795 60 57.4479 60 57.0795V53.711C60 53.2637 59.7895 53.1584 59.3684 53.1584Z" fill="#2F2E30"/>
</svg>
