<svg width="170" height="100" viewBox="0 0 170 100" fill="none" xmlns="http://www.w3.org/2000/svg">
<path fill-rule="evenodd" clip-rule="evenodd" d="M109.711 43.1453C109.763 43.1387 109.816 43.1322 109.868 43.1322C109.868 43.1098 109.871 43.0916 109.872 43.0759C109.877 43.0362 109.88 43.012 109.842 42.9743C109.837 42.9591 109.832 42.9429 109.827 42.9261C109.805 42.8558 109.779 42.7749 109.737 42.7111C107.526 38.5006 104.184 35.5532 99.7106 33.948C96.2895 32.7374 92.7895 32.6059 89.2632 33.5006C85.8158 34.3953 82.8948 36.1585 80.5 38.7637C78.1579 41.3164 76.6842 44.2901 76.0527 47.6848C75.9474 48.2637 75.9474 48.2638 75.3421 48.2638H64.9474C64.6053 48.2638 64.5 48.1585 64.5 47.8164V38.5006C64.5 37.9743 64.5 37.9743 65.0264 37.9743H77.1316C77.4737 37.9743 77.579 37.8953 77.579 37.5269V32.0795C77.579 31.5532 77.579 31.5532 77.0527 31.5532C75.6414 31.5532 74.2271 31.5561 72.8119 31.5591C69.9786 31.5649 67.1414 31.5708 64.3158 31.5532C63.4737 31.5532 62.6842 31.6848 61.8948 31.948C59.2369 32.8427 57.8948 34.6848 57.8948 37.4743V68.3953C57.8948 68.7901 58.0263 68.8427 58.3685 68.8427H64.0527C64.2895 68.8427 64.4079 68.8427 64.4671 68.7835C64.5263 68.7243 64.5263 68.6059 64.5263 68.369V53.4743C64.5263 53.0006 64.5263 53.0006 65 53.0006C66.156 53.0006 67.3148 53.0035 68.4757 53.0064C70.8031 53.0123 73.1384 53.0182 75.4737 53.0006C75.8421 53.0006 75.9737 53.1322 76.0264 53.4743C76.3158 55.6322 77 57.6848 78.1316 59.5532C80.9474 64.448 85.1579 67.448 90.6842 68.5006C93.5 69.0532 96.3158 68.869 99.0527 68.0006C103.921 66.4743 107.5 63.3953 109.868 58.8953C110.053 58.5532 110 58.5006 109.605 58.5006C109.045 58.5006 108.482 58.5035 107.917 58.5064C106.786 58.5123 105.65 58.5181 104.526 58.5006C104.184 58.5006 103.974 58.6059 103.763 58.869C100.737 62.4743 96.8685 64.1059 92.1579 63.5269C88.2895 63.0532 85.2369 61.1059 83.1053 57.8427C80.7632 54.2637 80.2895 50.369 81.8685 46.369C83.7106 41.6585 87.2632 38.8427 92.3158 38.2374C96.9211 37.6585 100.737 39.3164 103.737 42.869C103.895 43.0795 104.105 43.1585 104.368 43.1585H109.553C109.605 43.1585 109.658 43.1519 109.711 43.1453ZM103.657 54.8683C103.732 54.6884 103.81 54.5039 103.895 54.316C103.658 54.2897 103.526 54.2897 103.316 54.2897C102.808 54.2897 102.297 54.2926 101.786 54.2956C100.759 54.3014 99.7291 54.3073 98.7106 54.2897C98.3422 54.2897 98.1053 54.3687 97.8422 54.6582C96.4738 56.1318 94.7896 56.816 92.7896 56.5529C89.2896 56.1055 87.158 52.816 87.7632 49.6582C88.2632 47.1582 90.5264 45.1055 93.079 44.9476C94.9211 44.8424 96.4738 45.4476 97.7632 46.7371C97.9211 46.895 98.1317 47.0266 98.3159 47.0266C100 47.0529 101.711 47.0529 103.395 47.0529C103.711 47.0529 103.763 46.9476 103.658 46.6845C103.184 45.6055 102.605 44.5529 101.79 43.6845C98.7632 40.395 95.0264 39.1318 90.6843 40.3424C86.3685 41.5529 83.6843 44.5003 82.8685 48.895C82.1053 52.9476 83.4211 56.4476 86.6054 59.1055C89.579 61.5792 93.0264 62.2371 96.7369 61.1582C99.658 60.316 101.79 58.4476 103.237 55.7897C103.389 55.502 103.52 55.1926 103.657 54.8683Z" fill="#2F2E30"/>
</svg>
