<svg width="170" height="100" viewBox="0 0 170 100" fill="none" xmlns="http://www.w3.org/2000/svg">
<path fill-rule="evenodd" clip-rule="evenodd" d="M112.237 54.5261L112.683 54.4977L112.683 54.4976C115.005 54.3493 117.305 54.2024 119.605 54.0788C119.658 54.2761 119.704 54.4734 119.75 54.6708C119.796 54.8682 119.842 55.0656 119.895 55.263C120.421 57.1577 121.921 58.2893 123.895 58.3156C124.737 58.3156 125.579 58.2367 126.316 57.763C127.026 57.2893 127.5 56.6577 127.5 55.7893C127.5 54.7367 126.921 54.0524 126.026 53.6051C125.184 53.1577 124.237 52.9209 123.316 52.7103C121.816 52.3682 120.289 51.9998 118.868 51.4472C117.5 50.9209 116.21 50.2893 115.132 49.2893C114.053 48.263 113.395 46.9998 113.21 45.5261C112.947 43.2893 113.632 41.3946 115.237 39.8419C116.368 38.7367 117.763 38.0788 119.289 37.7367C121.816 37.184 124.368 37.1577 126.921 37.4998C128.342 37.684 129.684 38.1051 130.895 38.8419C132.342 39.7367 133.263 41.0524 133.789 42.6577C133.901 43.0254 133.984 43.4125 134.067 43.8014L134.067 43.8016L134.067 43.8016C134.121 44.0528 134.175 44.3046 134.237 44.5524C134.253 44.5858 134.249 44.6296 134.244 44.684C134.24 44.7156 134.237 44.7507 134.237 44.7893C133.94 44.7498 133.659 44.7548 133.381 44.7597C133.289 44.7613 133.197 44.763 133.105 44.763C132.273 44.8142 131.44 44.8592 130.61 44.9041L130.61 44.9041C129.735 44.9513 128.864 44.9984 128 45.0524C127.855 45.0656 127.717 45.0722 127.579 45.0788C127.441 45.0853 127.303 45.0919 127.158 45.1051C127 45.1051 126.921 45.0788 126.895 44.8946C126.763 44.2103 126.526 43.5788 126.079 43.0261C125.579 42.4209 124.921 42.1051 124.158 41.9735C123.21 41.8156 122.289 41.7893 121.421 42.2367C120.684 42.6314 120.289 43.3682 120.421 44.0788C120.526 44.6051 120.868 44.9472 121.342 45.184C122.036 45.5438 122.805 45.7028 123.552 45.8571L123.605 45.8682C125.684 46.3156 127.763 46.8156 129.763 47.5788C130.947 48.0261 132.026 48.6314 132.974 49.4998C133.974 50.4209 134.605 51.5261 134.895 52.8419C135.737 56.4998 133.921 60.2893 130.553 61.9472C129.21 62.6051 127.789 62.9735 126.289 63.1314C124.237 63.3419 122.184 63.2893 120.132 62.9735C118.553 62.7367 117.026 62.3156 115.737 61.3419C114.395 60.3419 113.5 58.9735 112.895 57.4209C112.526 56.5788 112.342 55.6577 112.237 54.7367V54.5261ZM33.8683 37.6315H33.5789V62.8157H33.842H41.1052C41.421 62.8157 41.421 62.8157 41.421 62.4999V53.0262V52.8157C41.3946 52.6578 41.4736 52.6051 41.6052 52.6051C41.6744 52.6051 41.7464 52.6023 41.8195 52.5994H41.8195H41.8195C41.9686 52.5935 42.1218 52.5875 42.2631 52.6051C43.1578 52.6841 43.9473 52.9736 44.4999 53.7104C44.8157 54.1578 45.1052 54.6051 45.3683 55.0788C46.7368 57.5788 48.0789 60.0788 49.421 62.5788C49.4999 62.763 49.6052 62.8157 49.8157 62.8157H58.0525H58.3683C58.3453 62.7695 58.3222 62.7335 58.3013 62.7009C58.2746 62.6592 58.2515 62.6232 58.2368 62.5788C57.7824 61.6818 57.3178 60.7848 56.852 59.8855L56.8517 59.8849L56.8516 59.8848C56.2653 58.7529 55.677 57.6173 55.1052 56.4736C54.5525 55.342 53.842 54.342 53.0525 53.3946C52.3946 52.6051 51.5262 52.1578 50.6052 51.842C50.5657 51.8288 50.5262 51.8091 50.4802 51.7861L50.4802 51.7861C50.4341 51.763 50.3815 51.7367 50.3157 51.7104C50.3751 51.6985 50.4184 51.6866 50.4529 51.6772C50.4948 51.6657 50.5237 51.6578 50.5525 51.6578C50.7315 51.5946 50.9189 51.5399 51.1062 51.4851C51.3873 51.403 51.6683 51.3209 51.921 51.2104C53.7894 50.4736 55.1315 49.1841 55.842 47.3157C56.421 45.8157 56.4736 44.263 56.1052 42.7104C55.5525 40.4999 54.2368 38.9472 52.0525 38.2367C50.5525 37.7367 48.9736 37.6315 47.421 37.6315C44.4044 37.6139 41.3995 37.6198 38.3907 37.6256C36.8849 37.6285 35.3781 37.6315 33.8683 37.6315ZM43.0262 47.842H41.421H41.3946V47.0525V43.0262C41.3946 42.7893 41.4736 42.7104 41.7104 42.7367C42.2894 42.7499 42.8749 42.7499 43.4637 42.7499H43.4637C44.0525 42.7499 44.6446 42.7499 45.2368 42.763C45.7631 42.763 46.3157 42.842 46.842 42.9736C48.2104 43.2893 48.6052 44.5525 48.4473 45.5788C48.2894 46.6578 47.6315 47.263 46.5789 47.5262C45.421 47.8157 44.2368 47.8683 43.0262 47.842ZM92.0789 37.6583H84.3158H84.2894V62.7899H92.0789V62.4741V52.9741C92.0789 52.6057 92.0789 52.6057 92.4473 52.6057H100.21C100.382 52.6057 100.467 52.6057 100.51 52.6484C100.553 52.6912 100.553 52.7767 100.553 52.9478V62.553C100.553 62.7636 100.605 62.8162 100.816 62.8162H108.105C108.162 62.8162 108.21 62.8086 108.256 62.8016C108.295 62.7956 108.332 62.7899 108.368 62.7899V37.6583H100.553V46.4478H92.0789V37.6583ZM65.1053 62.3944C66.6579 63.0786 68.2895 63.2628 69.9737 63.2892C70.4737 63.2628 70.9474 63.2365 71.421 63.1839C72.9474 63.0786 74.3947 62.7102 75.7368 61.9734C77.4474 61.0523 78.7368 59.7365 79.5526 57.9734C80.6316 55.6313 80.7368 53.2102 80.0526 50.7628C79.3684 48.3418 77.8684 46.526 75.6053 45.3681C74.1053 44.6049 72.4474 44.2892 70.7631 44.2102C69.0526 44.1313 67.3684 44.2365 65.7368 44.8155C63.2105 45.7102 61.3421 47.3681 60.2631 49.8418C59.421 51.7892 59.2895 53.8155 59.7105 55.8681C60.3421 58.9734 62.2105 61.1313 65.1053 62.3944ZM67.0263 56.5786C66.6053 55.7102 66.5526 54.7365 66.5263 53.7892C66.5526 52.8681 66.6053 51.9734 66.9737 51.1313C67.5526 49.7365 68.7105 48.9734 70.2105 48.9997C71.421 49.026 72.5789 49.9207 73.0526 51.2365C73.4474 52.2892 73.4737 53.4207 73.3947 54.4997C73.3421 55.2365 73.2368 55.9471 72.921 56.6049C72.3158 57.8944 71.2895 58.5786 69.8421 58.526C68.5 58.4734 67.5789 57.7628 67.0263 56.5786Z" fill="#2F2E30"/>
</svg>
