<svg width="32" height="32" viewBox="0 0 32 32" fill="none" xmlns="http://www.w3.org/2000/svg">
<path d="M24.7222 9H4.27778C3.57208 9 3 9.62678 3 10.4V21.6C3 22.3732 3.57208 23 4.27778 23H24.7222C25.4279 23 26 22.3732 26 21.6V10.4C26 9.62678 25.4279 9 24.7222 9Z" stroke="#F4F0FF" stroke-width="2" stroke-linecap="round" stroke-linejoin="round"/>
<path d="M28 13.3335H29.3333C30.0697 13.3335 30.6667 13.9304 30.6667 14.6668V17.3335C30.6667 18.0699 30.0697 18.6668 29.3333 18.6668H28V13.3335Z" fill="#F4F0FF"/>
<path d="M8.66663 14V18" stroke="#F4F0FF" stroke-width="2" stroke-linecap="round" stroke-linejoin="round"/>
<path d="M12.6666 14V18" stroke="#F4F0FF" stroke-width="2" stroke-linecap="round" stroke-linejoin="round"/>
<path d="M16.6666 14V18" stroke="#F4F0FF" stroke-width="2" stroke-linecap="round" stroke-linejoin="round"/>
<path d="M20.6666 14V18" stroke="#F4F0FF" stroke-width="2" stroke-linecap="round" stroke-linejoin="round"/>
</svg>
