<svg xmlns="http://www.w3.org/2000/svg" viewBox="0 0 115 60">
  <path d="M18.1,25.5,12.8,25c1.7,2.2,3.1,4.3,3.1,4.3S4.8,28.4,2.5,27.1A4.9,4.9,0,0,1,.7,20.5a4.1,4.1,0,0,1,1.6-1.6,4.3,4.3,0,0,1,.6-2.2A4.8,4.8,0,0,1,9.5,15h0C11.8,16.3,18.1,25.5,18.1,25.5ZM2.4,32.8A4.9,4.9,0,0,0,.6,39.4,4.1,4.1,0,0,0,2.2,41a4.3,4.3,0,0,0,.6,2.2,4.8,4.8,0,0,0,6.6,1.7h0C11.7,43.6,18,34.4,18,34.4l-5.3.5,3.1-4.3S4.7,31.5,2.4,32.8Zm11.9,15a4.7,4.7,0,0,0,4.8,4.8,5.4,5.4,0,0,0,2.2-.5,5.4,5.4,0,0,0,2.2.5,4.7,4.7,0,0,0,4.8-4.4v-.4c0-2.6-4.8-12.7-4.8-12.7s-1.1,2.3-2.2,4.9c-1.1-2.6-2.2-4.9-2.2-4.9S14.3,45.2,14.3,47.8Zm19-2.8a4.8,4.8,0,0,0,6.6-1.7h0a4.3,4.3,0,0,0,.6-2.2,4.6,4.6,0,0,0,1.6-6.4,3.9,3.9,0,0,0-1.8-1.8c-2.3-1.3-13.4-2.2-13.4-2.2S28.3,32.8,30,35l-5.3-.5S31,43.7,33.3,45Zm7.1-17.8a4.8,4.8,0,0,0,1.7-6.6h0A5.7,5.7,0,0,0,40.6,19a5.7,5.7,0,0,0-.7-2.2,4.6,4.6,0,0,0-6.2-1.9l-.3.2c-2.4,1.3-8.6,10.5-8.6,10.5l5.3-.5c-1.8,2.3-3.1,4.3-3.1,4.3S38,28.5,40.4,27.2Zm-12-15a4.7,4.7,0,0,0-4.6-4.8h-.2a5.4,5.4,0,0,0-2.2.5,5.4,5.4,0,0,0-2.1-.5,4.7,4.7,0,0,0-4.9,4.7h0c0,2.6,4.9,12.7,4.9,12.7L21.4,20l2.2,4.9S28.4,14.8,28.4,12.2ZM50.3,25.7l1.1-1.5,1.4.8,1.3.2a2.7,2.7,0,0,0,1.2-.3.5.5,0,0,0,.5-.3c0-.1-.1-.2-.1-.3h0c0-.2,0-.4-.2-.5l-.8-.3-1.6-.2a4.6,4.6,0,0,1-1.9-.8,2.3,2.3,0,0,1-.6-1.6,2.5,2.5,0,0,1,.9-2,4.3,4.3,0,0,1,2.5-.7,5.7,5.7,0,0,1,1.8.3l1.7.8-1.1,1.4a3.1,3.1,0,0,0-1.3-.6,3,3,0,0,0-1.3-.2c-.4,0-.7,0-.9.2a.6.6,0,0,0-.4.7h0l.3.3.9.3,1.6.2a3,3,0,0,1,1.8.8,2,2,0,0,1,.7,1.6,2,2,0,0,1-.3,1.1l-.7.9-1.2.5a3.2,3.2,0,0,1-1.4.2L52,26.6A5.6,5.6,0,0,1,50.3,25.7Zm9.6-1.4V20.2H58.2V18.4h1.7V16.2l2.2-.5v2.7h2.3v1.8H62.1v3.7c0,.4,0,.7.2.8a1.6,1.6,0,0,0,.9.3h1.2v1.8H62.7a3.9,3.9,0,0,1-2.1-.6A2.3,2.3,0,0,1,59.9,24.3Zm8.3,2.5a2.9,2.9,0,0,1-2.2-.7,2.1,2.1,0,0,1-.9-1.8,2.5,2.5,0,0,1,.9-1.9,4.3,4.3,0,0,1,2.5-.7h1.1l1,.3v-.6a1.6,1.6,0,0,0-.5-1.1,1.6,1.6,0,0,0-1.3-.4l-1.1.2-1.4.5L65.5,19l1.9-.7,1.8-.2a4,4,0,0,1,2.6.8,2.8,2.8,0,0,1,.9,2.3v5.4H70.6V26l-1.1.6Zm-1-2.6a1.2,1.2,0,0,0,.4.8,2,2,0,0,0,1.1.3l1-.2.9-.4V23.5l-.9-.2h-.9a2.7,2.7,0,0,0-1.2.3C67.4,23.7,67.3,24,67.2,24.2Zm7.2,2.5V18.4h2.2v.9a2.8,2.8,0,0,1,1-.9l1.2-.2h.5l.4.2v1.9l-.5-.2h-.6a2.8,2.8,0,0,0-1.2.4,2.4,2.4,0,0,0-.8.9v5.4Zm12.3,0V26a2.4,2.4,0,0,1-1.1.6l-1.2.2a4.7,4.7,0,0,1-1.7-.3l-1.3-.9a4.2,4.2,0,0,1-.9-1.4,3.3,3.3,0,0,1-.4-1.7,3.3,3.3,0,0,1,.4-1.7,4,4,0,0,1,2.2-2.2,3.3,3.3,0,0,1,1.7-.4l1.2.2,1.1.5V15.5l2.2-.5V26.7Zm-4.4-4.2a2.4,2.4,0,0,0,2.4,2.4h0a2,2,0,0,0,1.1-.2,1.5,1.5,0,0,0,.9-.6V20.9a1.5,1.5,0,0,0-.9-.6l-1.1-.2a2.4,2.4,0,0,0-2.4,2.4Zm15.8,3.1a3.4,3.4,0,0,1-1.6,1,5.5,5.5,0,0,1-1.8.2l-1.8-.3a3.7,3.7,0,0,1-2.3-2.3,4.7,4.7,0,0,1-.4-1.7,3.3,3.3,0,0,1,.4-1.7,3.8,3.8,0,0,1,.9-1.3l1.3-1a4.7,4.7,0,0,1,1.7-.3,3.3,3.3,0,0,1,1.7.4,3.8,3.8,0,0,1,1.3.9,6.4,6.4,0,0,1,.8,1.4,5.8,5.8,0,0,1,.4,1.8v.6H92.4a2.7,2.7,0,0,0,.9,1.2,2.7,2.7,0,0,0,1.5.5l1-.2.9-.5ZM94.5,20a2.1,2.1,0,0,0-1.3.5,2,2,0,0,0-.8,1.2h4.1a2,2,0,0,0-.8-1.2A1.7,1.7,0,0,0,94.5,20Zm5.5,6.7V18.4h2.2V19a2.4,2.4,0,0,1,1.1-.6l1.2-.2a3.1,3.1,0,0,1,3.3,2.9h0v5.6h-2.2V21.8a1.7,1.7,0,0,0-.4-1.2,2.1,2.1,0,0,0-1.3-.5l-1,.2a1.3,1.3,0,0,0-.7.6v5.8Zm10.3-2.4V20.2h-1.7V18.4h1.7V16.2l2.2-.5v2.7h2.4v1.8h-2.4v3.7a1.1,1.1,0,0,0,.2.8,1.6,1.6,0,0,0,.9.3h1.2v1.8h-1.7a3.9,3.9,0,0,1-2.1-.6A2.3,2.3,0,0,1,110.3,24.3ZM53.7,42.8a3.9,3.9,0,0,1-2.1-.6,2.2,2.2,0,0,1-.5-3.1h0a1.2,1.2,0,0,1,.5-.5,4.6,4.6,0,0,1,2.3-.6h1.3l1.1.4v-1a2.1,2.1,0,0,0-.5-1.5,3,3,0,0,0-1.6-.5l-1.2.2-1.3.5-.5-.9,1.6-.6,1.5-.2a3.9,3.9,0,0,1,2.3.7,2.7,2.7,0,0,1,.9,2.1v5.4H56.3v-.8l-1.2.7A3.2,3.2,0,0,1,53.7,42.8Zm-1.8-2.4a1.4,1.4,0,0,0,.6,1.1,2.3,2.3,0,0,0,1.4.4l1.3-.2a4.1,4.1,0,0,0,1.1-.7V39.5a2.2,2.2,0,0,0-1.1-.5L54,38.8a2.1,2.1,0,0,0-1.5.5A1.1,1.1,0,0,0,51.9,40.4Zm11.3,1.4a2.7,2.7,0,0,0,1.2-.3,4.1,4.1,0,0,0,1.1-.7l.8.8a6,6,0,0,1-1.5.9,4.7,4.7,0,0,1-1.7.3,4.5,4.5,0,0,1-1.6-.3,2.7,2.7,0,0,1-1.2-.9,3,3,0,0,1-.9-1.3,4.5,4.5,0,0,1-.3-1.6,4.7,4.7,0,0,1,.3-1.7,3.8,3.8,0,0,1,.9-1.3l1.2-.9a4.5,4.5,0,0,1,1.6-.3,4.7,4.7,0,0,1,1.7.3,5.6,5.6,0,0,1,1.5,1l-.8.8a4.1,4.1,0,0,0-1.1-.7l-1.2-.3-1.2.2a2.2,2.2,0,0,0-.9.7,2.1,2.1,0,0,0-.6,1,2.5,2.5,0,0,0,0,2.4,2.1,2.1,0,0,0,.6,1l.9.6A2.7,2.7,0,0,0,63.2,41.8Zm7,1a4.3,4.3,0,0,1-2.2-.6,2.5,2.5,0,0,1-.8-1.8,2.1,2.1,0,0,1,.9-1.8,4.6,4.6,0,0,1,2.3-.6h1.3l1.1.4v-1a2,2,0,0,0-.6-1.5,2.4,2.4,0,0,0-1.6-.5l-1.2.2-1.3.5-.4-.9,1.6-.6,1.4-.2a4,4,0,0,1,2.4.7,3.2,3.2,0,0,1,.8,2.1v5.4H72.8v-.8l-1.2.7A3.2,3.2,0,0,1,70.2,42.8Zm-1.9-2.4a1.4,1.4,0,0,0,.6,1.1,2.6,2.6,0,0,0,1.5.4l1.3-.2,1.1-.7V39.5L71.7,39l-1.3-.2a2.7,2.7,0,0,0-1.5.5A1.1,1.1,0,0,0,68.3,40.4Zm13.9,2.3v-.9l-1.2.8-1.4.2a4.5,4.5,0,0,1-1.6-.3,4,4,0,0,1-2.2-2.2,4.5,4.5,0,0,1-.3-1.6,4.7,4.7,0,0,1,.3-1.7,3.8,3.8,0,0,1,.9-1.3,5.7,5.7,0,0,1,1.3-.8,4.2,4.2,0,0,1,1.6-.4,3.1,3.1,0,0,1,1.3.3,2.4,2.4,0,0,1,1.2.7v-4l1.2-.3V42.7Zm-5.5-4a5,5,0,0,0,.2,1.2,3.6,3.6,0,0,0,.7,1,1.5,1.5,0,0,0,.9.6,2.7,2.7,0,0,0,1.2.3,3.2,3.2,0,0,0,1.4-.3,3.9,3.9,0,0,0,1-.8v-4a1.6,1.6,0,0,0-1-.8,3.2,3.2,0,0,0-1.4-.3,2.7,2.7,0,0,0-2.1.9A3.1,3.1,0,0,0,76.7,38.7Zm15.4,3.1-1.4.8-1.6.2a4.5,4.5,0,0,1-1.6-.3,4,4,0,0,1-2.2-2.2,4.4,4.4,0,0,1,0-3.2,6.4,6.4,0,0,1,.8-1.4,5.7,5.7,0,0,1,1.3-.8,4.2,4.2,0,0,1,1.5-.4,2.8,2.8,0,0,1,1.5.4l1.2.8a3.9,3.9,0,0,1,.8,1.4,4.5,4.5,0,0,1,.3,1.6V39H86.1a3.5,3.5,0,0,0,1,2,3.2,3.2,0,0,0,2,.8l1.3-.2,1-.5Zm-3.2-6.2a2.4,2.4,0,0,0-1.8.7,3.1,3.1,0,0,0-.9,1.8h5.3a3.1,3.1,0,0,0-.9-1.8A2.2,2.2,0,0,0,88.9,35.6Zm5.5,7.1v-8h1.1v.9a2.8,2.8,0,0,1,1.1-.8,2.8,2.8,0,0,1,1.3-.3,2.6,2.6,0,0,1,1.5.4,2.7,2.7,0,0,1,1,1.1,4.3,4.3,0,0,1,1.2-1.1,2.9,2.9,0,0,1,1.6-.4,2.7,2.7,0,0,1,2.1.9,3.5,3.5,0,0,1,.8,2.2v5.1H105V37.9a2.7,2.7,0,0,0-.6-1.7,2,2,0,0,0-1.5-.6,2.7,2.7,0,0,0-1.2.3,2.4,2.4,0,0,0-1,1,.4.4,0,0,1,.1.3v5.5H99.7V37.9a2.7,2.7,0,0,0-.6-1.7,2,2,0,0,0-1.5-.6l-1.2.2a3.8,3.8,0,0,0-.9.9v6Zm15.4,1,.5-1-3.3-8h1.3l2.6,6.5,2.8-6.5H115l-4,9.2a4.5,4.5,0,0,1-1.1,1.7,3,3,0,0,1-1.6.5h-.8V44.9h.7a1.6,1.6,0,0,0,.9-.3A1.6,1.6,0,0,0,109.8,43.7Z" fill="#96a8bb"/>
</svg>
