<svg xmlns="http://www.w3.org/2000/svg" width="110" height="60" viewBox="0 0 110 60">
  <path d="M7,19.1c0,8.8,5.9,13.5,5.9,17.6S12.1,49,14.2,53A4.2,4.2,0,0,1,11,55C5.6,55,6.9,40.9,6.9,36.7S1,27.9,1,19.1,8.7,5,14.1,5a14.1,14.1,0,0,1,3.3.4A14.5,14.5,0,0,0,7,19.1Zm23,22a4.2,4.2,0,0,0-3,1.2C31,45.6,32.6,55,37,55a3.1,3.1,0,0,0,2.8-2C36.8,49.2,34.9,41.1,30,41.1Z" fill="#96a8bb" opacity="0.15"/>
  <path d="M24,7.3c3.9,0,4.5-2.3,9.9-2.3S47,10.4,47,19.1s-5.9,13.5-5.9,17.6S42.4,55,37,55,30.5,41.1,24,41.1,16.4,55,11,55,6.9,40.9,6.9,36.7,1,27.9,1,19.1,8.7,5,14.1,5,20.1,7.3,24,7.3ZM14,25a10,10,0,0,0,20,0Zm6-7a3,3,0,0,0-6,0m20,0a3,3,0,0,0-6,0M15,29h8" fill="none" stroke="#96a8bb" stroke-miterlimit="10" stroke-width="2"/>
  <path d="M54.8,14.3a1.7,1.7,0,0,1,.7-1.4,3,3,0,0,1,1.8-.5,2.9,2.9,0,0,1,1.7.5,2.6,2.6,0,0,1,.7,1.6H58.6a1.9,1.9,0,0,0-.4-.9,1.2,1.2,0,0,0-1-.4,1.7,1.7,0,0,0-1,.3,1.1,1.1,0,0,0-.3.8.8.8,0,0,0,.4.7l1,.4,1.1.2a2.1,2.1,0,0,1,1,.6,2.1,2.1,0,0,1,.4,1.2,1.3,1.3,0,0,1-.7,1.2,3,3,0,0,1-3.6,0,2.1,2.1,0,0,1-.7-1.5h1.1a1.3,1.3,0,0,0,.4.9,1.7,1.7,0,0,0,1,.3,1.3,1.3,0,0,0,1-.3.8.8,0,0,0,.4-.7.9.9,0,0,0-.3-.7l-.7-.3-.9-.2-1-.3a1.8,1.8,0,0,1-.7-.5A1.7,1.7,0,0,1,54.8,14.3Zm7,3.9a3.2,3.2,0,0,1-.9-2.4,3.2,3.2,0,0,1,3.3-3.4,3.2,3.2,0,0,1,2.4.9,3.2,3.2,0,0,1,1,2.5,3.3,3.3,0,0,1-1,2.4,3.3,3.3,0,0,1-2.4,1A3,3,0,0,1,61.8,18.2Zm2.4.1a2.6,2.6,0,0,0,1.6-.7,2.6,2.6,0,0,0,.6-1.8,2.9,2.9,0,0,0-.6-1.9,2.3,2.3,0,0,0-1.6-.6,2,2,0,0,0-1.5.6,2.5,2.5,0,0,0-.7,1.9,2.4,2.4,0,0,0,.6,1.8A2.2,2.2,0,0,0,64.2,18.3Zm5.2-.1a3.2,3.2,0,0,1-.9-2.4,3.3,3.3,0,0,1,.9-2.5,3.2,3.2,0,0,1,2.3-.9,2.9,2.9,0,0,1,1.9.5,3.1,3.1,0,0,1,1.1,1.6H73.5a1.3,1.3,0,0,0-.7-.9,1.8,1.8,0,0,0-1.1-.3,2,2,0,0,0-1.5.6,2.9,2.9,0,0,0-.6,1.9,2.4,2.4,0,0,0,.6,1.8,1.8,1.8,0,0,0,1.5.7A1.7,1.7,0,0,0,73.5,17h1.2a3.1,3.1,0,0,1-1.1,1.6,3.2,3.2,0,0,1-4.2-.4Zm7.8-7-.5.2-.5-.2c-.2-.1-.2-.3-.2-.5a.7.7,0,0,1,.2-.6l.5-.2.5.2a.7.7,0,0,1,.2.6C77.4,10.9,77.4,11.1,77.2,11.2Zm-1.1,7.9V12.5h1.1v6.6Zm5.7.1a2.8,2.8,0,0,1-2.3-1,3.2,3.2,0,0,1-.9-2.4,3.3,3.3,0,0,1,.9-2.5A3.2,3.2,0,0,1,85,15.5v.6H79.7a2.6,2.6,0,0,0,.6,1.6,2.2,2.2,0,0,0,2.6.3,1.8,1.8,0,0,0,.7-.8h1.2a3,3,0,0,1-1.1,1.4A2.9,2.9,0,0,1,81.8,19.2Zm1.5-5.4a2.5,2.5,0,0,0-1.5-.5,1.6,1.6,0,0,0-1.4.5,2.6,2.6,0,0,0-.7,1.6h4.2A2.1,2.1,0,0,0,83.3,13.8Zm5.2,4.4h.9v.9H88.3a1.5,1.5,0,0,1-1.7-1.7v-4h-.9v-.9h.9V10.8h1.1v1.7h1.7v.9H87.7v4a.8.8,0,0,0,.2.6Zm4,.8-2.6-6.5h1.2l2,5.3,2-5.3h1.2l-4,9.6H91.2Zm7.7-.8a3.2,3.2,0,0,1-.9-2.4,3.5,3.5,0,0,1,.9-2.5,3.4,3.4,0,0,1,2.4-.9,3.6,3.6,0,0,1,2.4.9,3.5,3.5,0,0,1,.9,2.5,3,3,0,0,1-1,2.4,3,3,0,0,1-2.4,1A2.9,2.9,0,0,1,100.2,18.2Zm2.3.1a2.4,2.4,0,0,0,1.6-.7,2.3,2.3,0,0,0,.7-1.8,2.5,2.5,0,0,0-.7-1.9,2,2,0,0,0-1.5-.6,2.1,2.1,0,0,0-1.6.6,2.9,2.9,0,0,0-.6,1.9,2.4,2.4,0,0,0,.6,1.8A2.1,2.1,0,0,0,102.5,18.3Zm7.5-5.8v.9h-1.4v5.7h-1.1V13.4h-.8v-.9h.8v-.6a2.1,2.1,0,0,1,.6-1.6,3,3,0,0,1,1.8-.4v.8a1.3,1.3,0,0,0-1,.3,1.2,1.2,0,0,0-.3.9v.6ZM58.6,26.4a2.9,2.9,0,0,1,2.2.9,3.2,3.2,0,0,1,.9,2.4,3.5,3.5,0,0,1-.9,2.5,3,3,0,0,1-2.2,1,3.3,3.3,0,0,1-1.5-.4,5.2,5.2,0,0,1-1-1.1v4.5H55V26.5h1.1v1.3a3.2,3.2,0,0,1,1-1A2.4,2.4,0,0,1,58.6,26.4Zm-.2,5.8a1.8,1.8,0,0,0,1.5-.7,2.1,2.1,0,0,0,.7-1.8,2.1,2.1,0,0,0-.7-1.7,1.8,1.8,0,0,0-1.5-.7,1.9,1.9,0,0,0-1.6.7,2.5,2.5,0,0,0-.7,1.8,2.9,2.9,0,0,0,.7,1.8A2.1,2.1,0,0,0,58.4,32.2Zm7.4,1a2.9,2.9,0,0,1-2.3-1,3.2,3.2,0,0,1-.9-2.4,3.3,3.3,0,0,1,.9-2.5,3.2,3.2,0,0,1,2.4-.9,3.6,3.6,0,0,1,2.3.8,3.2,3.2,0,0,1,.9,2.3c0,.2-.1.4-.1.6H63.8a2.1,2.1,0,0,0,.6,1.6,1.8,1.8,0,0,0,1.4.6A2.1,2.1,0,0,0,67,32a2.7,2.7,0,0,0,.7-.8h1.1a2.8,2.8,0,0,1-1,1.4A3.4,3.4,0,0,1,65.8,33.2Zm1.5-5.4a2.4,2.4,0,0,0-1.4-.5,2,2,0,0,0-1.5.5,2.1,2.1,0,0,0-.6,1.6h4.1A2.1,2.1,0,0,0,67.3,27.8Zm3.6,4.4a3.5,3.5,0,0,1-.9-2.5,3.2,3.2,0,0,1,.9-2.4,2.9,2.9,0,0,1,2.2-.9,2.4,2.4,0,0,1,1.5.4,2.2,2.2,0,0,1,.9,1V24.2h1.2v8.9H75.5V31.7a3.1,3.1,0,0,1-.9,1.1,3.3,3.3,0,0,1-1.5.4A3,3,0,0,1,70.9,32.2Zm4-.6a2.8,2.8,0,0,0,.6-1.8,2.4,2.4,0,0,0-.6-1.8,2,2,0,0,0-1.6-.7,1.8,1.8,0,0,0-1.5.7,2.1,2.1,0,0,0-.7,1.7,2.1,2.1,0,0,0,.7,1.8,1.8,1.8,0,0,0,1.5.7A2.3,2.3,0,0,0,74.9,31.6Zm4.6-6.4-.5.2-.5-.2c-.2-.1-.2-.3-.2-.5a.7.7,0,0,1,.2-.6l.5-.2.5.2a.7.7,0,0,1,.2.6C79.7,24.9,79.7,25.1,79.5,25.2Zm-1,7.9V26.5h1v6.6Zm3.3-.9a3.5,3.5,0,0,1-.9-2.5,3.2,3.2,0,0,1,.9-2.4,3.2,3.2,0,0,1,2.3-.9,2.3,2.3,0,0,1,1.4.4,2.4,2.4,0,0,1,1,1V26.5h1.1v6.6H86.5V31.7a3.5,3.5,0,0,1-1,1.1,2.9,2.9,0,0,1-3.7-.6Zm4-.6a2.4,2.4,0,0,0,.7-1.8,2.1,2.1,0,0,0-.7-1.8,1.8,1.8,0,0,0-1.5-.7,1.9,1.9,0,0,0-1.6.7,2.1,2.1,0,0,0-.7,1.7,2.1,2.1,0,0,0,.7,1.8,2,2,0,0,0,1.6.7A2,2,0,0,0,85.8,31.6Zm5.7.6h.9v.9H91.3a1.5,1.5,0,0,1-1.7-1.7v-4h-.8v-.9h.8V24.8h1.1v1.7h1.7v.9H90.7v4a.7.7,0,0,0,.8.8Zm3.2-5.7v1.1a2.1,2.1,0,0,1,2-1.2v1.1h-.2a1.7,1.7,0,0,0-1.3.4,2.2,2.2,0,0,0-.5,1.6v3.6H93.6V26.5Zm4.4-1.3-.5.2-.5-.2a.8.8,0,0,1-.2-.5,1.4,1.4,0,0,1,.2-.6l.5-.2.5.2a.9.9,0,0,1,.3.6A.5.5,0,0,1,99.1,25.2Zm-1,7.9V26.5h1.1v6.6Zm3.3-.9a3.2,3.2,0,0,1-.9-2.4,3.3,3.3,0,0,1,.9-2.5,3.7,3.7,0,0,1,4.3-.4,2.9,2.9,0,0,1,1,1.6h-1.2a1.5,1.5,0,0,0-.6-.9,2.1,2.1,0,0,0-1.2-.3,2,2,0,0,0-1.5.6,2.9,2.9,0,0,0-.6,1.9,2.4,2.4,0,0,0,.6,1.8,1.8,1.8,0,0,0,1.5.7,1.7,1.7,0,0,0,1.8-1.3h1.2a3.1,3.1,0,0,1-1.1,1.6,3.2,3.2,0,0,1-4.2-.4Zm-45.9,14a3.5,3.5,0,0,1-.9-2.5,3.2,3.2,0,0,1,.9-2.4,3,3,0,0,1,2.3-.9,2.3,2.3,0,0,1,1.4.4,2.4,2.4,0,0,1,1,1V38.2h1.1v8.9H60.2V45.7a3.5,3.5,0,0,1-1,1.1,2.9,2.9,0,0,1-3.7-.6Zm4-.6a2.4,2.4,0,0,0,.7-1.8,2.1,2.1,0,0,0-.7-1.8,1.9,1.9,0,0,0-1.6-.7,1.8,1.8,0,0,0-1.5.7,2.1,2.1,0,0,0-.7,1.7,2.1,2.1,0,0,0,.7,1.8,1.9,1.9,0,0,0,1.6.7A2,2,0,0,0,59.5,45.6Zm6.3,1.6a2.9,2.9,0,0,1-2.3-1,3.2,3.2,0,0,1-.9-2.4,3.3,3.3,0,0,1,.9-2.5,3.2,3.2,0,0,1,2.4-.9,3.6,3.6,0,0,1,2.3.8,3.2,3.2,0,0,1,.9,2.3c0,.2-.1.4-.1.6H63.8a2.1,2.1,0,0,0,.6,1.6,1.8,1.8,0,0,0,1.4.6A2.1,2.1,0,0,0,67,46a2.7,2.7,0,0,0,.7-.8h1.1a2.8,2.8,0,0,1-1,1.4A3.4,3.4,0,0,1,65.8,47.2Zm1.5-5.4a2.4,2.4,0,0,0-1.4-.5,2,2,0,0,0-1.5.5,2.1,2.1,0,0,0-.6,1.6h4.1A2.1,2.1,0,0,0,67.3,41.8Zm4.2-1.3v1a2.5,2.5,0,0,1,2.2-1.1,2.4,2.4,0,0,1,1.8.7,2.8,2.8,0,0,1,.7,2.1v3.9H75.1V43.3a2,2,0,0,0-.5-1.5,1.7,1.7,0,0,0-1.3-.5,1.9,1.9,0,0,0-1.3.5,2.5,2.5,0,0,0-.5,1.5v3.8H70.4V40.5Zm8.6,5.7H81v.9H79.9a1.5,1.5,0,0,1-1.7-1.7v-4h-.9v-.9h.9V38.8h1.1v1.7H81v.9H79.3v4a.7.7,0,0,0,.8.8Zm3.2-7-.5.2-.6-.2a.8.8,0,0,1-.2-.5,1.4,1.4,0,0,1,.2-.6l.6-.2.5.2a1.4,1.4,0,0,1,.2.6A.8.8,0,0,1,83.3,39.2Zm-1.1,7.9V40.5h1.1v6.6Zm2.7-4.8a2,2,0,0,1,.6-1.4,3.5,3.5,0,0,1,1.8-.5,3.2,3.2,0,0,1,1.8.5,2.1,2.1,0,0,1,.6,1.6H88.6a1.4,1.4,0,0,0-1.3-1.3,1.5,1.5,0,0,0-1,.3,1.1,1.1,0,0,0-.3.8.8.8,0,0,0,.4.7,1.9,1.9,0,0,0,.9.4l1.2.2a1.8,1.8,0,0,1,.9.6,1.6,1.6,0,0,1,.4,1.2,1.4,1.4,0,0,1-.6,1.2,2.8,2.8,0,0,1-1.8.6,2.4,2.4,0,0,1-1.8-.6,1.8,1.8,0,0,1-.7-1.5H86a1,1,0,0,0,.4.9,1.8,1.8,0,0,0,2,0,1,1,0,0,0,.4-.7.9.9,0,0,0-.3-.7l-.7-.3-1-.2-.9-.3-.8-.5A3,3,0,0,1,84.9,42.3Zm8.7,3.9h.9v.9H93.4a1.5,1.5,0,0,1-1.7-1.7v-4h-.9v-.9h.9V38.8h1.1v1.7h1.7v.9H92.8v4c0,.3,0,.5.1.6Zm3.2-5.7v1.1a2,2,0,0,1,2-1.2v1.1h-.3a1.7,1.7,0,0,0-1.3.4,2.2,2.2,0,0,0-.4,1.6v3.6H95.7V40.5Zm5.1,6.5-2.6-6.5h1.2l2,5.3,2.1-5.3h1.1l-3.9,9.6h-1.2Z" fill="#96a8bb"/>
</svg>
