<svg xmlns="http://www.w3.org/2000/svg" width="100" height="60" viewBox="0 0 100 60">
  <path d="M61.1,35.6v2.6H48.5V21.4H60.8V24H51.6v4.4h8.1v2.5H51.6v4.7Zm3.5-14.2h7.3a11.2,11.2,0,0,1,4.8,1,6.7,6.7,0,0,1,3.2,3,8.3,8.3,0,0,1,1.2,4.4,8.6,8.6,0,0,1-1.2,4.4,6.9,6.9,0,0,1-3.2,2.9,11.3,11.3,0,0,1-4.8,1.1H64.6Zm7.2,14.1a7.1,7.1,0,0,0,3.2-.7,4.7,4.7,0,0,0,2.2-2,6.3,6.3,0,0,0,.7-3,6.7,6.7,0,0,0-.7-3.1,4.7,4.7,0,0,0-2.2-2,7.1,7.1,0,0,0-3.2-.7H67.7V35.5Zm23.3-1.2H86.7L85,38.2H81.8l7.5-16.8h3.1L100,38.2H96.7ZM94,31.8l-3.1-7.3-3.2,7.3ZM18.7,17.6c-1.8-1.3-2.8-3.4-4.3-5.4a10.1,10.1,0,0,0-3.1-2.7A7.9,7.9,0,0,0,9.1,9h-2a7.5,7.5,0,0,0-3.7,2,11.5,11.5,0,0,0-2.1,3.3A22.8,22.8,0,0,0,0,21.1q0,3.1.3,6.3A56.5,56.5,0,0,0,2.8,38.2a35.9,35.9,0,0,0,3.8,8.2,17.6,17.6,0,0,0,2.4,3A5.6,5.6,0,0,0,11.9,51a4.4,4.4,0,0,0,2.5-.8A3.7,3.7,0,0,0,15.7,49a3,3,0,0,0,.4-1v-.3a2.7,2.7,0,0,1-.9,1.2,4.2,4.2,0,0,1-1.4.9l-1.4.3a2.1,2.1,0,0,1-1.3-.5,7.4,7.4,0,0,1-2-2.3,15.9,15.9,0,0,1-1.5-2.9A66.6,66.6,0,0,1,4,32.1a47.4,47.4,0,0,1-.9-11.9,17.8,17.8,0,0,1,1-5.1,5.7,5.7,0,0,1,2.7-3.2,7.1,7.1,0,0,1,2-.4,5.7,5.7,0,0,1,1.8.3,9.7,9.7,0,0,1,3,2.7c.9,1,1.7,2,2.6,2.9a10.5,10.5,0,0,0,2.9,1.7,6.2,6.2,0,0,0,2.7.2l1.8-.5,1.1-.5.4-.2C22.9,18.9,20.4,19,18.7,17.6Zm2.2-1.4a4.8,4.8,0,0,0,1.7-.5l2.7-1.5a5,5,0,0,1,2.6-.8h1.2l.5.2.6.2a4.6,4.6,0,0,1,1.5,1.6,3.7,3.7,0,0,1,.5,1.1l.3,1.3a18.2,18.2,0,0,1,.2,5.2,47,47,0,0,1-2,9.9c-.9,3-5.4,14.7-9.8,14.7s-4.1-4.2-4.2-4.8c-.3,1,.3,6.3,4.7,6.3s6.9-4.4,7.9-6a35.3,35.3,0,0,0,2.8-5,41.9,41.9,0,0,0,3-10.3,27.3,27.3,0,0,0,.5-5,19.5,19.5,0,0,0-.4-4.8,11.2,11.2,0,0,0-1.8-4.2,5,5,0,0,0-3.6-2.1H27.9l-1.7.5a18.8,18.8,0,0,0-2.3,1.6c-1.3,1.1-2.3,2-3.3,2.1H19.5l-.4-.2A2.4,2.4,0,0,0,20.9,16.2Z" fill="#96a8bb"/>
  <path d="M13.1,26.1l.6.5,1.4,1.5a15.1,15.1,0,0,1,1.8,2.6c.3.6.3.5.4.6v-.2h.1v-.3l.3-.6A13.5,13.5,0,0,1,21,25.7l-.3.7a7.6,7.6,0,0,1-.6,2l-.8,3.2c-.3,1.4-1.3,5-2.2,8.2-.4-1.7-.8-4-1.2-5.6L15.6,33l-.3-.9-.4-1.3C14.4,29.3,13.8,27.7,13.1,26.1Z" fill="#96a8bb" opacity="0.5" style="isolation: isolate"/>
</svg>
