<svg xmlns="http://www.w3.org/2000/svg" width="82" height="60" viewBox="0 0 82 60">
  <path d="M10.7,38.4H.1c-.1,0-.1-.1-.1-.3s0-.3.1-.3a6,6,0,0,0,2.3-.2,2,2,0,0,0,.9-.9,8.3,8.3,0,0,0,.3-2.2V12a7.6,7.6,0,0,0-.3-2.1,1.5,1.5,0,0,0-.9-1L.2,8.7c-.1,0-.2-.1-.2-.3s.1-.3.2-.3H13.6A18.3,18.3,0,0,1,22.2,10a15,15,0,0,1,5.9,5.3,15.3,15.3,0,0,1,2,7.5A16.7,16.7,0,0,1,28,31a14.9,14.9,0,0,1-5.8,5.6,16.5,16.5,0,0,1-7.9,1.9Zm8.5-2.6a9.3,9.3,0,0,0,3.7-4.6,19,19,0,0,0,1.3-7.4A23.6,23.6,0,0,0,23,16.3,11.4,11.4,0,0,0,19.4,11a8,8,0,0,0-5.3-1.9,11.3,11.3,0,0,0-4.1.5,2.7,2.7,0,0,0-1.1,2.5V33.9a3.4,3.4,0,0,0,1,2.7,7.6,7.6,0,0,0,3.9.8A8.8,8.8,0,0,0,19.2,35.8ZM75.1,10.2a3.9,3.9,0,0,0-3.3-1.5.6.6,0,0,1,0-.6H81.9c.1,0,.1.1.1.3s0,.3-.1.3A3.3,3.3,0,0,0,79,10.2a6.7,6.7,0,0,0-1.1,4.1V27.7a11.4,11.4,0,0,1-1.5,6,9.9,9.9,0,0,1-4.2,3.9,14.4,14.4,0,0,1-12.5,0,10.2,10.2,0,0,1-4.3-3.9,12.1,12.1,0,0,1-1.6-6.1V12a14.9,14.9,0,0,0-.2-2.1,1.7,1.7,0,0,0-1-1l-2.2-.2c-.1,0-.1-.1-.1-.3s0-.3.1-.3H62.6c.1,0,.1.1.1.3s0,.3-.1.3a8.3,8.3,0,0,0-2.2.3,1.7,1.7,0,0,0-1,1,5,5,0,0,0-.2,2.1V25.9c0,3.9.7,6.7,2.2,8.6a7.6,7.6,0,0,0,6.4,2.7A8,8,0,0,0,74,34.8a10.5,10.5,0,0,0,2.3-7V14.3A6,6,0,0,0,75.1,10.2Z" fill="#96a8bb" opacity="0.6" style="isolation: isolate"/>
  <path d="M43.6,36.6a2,2,0,0,0,.9.9,6,6,0,0,0,2.3.2c.1,0,.1.1.1.3s0,.3-.1.3H34.5c-.1,0-.1-.1-.1-.3s0-.3.1-.3a6,6,0,0,0,2.3-.2,2,2,0,0,0,.9-.9,8.3,8.3,0,0,0,.3-2.2V12a7.6,7.6,0,0,0-.3-2.1,1.5,1.5,0,0,0-.9-1l-2.3-.2c-.1,0-.1-.1-.1-.3s0-.3.1-.3H46.8c.1,0,.1.1.1.3s0,.3-.1.3a8.3,8.3,0,0,0-2.2.3,1.7,1.7,0,0,0-1,1,14.9,14.9,0,0,0-.2,2.1V34.4A16.4,16.4,0,0,0,43.6,36.6ZM2.7,50.2a1.4,1.4,0,0,1-1.2-.6A3.4,3.4,0,0,1,1,47.9a3,3,0,0,1,.5-1.6,1.4,1.4,0,0,1,1.2-.6,1.6,1.6,0,0,1,1.3.6h.1a1.7,1.7,0,0,1-.1-.7V44h.9v6.1H4.2L4,49.5H4A1.7,1.7,0,0,1,2.7,50.2Zm.3-.8a1.1,1.1,0,0,0,.8-.3,1.2,1.2,0,0,0,.2-1v-.2c0-.5,0-.9-.2-1.1a1.1,1.1,0,0,0-.9-.4,1,1,0,0,0-.7.4,2.2,2.2,0,0,0,0,2.2A.9.9,0,0,0,3,49.4Zm5.1.8a2.3,2.3,0,0,1-1.6-.6A3.4,3.4,0,0,1,6,47.9a3,3,0,0,1,.5-1.6,2,2,0,0,1,1.4-.6,1.7,1.7,0,0,1,1.9,1.5v.9H6.9a1.3,1.3,0,0,0,.4,1,1.4,1.4,0,0,0,.9.3h.7l.7-.3v.8l-.7.2Zm-.2-3.8a.9.9,0,0,0-.7.3,1.1,1.1,0,0,0-.3.8h2c0-.4-.1-.7-.3-.8A.9.9,0,0,0,7.9,46.4Zm6.7,3.7h-.9V47.4a1.9,1.9,0,0,0-.2-.7.7.7,0,0,0-.6-.3,1.1,1.1,0,0,0-.9.4c-.2.2-.2.6-.2,1.1v2.2h-1V45.8h.8v.5h0l.6-.5H13c1,0,1.5.5,1.5,1.6Zm2.9-.7h.7V50h-.9c-.9,0-1.3-.5-1.3-1.4V46.5h-.6V46l.6-.3.3-.9h.6v1h1.2v.7H16.9v2.3a.8.8,0,0,0,.2.5Zm4.2.7v-.6h-.1L21,50l-.8.2a1.4,1.4,0,0,1-1.4-1.4,1.2,1.2,0,0,1,.5-1,4,4,0,0,1,1.5-.3h.8v-.2c.1-.4-.2-.7-.6-.8h-.8l-.6.2-.3-.6a.9.9,0,0,1,.7-.3h.8A2.5,2.5,0,0,1,22,46a1.7,1.7,0,0,1,.4,1.2v2.9Zm-1.3-.6a1,1,0,0,0,1.1-.9V48h-.6c-.4.1-.7.1-.9.3a.5.5,0,0,0-.3.5c0,.2,0,.4.2.5Zm4.2.6h-.9V44h.9Zm3.3-5.5a.5.5,0,0,1,.2-.4c0-.1.2-.1.3-.1h.4a.5.5,0,0,1,.1.7h-.5c-.1,0-.3,0-.3-.1A.2.2,0,0,1,27.9,44.6Zm1,5.5H28V45.8h.9Zm4.9,0h-.9V47.4c0-.3,0-.6-.2-.7a.7.7,0,0,0-.6-.3.7.7,0,0,0-.7.4,2,2,0,0,0-.3,1.1v2.2h-.9V45.8h.7l.2.5h0l.5-.5h.8a1.2,1.2,0,0,1,1.3.7h.1a1.2,1.2,0,0,1,.5-.5,1.1,1.1,0,0,1,.8-.2,1.2,1.2,0,0,1,1.1.4,1.7,1.7,0,0,1,.4,1.2v2.8h-1V47.4c0-.3,0-.6-.1-.7a.9.9,0,0,0-.6-.3.9.9,0,0,0-.8.4,1.7,1.7,0,0,0-.3,1Zm6.2.1a1.4,1.4,0,0,1-1.2-.6h-.1a1.3,1.3,0,0,0,.1.6V52h-1V45.8h.8a.9.9,0,0,0,.1.5h.1a1.4,1.4,0,0,1,1.2-.6,1.6,1.6,0,0,1,1.3.6,3,3,0,0,1,.5,1.6,3.4,3.4,0,0,1-.5,1.7A1.6,1.6,0,0,1,40,50.2Zm-.2-3.8a.9.9,0,0,0-.8.4c-.2.2-.2.5-.2,1h0A2.5,2.5,0,0,0,39,49a1.1,1.1,0,0,0,.8.3.9.9,0,0,0,.8-.4,3.6,3.6,0,0,0,.2-1.1,4.3,4.3,0,0,0-.2-1.1A1.1,1.1,0,0,0,39.8,46.4Zm3.9,3.7h-.9V44h.9Zm4,0v-.6h-.1L47,50l-.8.2a1.4,1.4,0,0,1-1.4-1.4,1.2,1.2,0,0,1,.5-1,4,4,0,0,1,1.5-.3h.8v-.2c.1-.4-.2-.7-.6-.8h-.8l-.6.2-.3-.6a.9.9,0,0,1,.7-.3h.8A2.5,2.5,0,0,1,48,46a1.7,1.7,0,0,1,.4,1.2v2.9Zm-1.3-.6a1,1,0,0,0,1.1-.9V48h-.6c-.4.1-.7.1-.9.3a.5.5,0,0,0-.3.5c0,.2,0,.4.2.5Zm7.1.6h-.9V47.4a1.9,1.9,0,0,0-.2-.7.9.9,0,0,0-.7-.3c-.4,0-.7.1-.8.4a2,2,0,0,0-.3,1.1v2.2h-.9V45.8h.7v.5h.1l.5-.5h.8A1.4,1.4,0,0,1,53.4,47v3.1Zm2.9-.7H57V50h-.9a1.2,1.2,0,0,1-1.3-1.1V46.5h-.6V46l.7-.3.3-.9h.6v1H57v.7H55.8v2.3a.7.7,0,0,0,.1.5Zm6.6.7v-.6h-.1a1.2,1.2,0,0,1-.5.5l-.8.2A1.4,1.4,0,0,1,60,48.6V45.8h.9v2.6a1.9,1.9,0,0,0,.2.8l.7.2c.4,0,.7-.1.8-.3a2.7,2.7,0,0,0,.3-1.2V45.8h.9v4.3Zm5.8,0h-.9V47.4a1.9,1.9,0,0,0-.2-.7.7.7,0,0,0-.6-.3,1.1,1.1,0,0,0-.9.4,2,2,0,0,0-.3,1.1v2.2H65V45.8h.7l.2.5h0l.6-.5h.8c1,0,1.5.5,1.5,1.6ZM70,44.6a.5.5,0,0,1,.2-.4h.7a.5.5,0,0,1,.1.7h-.1c0,.1-.2.1-.3.1h-.4A.5.5,0,0,1,70,44.6Zm1,5.5h-.9V45.8H71Zm5.2-2.2a2.7,2.7,0,0,1-.6,1.7,2.1,2.1,0,0,1-2.6.3,2.7,2.7,0,0,1-.7-.8,5,5,0,0,1-.2-1.2,1.8,1.8,0,0,1,.5-1.6,2.2,2.2,0,0,1,3,0A2.3,2.3,0,0,1,76.2,47.9Zm-3.2,0c0,1,.4,1.5,1.1,1.5s1.1-.5,1.1-1.5-.4-1.5-1.1-1.5a.9.9,0,0,0-.8.4A2,2,0,0,0,73,47.9Zm8,2.2h-.9V47.4a1.9,1.9,0,0,0-.2-.7,1,1,0,0,0-1.4,0h-.1a2,2,0,0,0-.3,1.1v2.2h-.9V45.8h.7l.2.5h0c.1-.2.3-.3.6-.5h.7A1.4,1.4,0,0,1,81,47v3.1Z" fill="#96a8bb"/>
</svg>
