<svg xmlns="http://www.w3.org/2000/svg" width="115" height="60" viewBox="0 0 115 60">
  <path d="M21,8V18.1c-1.1-.3-1.7-1.1-3.8-1.1S11,19.8,11,24.4A12.5,12.5,0,0,0,12,29H0V8Z" fill="#96a8bb" opacity="0.5"/>
  <path d="M44,8V29H32a12.5,12.5,0,0,0,1-4.6c0-4.6-3.7-7.4-6.2-7.4s-2.7.8-3.8,1.1V8ZM15.8,43c-2.6,0-2-7.4-2-9.5A5.2,5.2,0,0,0,13,31H0V52H21V36.1C18.8,37.4,18,43,15.8,43ZM31,31a5.2,5.2,0,0,0-.8,2.5c0,2.1.6,9.5-2,9.5s-3-5.6-5.2-6.9V52H44V31ZM53.7,14.2H52.6V22h1.1Zm1.9,2V22h1V17.8l.6-.6L58,17a1.4,1.4,0,0,1,.9.3,2.6,2.6,0,0,1,.3,1.1V22h1V18.4a2.6,2.6,0,0,0-.5-1.7,2,2,0,0,0-1.5-.6l-1,.3a2.3,2.3,0,0,0-.7.7v-.9Zm6.6-1.4v1.4h-.9V17h.9v3.5a1.5,1.5,0,0,0,.4,1.3,1,1,0,0,0,1,.3H64l.4-.2v-.6H64l-.5-.2a.8.8,0,0,1-.2-.6V17h1.1v-.8H63.3V14.8ZM69.5,22l.8-.5-.4-.7a1.2,1.2,0,0,1-.7.5h-.9a1.3,1.3,0,0,1-1.2-.5,2.3,2.3,0,0,1-.4-1.4h3.8v-.7a3.5,3.5,0,0,0-.6-1.9,2.9,2.9,0,0,0-1.8-.7,2.1,2.1,0,0,0-1.7.8,3.4,3.4,0,0,0-.8,2.1v.2a3,3,0,0,0,.7,2.1,2.2,2.2,0,0,0,2,.8A1.7,1.7,0,0,0,69.5,22Zm-.4-4.5a1.9,1.9,0,0,1,.3,1H66.7a2.7,2.7,0,0,1,.5-1.1,1.3,1.3,0,0,1,.9-.5A1.7,1.7,0,0,1,69.1,17.5Zm5.5-1.4h-.4l-.9.3-.6.7v-.9h-.9v5.9h1V18c.1-.3.3-.4.5-.6l.7-.2h.5Zm1.1.1V22h1V17.8c.2-.3.3-.5.6-.6l.8-.2a1.4,1.4,0,0,1,.9.3,2.6,2.6,0,0,1,.3,1.1V22h1V18.4a2.6,2.6,0,0,0-.5-1.7,2,2,0,0,0-1.5-.6,1.7,1.7,0,0,0-1,.3l-.7.7v-.9Zm11,5.8a.7.7,0,0,1-.1-.5c-.1-.1-.1-.3-.1-.6V18.1a2.2,2.2,0,0,0-.6-1.5,2.8,2.8,0,0,0-3.2,0,1.6,1.6,0,0,0-.6,1.2h1c0-.2.2-.4.4-.6a1.1,1.1,0,0,1,.8-.3h.2a1.1,1.1,0,0,1,1,1.2v.5H84.3a3.7,3.7,0,0,0-1.8.5,1.5,1.5,0,0,0-.7,1.3,1.9,1.9,0,0,0,.5,1.3,1.5,1.5,0,0,0,1.4.4,1.2,1.2,0,0,0,1-.2l.8-.7v.4c0,.1.1.3.1.4Zm-3.6-1a.8.8,0,0,1-.2-.6,1.3,1.3,0,0,1,.4-.7,1.8,1.8,0,0,1,1-.4h1.2v1a1.1,1.1,0,0,1-.6.7,1.1,1.1,0,0,1-1.1.3C83.5,21.4,83.3,21.2,83.1,21Zm5.3-6.2v1.4h-.9V17h.9v3.5a1.5,1.5,0,0,0,.4,1.3,1,1,0,0,0,1,.3h.5c.1-.1.3-.1.3-.2v-.6h-.4l-.5-.2c-.1-.1-.1-.3-.1-.6V17h1.1v-.8H89.6V14.8Zm4.8-1.1h-1v1h1Zm0,2.5h-1V22h1Zm2.2,5a2.1,2.1,0,0,0,1.9.8,2,2,0,0,0,1.9-.8,2.6,2.6,0,0,0,.7-2.1h0a3.8,3.8,0,0,0-.7-2.2,2.7,2.7,0,0,0-3.8,0,3.8,3.8,0,0,0-.7,2.2A3,3,0,0,0,95.4,21.2Zm.8-3.5a1.2,1.2,0,0,1,1.1-.7,1.4,1.4,0,0,1,1.2.7,2.8,2.8,0,0,1,.4,1.5h0a2.4,2.4,0,0,1-.4,1.5,1.2,1.2,0,0,1-1.2.6.9.9,0,0,1-1.1-.6,2.4,2.4,0,0,1-.4-1.5A2.8,2.8,0,0,1,96.2,17.7Zm5.1-1.5V22h1.1V17.8a1.2,1.2,0,0,1,.6-.6l.8-.2a1.4,1.4,0,0,1,.9.3,2.6,2.6,0,0,1,.3,1.1V22h1V18.4a2.2,2.2,0,0,0-.6-1.7,2.1,2.1,0,0,0-2.4-.3l-.7.7v-.9ZM112.4,22l-.2-.5V18.1a2.2,2.2,0,0,0-.6-1.5,2.8,2.8,0,0,0-3.2,0,1.6,1.6,0,0,0-.6,1.2h1a.9.9,0,0,1,.3-.6,1.4,1.4,0,0,1,.9-.3,1.1,1.1,0,0,1,.8.3,1.8,1.8,0,0,1,.4.9v.5H110a3.7,3.7,0,0,0-1.8.5,1.5,1.5,0,0,0-.7,1.3,1.9,1.9,0,0,0,.5,1.3,1.5,1.5,0,0,0,1.4.4,1.2,1.2,0,0,0,1-.2l.8-.7v.4c0,.2,0,.3.1.4Zm-3.6-1c-.2-.1-.2-.3-.2-.6a1.1,1.1,0,0,1,.3-.7,2.1,2.1,0,0,1,1.1-.4h1.2v1a1.1,1.1,0,0,1-.6.7,2,2,0,0,1-1.1.3C109.2,21.4,109,21.2,108.8,21Zm6.2-7.3h-1.1V22H115ZM57.5,34h1.1l-3-7.8h-.9l-3,7.8h1.1l.7-2h3.3Zm-2.3-6.4h0l1.3,3.5H53.8Zm7.4,5.6-.8.2-1-.2a1.3,1.3,0,0,1-.4-.9h-1a1.6,1.6,0,0,0,.6,1.3,2,2,0,0,0,1.8.5,2.3,2.3,0,0,0,1.6-.4,1.6,1.6,0,0,0,.1-2.4l-1.6-.6c-.5-.1-.9-.2-1-.4s-.3-.2-.3-.5a.9.9,0,0,1,.3-.6,1.1,1.1,0,0,1,.8-.3,1.4,1.4,0,0,1,.9.3,1.1,1.1,0,0,1,.3.7h1a2.4,2.4,0,0,0-.5-1.3,3.4,3.4,0,0,0-1.7-.5,2.7,2.7,0,0,0-1.5.5,1.6,1.6,0,0,0-.6,1.2c0,.5.1.9.5,1.1a2.5,2.5,0,0,0,1.6.6l1,.4a.9.9,0,0,1,.3.6A.7.7,0,0,1,62.6,33.2Zm5.9,0-.9.2-.9-.2a1,1,0,0,1-.4-.9h-1a1.5,1.5,0,0,0,.6,1.3,2.2,2.2,0,0,0,1.7.5,2.5,2.5,0,0,0,1.7-.4,1.6,1.6,0,0,0,.1-2.4l-1.7-.6a1.3,1.3,0,0,1-1-.4.8.8,0,0,1-.2-.5.9.9,0,0,1,.3-.6c.1-.2.4-.3.8-.3a1.1,1.1,0,0,1,.8.3c.3.3.4.5.4.7h1a1.9,1.9,0,0,0-.6-1.3,2.8,2.8,0,0,0-3.2,0,1.6,1.6,0,0,0-.6,1.2,1.1,1.1,0,0,0,.6,1.1,2.5,2.5,0,0,0,1.6.6l1,.4a1.4,1.4,0,0,1,.2.6A.8.8,0,0,1,68.5,33.2Zm3.3,0a2,2,0,0,0,1.9.8,2.1,2.1,0,0,0,1.9-.8,3,3,0,0,0,.7-2.1h0a3.8,3.8,0,0,0-.7-2.2,2.7,2.7,0,0,0-3.8,0,3.8,3.8,0,0,0-.7,2.2A2.6,2.6,0,0,0,71.8,33.2Zm.7-3.5a1.4,1.4,0,0,1,1.2-.7,1.2,1.2,0,0,1,1.1.7,2.8,2.8,0,0,1,.4,1.5h0a2.4,2.4,0,0,1-.4,1.5.9.9,0,0,1-1.1.6,1.2,1.2,0,0,1-1.2-.6,2.4,2.4,0,0,1-.4-1.5A2.8,2.8,0,0,1,72.5,29.7Zm6.3,3a3.3,3.3,0,0,1-.3-1.5V31a2.8,2.8,0,0,1,.4-1.5,1.1,1.1,0,0,1,1.1-.6l1,.4a1.8,1.8,0,0,1,.4.9h.9a2.2,2.2,0,0,0-.6-1.5,2.7,2.7,0,0,0-3.6.2,4.4,4.4,0,0,0-.7,2.1v.2a3,3,0,0,0,.7,2.1,2,2,0,0,0,1.9.8,2.2,2.2,0,0,0,1.7-.5,1.7,1.7,0,0,0,.6-1.4h-.9a1,1,0,0,1-.4.8,1,1,0,0,1-1,.3A1.2,1.2,0,0,1,78.8,32.7Zm6-7H83.7v1h1.1Zm0,2.5H83.7V34h1.1ZM91.2,34a.7.7,0,0,1-.1-.5c-.1-.1-.1-.3-.1-.6V30.1a2.2,2.2,0,0,0-.6-1.5,2.8,2.8,0,0,0-3.2,0,1.6,1.6,0,0,0-.6,1.2h1a.9.9,0,0,1,.3-.6,1.6,1.6,0,0,1,.9-.3,1.1,1.1,0,0,1,.8.3,1.2,1.2,0,0,1,.4.9v.5H88.8a3.7,3.7,0,0,0-1.8.5,1.5,1.5,0,0,0-.7,1.3,1.9,1.9,0,0,0,.5,1.3,1.5,1.5,0,0,0,1.4.4,1.2,1.2,0,0,0,1-.2l.8-.7v.4c0,.2,0,.3.1.4Zm-3.6-1c-.2-.1-.2-.3-.2-.6a1.3,1.3,0,0,1,.4-.7,1.5,1.5,0,0,1,1-.4H90v1a1.1,1.1,0,0,1-.6.7,1.1,1.1,0,0,1-1.1.3C88,33.4,87.8,33.2,87.6,33ZM93,26.8v1.4H92V29h.9v3.5a1.5,1.5,0,0,0,.4,1.3,1,1,0,0,0,1,.3h.5l.3-.2v-.6h-.4l-.5-.2c-.1-.1-.1-.3-.1-.6V29h1.1v-.8H94.1V26.8Zm4.7-1.1h-1v1h1Zm0,2.5h-1V34h1Zm2.2,5a2.1,2.1,0,0,0,1.9.8,2,2,0,0,0,1.9-.8,2.6,2.6,0,0,0,.7-2.1h0a3.8,3.8,0,0,0-.7-2.2,2.8,2.8,0,0,0-3.8,0,3.8,3.8,0,0,0-.7,2.2A2.6,2.6,0,0,0,99.9,33.2Zm.8-3.5a1.2,1.2,0,0,1,1.1-.7,1.4,1.4,0,0,1,1.2.7,2.8,2.8,0,0,1,.4,1.5h0a2.4,2.4,0,0,1-.4,1.5,1.2,1.2,0,0,1-1.2.6.9.9,0,0,1-1.1-.6,2.4,2.4,0,0,1-.4-1.5A2.8,2.8,0,0,1,100.7,29.7Zm5.1-1.5V34h1.1V29.8l.5-.6.8-.2a1.7,1.7,0,0,1,1,.3,2.6,2.6,0,0,1,.3,1.1V34h1V30.4c0-.8-.1-1.4-.5-1.7a2.1,2.1,0,0,0-2.4-.3,2.7,2.7,0,0,0-.8.7v-.9Zm-53,17a2.1,2.1,0,0,0,1.9.8,2,2,0,0,0,1.9-.8,2.6,2.6,0,0,0,.7-2.1h0a3.8,3.8,0,0,0-.7-2.2,2.8,2.8,0,0,0-3.8,0,3.8,3.8,0,0,0-.7,2.2A2.6,2.6,0,0,0,52.8,45.2Zm.8-3.5a1.2,1.2,0,0,1,1.1-.7,1.4,1.4,0,0,1,1.2.7,2.8,2.8,0,0,1,.4,1.5h0a2.4,2.4,0,0,1-.4,1.5,1.2,1.2,0,0,1-1.2.6.9.9,0,0,1-1.1-.6,2.4,2.4,0,0,1-.4-1.5A2.8,2.8,0,0,1,53.6,41.7Zm6.6,4.2v-5h1.3v-.8H60.3v-.7a3.1,3.1,0,0,1,.2-.8.9.9,0,0,1,.7-.3h.6v-.8H61a2.4,2.4,0,0,0-1.4.5,2.8,2.8,0,0,0-.4,1.5v.7h-.9V41h.9v5Zm7.9.1a2.7,2.7,0,0,0,2.4-.9,3,3,0,0,0,1-2.4V41.6h0a3.4,3.4,0,0,0-3.4-3.4H65.7V46Zm0-7a2.1,2.1,0,0,1,1.7.8,2.5,2.5,0,0,1,.6,1.8v1.1a2.8,2.8,0,0,1-.6,1.8,1.9,1.9,0,0,1-1.7.7H66.7V39Zm8.4,7,.8-.5-.4-.7a1.2,1.2,0,0,1-.7.5h-1a1.1,1.1,0,0,1-1.1-.5,2.3,2.3,0,0,1-.4-1.4h3.8v-.7a3.5,3.5,0,0,0-.6-1.9h-.1a2.5,2.5,0,0,0-3.5.1,3.3,3.3,0,0,0-.7,2.1v.2a2.6,2.6,0,0,0,.7,2.1,2.1,2.1,0,0,0,1.9.8A2,2,0,0,0,76.5,46Zm-.4-4.5a1.9,1.9,0,0,1,.3,1H73.7a2.7,2.7,0,0,1,.5-1.1,1.3,1.3,0,0,1,.9-.5A1.7,1.7,0,0,1,76.1,41.5Zm2.7-1.3V46h1V41.8c.2-.3.3-.5.6-.6l.8-.2a1.4,1.4,0,0,1,.9.3,2.6,2.6,0,0,1,.3,1.1V46h1V42.4a2.6,2.6,0,0,0-.5-1.7,2,2,0,0,0-1.5-.6,1.7,1.7,0,0,0-1,.3,2.3,2.3,0,0,0-.7.7v-.9Zm6.7-1.4v1.4h-1V41h1v3.6a2.5,2.5,0,0,0,.3,1.3,1.1,1.1,0,0,0,1.1.3h.4l.4-.2-.2-.7h-.4l-.4-.2a.8.8,0,0,1-.2-.6V41h1.1v-.8H86.5V38.8Zm4.7-1.1H89.1v1h1.1Zm0,2.5H89.1V46h1.1Zm4.8,5-.9.2-.9-.2a1.1,1.1,0,0,1-.5-.9h-1a1.6,1.6,0,0,0,.6,1.3,2.4,2.4,0,0,0,1.8.5,1.9,1.9,0,0,0,1.6-.4,1.6,1.6,0,0,0,.1-2.4,4.4,4.4,0,0,0-1.6-.6c-.5-.1-.9-.2-1-.4s-.3-.2-.3-.5a.9.9,0,0,1,.3-.6,1.4,1.4,0,0,1,.9-.3,1.1,1.1,0,0,1,.8.3,1.1,1.1,0,0,1,.3.7h1a1.5,1.5,0,0,0-.5-1.3,2.8,2.8,0,0,0-3.2,0c-.1.1-.1.2-.2.2a1.4,1.4,0,0,0,.1,2.1,2.5,2.5,0,0,0,1.6.6l1,.4a.9.9,0,0,1,.3.6A.8.8,0,0,1,95,45.2Zm3-6.4v1.4h-.9V41H98v3.5a1.5,1.5,0,0,0,.4,1.3,1,1,0,0,0,1,.3h.5l.3-.2v-.6h-.4l-.5-.2c-.1-.1-.1-.3-.1-.6V41h1.1v-.8H99.2V38.8Zm6.7,6.4-.8.2-1-.2a1.3,1.3,0,0,1-.4-.9h-1a1.6,1.6,0,0,0,.6,1.3,2,2,0,0,0,1.8.5,2.3,2.3,0,0,0,1.6-.4,1.6,1.6,0,0,0,.1-2.4,4.9,4.9,0,0,0-1.7-.6c-.4-.1-.8-.2-.9-.4s-.3-.2-.3-.5a.9.9,0,0,1,.3-.6,1.1,1.1,0,0,1,.8-.3,1.4,1.4,0,0,1,.9.3,1.1,1.1,0,0,1,.3.7h1a1.9,1.9,0,0,0-.6-1.3,3,3,0,0,0-1.6-.5,2.7,2.7,0,0,0-1.5.5,1.6,1.6,0,0,0-.6,1.2c0,.5.1.9.5,1.1a2.5,2.5,0,0,0,1.6.6l1,.4a.9.9,0,0,1,.3.6A.7.7,0,0,1,104.7,45.2Z" fill="#96a8bb"/>
</svg>
