<svg xmlns="http://www.w3.org/2000/svg" width="115" height="60" viewBox="0 0 115 60">
  <path d="M13,13H28a6,6,0,0,1,0,12H13a5,5,0,0,0,0,10H26a4,4,0,0,1,0,8H14a4,4,0,0,0,0,8M20,7V53" fill="none" stroke="#96a8bb" stroke-miterlimit="10" stroke-width="4"/>
  <path d="M7,8c-3.9,0-7,2.2-7,5s3.1,5,7,5,7-2.2,7-5S10.9,8,7,8ZM4,12.5a1.1,1.1,0,0,1-1-.9.9.9,0,0,1,1-1,.9.9,0,0,1,1,1A1.1,1.1,0,0,1,4,12.5ZM57.6,25.4H53.1l1.1-.2a.5.5,0,0,0,.3-.5,1.9,1.9,0,0,0-.2-.8L52.5,20H47.7l-1.2,3a2,2,0,0,0-.3,1.1,1.1,1.1,0,0,0,.5.9,4,4,0,0,0,1.5.3H43.6a1.7,1.7,0,0,0,1-.3,1.2,1.2,0,0,0,.7-.7l.8-1.5,4.2-10h.2l4.8,10a7.2,7.2,0,0,0,1.1,1.9,1.4,1.4,0,0,0,1.2.6Zm-9.7-5.8h4.4L50,14.7ZM65,24.4h.1v.2a4.4,4.4,0,0,1-2.9,1.1,2.9,2.9,0,0,1-2-.5A4.1,4.1,0,0,1,59,23.8a4.1,4.1,0,0,1-.5-1.9,4.3,4.3,0,0,1,4.3-4.3,2.1,2.1,0,0,1,2.3,1.9v.4c0,.2,0,.3-.1.4H59.9V21a4.3,4.3,0,0,0,.8,2.9A2.6,2.6,0,0,0,63,25h1l1-.5Zm-4.3-5.8a3,3,0,0,0-.8,1.6h3.8a2.3,2.3,0,0,0-.4-1.6,1.7,1.7,0,0,0-1.2-.5A1.9,1.9,0,0,0,60.7,18.6Zm8,1.5A3.8,3.8,0,0,0,70,21l1.1.6a2.3,2.3,0,0,1,.7.7,3.6,3.6,0,0,1,.2,1,2.2,2.2,0,0,1-.7,1.7,2.7,2.7,0,0,1-2.1.7,3.3,3.3,0,0,1-1.9-.6c-.1,0-.1-.1-.1-.2V23.3c.1,0,.1,0,.1-.1h.2a3.1,3.1,0,0,0,1,1.5,1.6,1.6,0,0,0,1.4.5,1.7,1.7,0,0,0,1-.3,1.4,1.4,0,0,0,.3-.9,1.7,1.7,0,0,0-.5-1.2,5.7,5.7,0,0,0-1.3-.8l-1.1-.6c-.2-.2-.5-.4-.6-.7a1.7,1.7,0,0,1-.3-1,2.1,2.1,0,0,1,.8-1.7,3.3,3.3,0,0,1,1.9-.6,4,4,0,0,1,1.5.3h.1v1.6h-.2a.9.9,0,0,0-.4-.8l-.8-.6-.9-.2a1,1,0,0,0-1.2.7.6.6,0,0,0,0,.6A1.6,1.6,0,0,0,68.7,20.1Zm6.9,5.1a3.7,3.7,0,0,1-1.3-1.5,4.1,4.1,0,0,1-.4-1.9,4.3,4.3,0,0,1,.6-2.2,3.5,3.5,0,0,1,1.7-1.5,4.3,4.3,0,0,1,3.6-.2c.5.3.8.6.8.9s-.1.3-.2.5l-.5.2a1,1,0,0,1-.9-.7l-.6-.6-.8-.2a2.1,2.1,0,0,0-1.8.9,3.8,3.8,0,0,0-.6,2.3A5.4,5.4,0,0,0,76,24a3,3,0,0,0,2.5,1,3.9,3.9,0,0,0,2.1-.6h.1a1.9,1.9,0,0,1-1.4.9,4,4,0,0,1-1.5.3A5.4,5.4,0,0,1,75.6,25.2Zm15.7-.8h.1v.2L89,25.7h-.1c-.1,0-.2-.2-.3-.5a2.5,2.5,0,0,1-.2-1.2h0a6.1,6.1,0,0,1-1.6,1.2,3,3,0,0,1-1.6.5,2.4,2.4,0,0,1-1.6-.7,2.9,2.9,0,0,1-.5-1.8V20.1a3.6,3.6,0,0,0-.2-1.1c-.1-.2-.2-.3-.4-.3l-.7.2h0c-.1,0-.1-.1-.1-.2s-.1-.1,0-.1l2.2-1h.3v4.7c0,1.6.6,2.4,1.7,2.4l1.3-.4,1.2-.9V20.1a3.6,3.6,0,0,0-.2-1.1c0-.2-.2-.3-.4-.3l-.7.2h0c-.1,0-.1-.1-.1-.2h0l2.2-1h.2c.1,0,.1,0,.1.1v5.6a2.9,2.9,0,0,0,.2.9.5.5,0,0,0,.5.3Zm1.1,1h.8a1,1,0,0,0,.4-.5,2.2,2.2,0,0,0,.1-.8V13.5a3.6,3.6,0,0,0-.2-1,.5.5,0,0,0-.5-.3l-.9.3H92v-.2L94.6,11h.2V23.9c0,.4,0,.7.1.8s.1.4.3.4l.8.2H92.4Zm12.9-1c.1,0,.1,0,.1.1s0,.1-.1.1l-2,1h-.2c-.2,0-.3-.2-.5-.4a2.9,2.9,0,0,1-.2-.9l-1.1.6-.8.5h-.8a1.7,1.7,0,0,1-1.2-.4,1.1,1.1,0,0,1-.4-.9,1.6,1.6,0,0,1,.5-1.1,3.5,3.5,0,0,1,1.6-.8l2.2-.8V20.2c0-1.5-.5-2.2-1.3-2.2a1,1,0,0,0-1,.4,3.1,3.1,0,0,0-.5,1,1.4,1.4,0,0,1-.2.6.7.7,0,0,1-.6.3.7.7,0,0,1-.6-.6,1.1,1.1,0,0,1,.6-1l1.5-.8,1.5-.3a1.9,1.9,0,0,1,1.3.5,2.8,2.8,0,0,1,.4,1.5v3.7a1.4,1.4,0,0,0,.2,1.1.7.7,0,0,0,.6.3l.9-.3Zm-2.9-.3h0V21.8l-1.9.8-.8.5a1,1,0,0,0,.1,1.5,1.1,1.1,0,0,0,.8.3l.9-.3ZM113.5,18a4.3,4.3,0,0,1,1.1,1.2,4.5,4.5,0,0,1,.4,2,4.3,4.3,0,0,1-.7,2.5,4.4,4.4,0,0,1-1.7,1.6,4.1,4.1,0,0,1-1.9.5l-1.1-.2a1.8,1.8,0,0,1-1-.4v4.2a2.8,2.8,0,0,0,.1.9l.6.4H107c.2-.1.3-.3.4-.4a2,2,0,0,0,.1-.9V20a4.3,4.3,0,0,0-.2-1.1.7.7,0,0,0-.6-.3l-1,.3h-.1l2.2-1.1h.1a.7.7,0,0,1,.5.4,5,5,0,0,1,.2,1.2,4.7,4.7,0,0,1,3.3-1.7A2.9,2.9,0,0,1,113.5,18Zm-.5,6.4a4.1,4.1,0,0,0,.7-2.6,4.1,4.1,0,0,0-.7-2.6,2.5,2.5,0,0,0-1.9-.9,2.8,2.8,0,0,0-1.3.3,5.8,5.8,0,0,0-1.2,1v4.5a2.7,2.7,0,0,0,1.2.9,4,4,0,0,0,1.5.3A2,2,0,0,0,113,24.4ZM47.9,42.9a7.2,7.2,0,0,1-2.5-2.4,6.2,6.2,0,0,1-.8-3.3,6.7,6.7,0,0,1,.9-3.4,6.4,6.4,0,0,1,2.7-2.2,7.6,7.6,0,0,1,3.9-.8,6.8,6.8,0,0,1,2,.2,3.9,3.9,0,0,1,1.5.6h.2V32l.3,2.4H56c-.1.1-.1,0-.2,0a3.9,3.9,0,0,0-4.1-3.3,5.9,5.9,0,0,0-2.9.7,6.4,6.4,0,0,0-2,2,6.7,6.7,0,0,0-.7,3.1,7.1,7.1,0,0,0,.7,3.2,5.8,5.8,0,0,0,5.5,3.3,2.9,2.9,0,0,0,2-.5,2.2,2.2,0,0,0,.6-1.9,3.2,3.2,0,0,0-.2-1.4c-.1-.3-.2-.5-.5-.6H52.6c-.1,0-.1-.1-.1-.2h4.7v.2c-.4-.1-.6,0-.7.1a1.6,1.6,0,0,0-.3.6v2.9a.9.9,0,0,1,.1.5H56a21,21,0,0,1-4.3.5A8.2,8.2,0,0,1,47.9,42.9Zm16.5-7.1a.7.7,0,0,1,.4.6c0,.2-.1.3-.2.5h-.8l-.3-.2-.3-.3h-.4a.5.5,0,0,0-.5.3l-1,.9v4.3a2.9,2.9,0,0,0,.2.9l.5.4h1.4c0,.1,0,.1-.1.1H59c-.1,0-.1,0-.1-.1h.9c.1-.1.3-.3.3-.4a2.8,2.8,0,0,0,.1-.9v-4a3.6,3.6,0,0,0-.2-1,.5.5,0,0,0-.5-.3l-1.1.3h0c-.1,0-.1,0-.1-.1h0l2.3-1.1h.2c.1,0,.2.2.3.5a2,2,0,0,1,.2,1.1h0A8,8,0,0,1,62.6,36a1.8,1.8,0,0,1,1-.4Zm3.5,7.4a4,4,0,0,1-1.4-1.5,5.4,5.4,0,0,1-.5-2.2A3.8,3.8,0,0,1,68.3,36a4.6,4.6,0,0,1,2-.5,3.6,3.6,0,0,1,2,.6,4,4,0,0,1,1.4,1.5,4.6,4.6,0,0,1,.5,2,4.2,4.2,0,0,1-4.3,4.2A3.6,3.6,0,0,1,67.9,43.2Zm4.3-.6a3.5,3.5,0,0,0,.6-2.4,5.4,5.4,0,0,0-.4-2.2,3.3,3.3,0,0,0-1.1-1.5,2.7,2.7,0,0,0-1.7-.6,2.1,2.1,0,0,0-1.6.8,3.3,3.3,0,0,0-.6,2.2,5.9,5.9,0,0,0,.4,2.3,3.6,3.6,0,0,0,1.1,1.6,2.3,2.3,0,0,0,1.6.6A2.1,2.1,0,0,0,72.2,42.6Zm12.6-.2c.1,0,.1,0,.1.1h0l-2.4,1.1h0c-.2,0-.3-.2-.4-.5a5,5,0,0,1-.2-1.2h0a6.5,6.5,0,0,1-1.6,1.3,4.2,4.2,0,0,1-1.6.4,1.7,1.7,0,0,1-1.5-.7,2.3,2.3,0,0,1-.6-1.8V38.1a4.1,4.1,0,0,0-.1-1.1.5.5,0,0,0-.5-.3l-.7.2h0c-.1,0-.1,0-.1-.1v-.2l2.2-1h.3v4.7c0,1.6.6,2.4,1.7,2.4a2,2,0,0,0,1.3-.4l1.2-.9V38.1a4.1,4.1,0,0,0-.1-1.1.5.5,0,0,0-.5-.3l-.7.2h0c-.1,0-.1,0-.1-.1v-.2l2.3-1H83v5.6a2.9,2.9,0,0,0,.2.9.5.5,0,0,0,.5.3l1.1-.2ZM93,36a3.4,3.4,0,0,1,1.2,1.2,6.5,6.5,0,0,1,.4,2,4.3,4.3,0,0,1-.7,2.5,4.4,4.4,0,0,1-1.7,1.6,4.1,4.1,0,0,1-1.9.5l-1.1-.2a1.8,1.8,0,0,1-1-.4v4.2a2.8,2.8,0,0,0,.1.9l.6.4H85.8c-.1,0-.1,0-.1-.1s0-.1.1-.1h.8c.2-.1.3-.2.3-.4a2.8,2.8,0,0,0,.1-.9V38a3.4,3.4,0,0,0-.1-1,.4.4,0,0,0-.6-.4h0l-1,.3h-.1c-.1,0-.1,0-.1-.1h0l2.3-1.1h.1c.2,0,.3.2.5.4s.1.7.2,1.2a4.7,4.7,0,0,1,3.3-1.7A2.6,2.6,0,0,1,93,36Zm-.4,6.4a4.1,4.1,0,0,0,.7-2.6,4.1,4.1,0,0,0-.7-2.6,2.5,2.5,0,0,0-1.9-.9,2.8,2.8,0,0,0-1.3.3,5.8,5.8,0,0,0-1.2,1v4.5a2.7,2.7,0,0,0,1.2.9,4,4,0,0,0,1.5.3A2,2,0,0,0,92.6,42.4Z" fill="#96a8bb"/>
</svg>
