<svg xmlns="http://www.w3.org/2000/svg" width="750" height="600" viewBox="0 0 750 600">
  <path d="M745,220.5A79.5,79.5,0,1,1,665.5,141,79.5,79.5,0,0,1,745,220.5ZM150,0A150,150,0,1,0,300,150,150.1,150.1,0,0,0,150,0Z" fill="#f6a2b1"/>
  <path d="M438,375a75,75,0,1,1-75-75A75,75,0,0,1,438,375ZM450,0A150.1,150.1,0,0,0,600,150,150.1,150.1,0,0,0,750,0Z" fill="#4faae7"/>
  <path d="M300,300A150,150,0,0,1,0,300Zm0-150H450V0A150.1,150.1,0,0,0,300,150Z" fill="#2853b9"/>
  <path d="M600,300H506.5a56.5,56.5,0,0,0-113,0H300a150,150,0,0,1,300,0ZM0,600H150V450A150.1,150.1,0,0,0,0,600Z" fill="#fedf72"/>
</svg>
