<svg xmlns="http://www.w3.org/2000/svg" width="750" height="600" viewBox="0 0 750 600">
    <path d="M596.0265,300.0014a149.9993,149.9993,0,0,1,0,299.9986Z" fill="#2853b9"/>
    <path d="M154.0607,225.0014a75,75,0,1,0,75-75,75,75,0,0,0-75,75h0" fill="#2853b9"/>
    <path d="M298.6133,444.5554V300.0014H154.0593a144.65,144.65,0,0,0,144.554,144.554" fill="#4faae7"/>
    <path d="M154.0593,150.0014v-150H4.0607a149.9761,149.9761,0,0,0,149.9522,150h.0464" fill="#4faae7"/>
    <path d="M589.1457,231.18a80.3723,80.3723,0,1,0,80.3722-80.3722h0A80.3723,80.3723,0,0,0,589.1457,231.18" fill="#4faae7"/>
    <path d="M595.911,300.0014H503.2533a55.9911,55.9911,0,0,1-111.9822,0H298.6133a148.6482,148.6482,0,1,0,297.2963,0" fill="#fedf72"/>
    <path d="M154.0593,0V150H304.0579A149.976,149.976,0,0,0,154.1058,0h-.0465" fill="#fedf72"/>
    <path d="M434.3431,519.1583a80.8417,80.8417,0,1,0,80.8417-80.8417h0a80.8417,80.8417,0,0,0-80.8417,80.8417" fill="#f6a2b1"/>
    <path d="M4.0607,300.0014H154.0593v-150A149.9762,149.9762,0,0,0,4.0607,299.955v.0464" fill="#f6a2b1"/>
    <path d="M454.0607,0a150,150,0,1,0,150,150A150,150,0,0,0,454.0607,0Z" fill="#f6a2b1"/>
</svg>
