<svg xmlns="http://www.w3.org/2000/svg" width="540" height="450" viewBox="0 0 540 450">
  <path d="M228,375a75,75,0,1,1-75-75,75,75,0,0,1,75,75ZM240,0A150.11,150.11,0,0,0,390,150,150.11,150.11,0,0,0,540,0Z" fill="#4faae7"/>
  <path d="M390,300H296.5a56.5,56.5,0,0,0-113,0H90a150,150,0,0,1,300,0Z" fill="#fedf72"/>
  <path d="M90,150H240V0A150.11,150.11,0,0,0,90,150Zm0,150A149.46,149.46,0,0,1,0,437V300Z" fill="#2853b9"/>
  <path d="M535,220.5A79.5,79.5,0,1,1,455.5,141,79.5,79.5,0,0,1,535,220.5ZM0,12V287A150,150,0,0,0,90,149.48,150.13,150.13,0,0,0,0,12Z" fill="#f6a2b1"/>
</svg>
