<svg id="Ebene_1" data-name="Ebene 1" xmlns="http://www.w3.org/2000/svg" width="380" height="390" viewBox="0 0 380 390">
  <path d="M189,260A130,130,0,0,0,189,0Z" fill="#f6a2b1"/>
  <circle cx="93.5" cy="177.5" r="82.5" fill="#2853b9"/>
  <path d="M380,260H189A130,130,0,0,0,380,374.82Z" fill="#4faae7"/>
  <path d="M189,0h0a96.11,96.11,0,0,1-1.92,19.14A94.35,94.35,0,0,1,76,93.14a94.44,94.44,0,0,1-48.34-26A94.94,94.94,0,0,1,0,0H0L58.73.05a32,32,0,0,0,2.83,13.18A33.68,33.68,0,0,0,69.2,24a35.75,35.75,0,0,0,11.4,7.25,37.77,37.77,0,0,0,27.82,0A35.86,35.86,0,0,0,119.82,24a33.55,33.55,0,0,0,7.66-10.75A32.13,32.13,0,0,0,130.26.08H140C172.46.08,188.94.06,189,0ZM380,120h0a70,70,0,0,0,0,140h0Z" fill="#fedf72"/>
</svg>
