<svg width="18" height="18" viewBox="0 0 18 18" fill="none" xmlns="http://www.w3.org/2000/svg">
<path d="M4.14765 3.9054C6.22635 3.80179 7.84316 3.75 8.99805 3.75C10.153 3.75 11.7704 3.80183 13.8502 3.90544C14.976 3.96154 15.8865 4.84196 15.9804 5.9652C16.0755 7.10295 16.123 8.10503 16.123 8.97143C16.123 9.84848 16.0743 10.8645 15.9769 12.0196C15.8833 13.1289 14.9925 14.003 13.8816 14.0756C12.1036 14.1919 10.4757 14.25 8.99805 14.25C7.52055 14.25 5.89327 14.1919 4.11622 14.0757C3.00573 14.003 2.11517 13.1295 2.02111 12.0206C1.9224 10.8569 1.87305 9.84053 1.87305 8.97143C1.87305 8.11279 1.92122 7.11038 2.01757 5.96415H2.01758C2.11196 4.84136 3.02231 3.9615 4.14765 3.9054Z" stroke="#5D47EE" stroke-linejoin="round"/>
<path d="M7.875 7.35465V10.6535C7.875 10.831 8.01892 10.9749 8.19641 10.9749C8.25945 10.9749 8.3211 10.9564 8.37367 10.9216L10.8478 9.28643C10.9959 9.18855 11.0366 8.98913 10.9387 8.84104C10.9153 8.80564 10.8851 8.77519 10.8499 8.75153L8.37577 7.08792C8.22847 6.98888 8.02875 7.02799 7.92967 7.17533C7.89405 7.22835 7.875 7.29079 7.875 7.35465Z" stroke="#5D47EE" stroke-linejoin="round"/>
</svg>
