<svg width="48" height="32" viewBox="0 0 48 32" fill="none" xmlns="http://www.w3.org/2000/svg">
<path d="M0 5.33333C0 2.38782 2.38781 0 5.33333 0H42.6667C45.6122 0 48 2.38781 48 5.33333V26.6667C48 29.6122 45.6122 32 42.6667 32H5.33333C2.38781 32 0 29.6122 0 26.6667V5.33333Z" fill="white"/>
<path d="M24.2444 16.759C27.5236 16.7202 29.9978 15.4152 31.0407 12.3785C32.0886 9.42907 31.8218 6.70278 28.9062 5.57242C27.0192 4.83993 26.3982 5.01942 19.01 5.01942C18.5298 5.01942 18.1126 5.37356 18.0398 5.83924L15.1971 23.8804C15.1486 24.2345 15.4154 24.5547 15.784 24.5547H19.4029C19.5 24.5547 19.5339 24.5208 19.5485 24.4335C19.7473 23.2061 20.4217 18.8644 20.5914 17.933C20.8729 16.4194 22.139 16.793 24.2444 16.759Z" fill="#002D8A"/>
<path d="M32.5091 10.9516C32.4218 10.8885 32.3879 10.8642 32.3636 11.0145C32.2666 11.5677 32.1162 12.1061 31.9367 12.6446C30.0011 18.1651 24.6358 17.6849 22.0162 17.6849C21.7202 17.6849 21.5262 17.845 21.4874 18.1408C20.3911 24.9517 20.1727 26.3731 20.1727 26.3731C20.1242 26.7175 20.3425 26.9989 20.687 26.9989H23.7674C24.1846 26.9989 24.529 26.6932 24.6115 26.2761C24.6454 26.0141 24.5582 26.572 25.3101 21.8471C25.5332 20.7799 26.0037 20.8915 26.7314 20.8915C30.1757 20.8915 32.8631 19.4943 33.6636 15.4437C33.979 13.7555 33.8869 11.98 32.5091 10.9516Z" fill="#019BE1"/>
</svg>
