<svg width="48" height="32" viewBox="0 0 48 32" fill="none" xmlns="http://www.w3.org/2000/svg">
<path d="M0 5.33333C0 2.38782 2.38781 0 5.33333 0H42.6667C45.6122 0 48 2.38781 48 5.33333V26.6667C48 29.6122 45.6122 32 42.6667 32H5.33333C2.38781 32 0 29.6122 0 26.6667V5.33333Z" fill="white"/>
<path fill-rule="evenodd" clip-rule="evenodd" d="M30.1902 16.9148H30.2057H30.2355H30.2654H30.2953H30.3252H30.3551H30.385H30.4149H30.4448H30.4747H30.5046H30.5345H30.5644H30.5943H30.6242H30.6541H30.6839H30.7138H30.7437H30.7736H30.8035H30.8334H30.8633H30.8932H30.9231H30.953H30.9829H31.0128H31.0427H31.0726H31.1024H31.1324H31.1622H31.1921H31.222H31.2519H31.2818H31.3117H31.3416H31.3715H31.4014H31.4313H31.4612H31.4911H31.521H31.5508H31.5808H31.6106H31.6405H31.6704H31.7003H31.7302H31.7601H31.79H31.8199H31.8498H31.8797H31.9096H31.9395H31.9694H31.9942L31.9993 16.9149C32.0085 16.9151 32.0185 16.9155 32.0291 16.9161C32.0387 16.9166 32.0488 16.9173 32.059 16.918C32.0689 16.9188 32.0789 16.9196 32.0889 16.9205C32.099 16.9214 32.109 16.9225 32.1188 16.9235C32.1291 16.9247 32.1392 16.9259 32.1487 16.9272C32.1594 16.9286 32.1695 16.9301 32.1786 16.9317C32.1852 16.9328 32.1913 16.9339 32.1967 16.9351L32.2085 16.9378C32.2185 16.9401 32.2285 16.9426 32.2384 16.9454C32.2484 16.9481 32.2584 16.951 32.2683 16.9542C32.2783 16.9574 32.2883 16.9608 32.2982 16.9644C32.3082 16.968 32.3182 16.9719 32.3281 16.9759C32.3381 16.98 32.3481 16.9843 32.358 16.9889C32.368 16.9935 32.378 16.9982 32.3879 17.0033C32.3979 17.0084 32.4079 17.0137 32.4177 17.0193C32.4278 17.0249 32.4378 17.0309 32.4477 17.037C32.4577 17.0433 32.4677 17.0497 32.4775 17.0565C32.4877 17.0634 32.4976 17.0705 32.5074 17.0779C32.5176 17.0856 32.5275 17.0935 32.5373 17.1016C32.5475 17.1101 32.5575 17.1188 32.5672 17.1278C32.5774 17.1372 32.5874 17.1467 32.5971 17.1566C32.6074 17.1671 32.6173 17.1778 32.627 17.1888C32.6373 17.2006 32.6473 17.2126 32.6569 17.2249C32.6673 17.2382 32.6772 17.2519 32.6868 17.2659C32.6973 17.2812 32.7073 17.297 32.7167 17.3132C32.7274 17.3314 32.7373 17.3502 32.7466 17.3694C32.7576 17.3922 32.7676 17.4158 32.7765 17.4399C32.7885 17.4725 32.7985 17.5062 32.8064 17.5409C32.8201 17.6012 32.8274 17.6647 32.8274 17.731C32.8274 17.7977 32.8201 17.8614 32.8064 17.9219C32.7985 17.9568 32.7885 17.9906 32.7765 18.0232C32.7676 18.0474 32.7576 18.071 32.7466 18.0939C32.7373 18.1131 32.7274 18.1319 32.7167 18.1502C32.7073 18.1664 32.6973 18.1821 32.6868 18.1975C32.6772 18.2115 32.6673 18.2251 32.6569 18.2384C32.6473 18.2508 32.6373 18.2628 32.627 18.2745C32.6173 18.2855 32.6074 18.2963 32.5971 18.3067C32.5874 18.3166 32.5774 18.3262 32.5672 18.3355C32.5575 18.3445 32.5475 18.3531 32.5373 18.3616C32.5275 18.3697 32.5176 18.3776 32.5074 18.3852C32.4976 18.3926 32.4877 18.3997 32.4775 18.4066C32.4677 18.4133 32.4577 18.4198 32.4477 18.426C32.4378 18.4321 32.4278 18.438 32.4177 18.4436C32.4079 18.4491 32.3979 18.4544 32.3879 18.4595C32.378 18.4645 32.368 18.4693 32.358 18.4739C32.3481 18.4783 32.3381 18.4826 32.3281 18.4867C32.3182 18.4907 32.3082 18.4945 32.2982 18.4981C32.2883 18.5016 32.2783 18.505 32.2683 18.5081C32.2584 18.5112 32.2484 18.5141 32.2384 18.5169C32.2285 18.5195 32.2185 18.522 32.2085 18.5243L32.1967 18.527C32.1913 18.5282 32.1852 18.5294 32.1786 18.5306C32.1695 18.5322 32.1594 18.5337 32.1487 18.5352C32.1392 18.5365 32.1291 18.5377 32.1188 18.5389C32.109 18.54 32.099 18.541 32.0889 18.5418C32.0789 18.5428 32.0689 18.5436 32.059 18.5443C32.0488 18.545 32.0387 18.5457 32.0291 18.5462C32.0185 18.5467 32.0085 18.5471 31.9993 18.5473L31.9832 18.5475H31.9694H31.9395H31.9096H31.8797H31.8498H31.8199H31.79H31.7601H31.7302H31.7003H31.6704H31.6405H31.6106H31.5808H31.5508H31.521H31.4911H31.4612H31.4313H31.4014H31.3715H31.3416H31.3117H31.2818H31.2519H31.222H31.1921H31.1622H31.1324H31.1024H31.0726H31.0427H31.0128H30.9829H30.953H30.9231H30.8932H30.8633H30.8334H30.8035H30.7736H30.7437H30.7138H30.6839H30.6541H30.6242H30.5943H30.5644H30.5345H30.5046H30.4747H30.4448H30.4149H30.385H30.3551H30.3252H30.2953H30.2654H30.2355H30.2057H30.1902V16.9148ZM32.5972 15.0668C32.6092 15.1216 32.6157 15.1797 32.6157 15.2408C32.6157 15.3018 32.6092 15.3598 32.5972 15.4146C32.5895 15.4498 32.5795 15.4836 32.5673 15.516C32.5585 15.5397 32.5485 15.5626 32.5374 15.5847C32.5282 15.6033 32.5182 15.6213 32.5076 15.6387C32.4981 15.6541 32.4881 15.669 32.4776 15.6835C32.4681 15.6967 32.4581 15.7096 32.4478 15.722C32.4381 15.7336 32.4282 15.7448 32.4179 15.7558C32.4082 15.766 32.3982 15.7759 32.388 15.7856C32.3782 15.7947 32.3683 15.8036 32.3581 15.8122C32.3483 15.8204 32.3384 15.8284 32.3282 15.8361C32.3184 15.8435 32.3084 15.8507 32.2983 15.8576C32.2885 15.8643 32.2785 15.8707 32.2684 15.8769C32.2586 15.883 32.2486 15.8888 32.2385 15.8944C32.2287 15.8998 32.2187 15.9051 32.2086 15.9101C32.1988 15.915 32.1888 15.9196 32.1787 15.9241C32.1689 15.9285 32.1589 15.9327 32.1488 15.9366C32.1389 15.9405 32.129 15.9442 32.119 15.9477C32.1091 15.9511 32.0991 15.9544 32.0891 15.9574C32.0792 15.9604 32.0692 15.9632 32.0592 15.9658C32.0493 15.9684 32.0393 15.9708 32.0293 15.9729C32.0194 15.9751 32.0094 15.9771 31.9994 15.9788L31.9921 15.9801C31.9863 15.9812 31.9786 15.9823 31.9695 15.9834C31.9607 15.9846 31.9505 15.9857 31.9396 15.9868C31.9301 15.9878 31.9201 15.9887 31.9097 15.9896C31.8999 15.9904 31.8899 15.9911 31.8798 15.9918C31.8698 15.9924 31.8597 15.9929 31.8499 15.9933C31.8396 15.9938 31.8295 15.994 31.82 15.9941L31.8153 15.9941H31.7901H31.7602H31.7303H31.7005H31.6706H31.6407H31.6108H31.5809H31.551H31.5211H31.4912H31.4613H31.4314H31.4015H31.3716H31.3417H31.3119H31.282H31.2521H31.2222H31.1923H31.1624H31.1325H31.1026H31.0727H31.0428H31.0129H30.9831H30.9531H30.9233H30.8934H30.8635H30.8336H30.8037H30.7738H30.7439H30.714H30.6841H30.6542H30.6243H30.5945H30.5645H30.5347H30.5048H30.4749H30.445H30.4151H30.3852H30.3553H30.3254H30.2955H30.2656H30.2357H30.2059H30.1902V14.4874H30.2059H30.2357H30.2656H30.2955H30.3254H30.3553H30.3852H30.4151H30.445H30.4749H30.5048H30.5347H30.5645H30.5945H30.6243H30.6542H30.6841H30.714H30.7439H30.7738H30.8037H30.8336H30.8635H30.8934H30.9233H30.9531H30.9831H31.0129H31.0428H31.0727H31.1026H31.1325H31.1624H31.1923H31.2222H31.2521H31.282H31.3119H31.3417H31.3716H31.4015H31.4314H31.4613H31.4912H31.5211H31.551H31.5809H31.6108H31.6407H31.6706H31.7005H31.7303H31.7602H31.7901H31.82H31.8326L31.8499 14.488C31.8597 14.4884 31.8698 14.489 31.8798 14.4896C31.8899 14.4902 31.8999 14.491 31.9097 14.4918C31.9201 14.4926 31.9301 14.4936 31.9396 14.4945C31.9505 14.4955 31.9607 14.4966 31.9695 14.4976C31.9786 14.4987 31.9863 14.4997 31.9921 14.5005L31.9994 14.5018C32.0094 14.5036 32.0194 14.5056 32.0293 14.5078C32.0393 14.51 32.0493 14.5124 32.0592 14.515C32.0692 14.5176 32.0792 14.5204 32.0891 14.5235C32.0991 14.5265 32.1091 14.5298 32.119 14.5332C32.129 14.5368 32.1389 14.5405 32.1488 14.5444C32.1589 14.5484 32.1689 14.5526 32.1787 14.557C32.1888 14.5615 32.1988 14.5662 32.2086 14.5711C32.2187 14.5761 32.2287 14.5813 32.2385 14.5868C32.2486 14.5923 32.2586 14.5982 32.2684 14.6042C32.2785 14.6104 32.2885 14.6169 32.2983 14.6236C32.3084 14.6305 32.3184 14.6377 32.3282 14.6452C32.3384 14.6529 32.3483 14.6608 32.3581 14.669C32.3683 14.6776 32.3782 14.6865 32.388 14.6957C32.3982 14.7053 32.4082 14.7152 32.4179 14.7255C32.4282 14.7364 32.4381 14.7477 32.4478 14.7592C32.4581 14.7717 32.4681 14.7845 32.4776 14.7978C32.4881 14.8123 32.4981 14.8272 32.5076 14.8426C32.5182 14.86 32.5282 14.878 32.5374 14.8966C32.5485 14.9187 32.5585 14.9416 32.5673 14.9653C32.5795 14.9977 32.5895 15.0316 32.5972 15.0668C32.5895 15.0316 32.5972 15.0668 32.5972 15.0668ZM36.3044 7.25391H36.3167L36.3166 22.7283C36.3166 22.8208 36.3124 22.9122 36.3044 23.0026C36.2974 23.0822 36.2874 23.1609 36.2745 23.2386C36.2658 23.2908 36.2559 23.3425 36.2446 23.3938C36.2355 23.4355 36.2255 23.477 36.2147 23.5181C36.2054 23.5535 36.1954 23.5887 36.1848 23.6236C36.1753 23.6552 36.1654 23.6867 36.1549 23.7178C36.1454 23.7461 36.1353 23.7741 36.125 23.802C36.1154 23.828 36.1054 23.8538 36.0951 23.8794C36.0854 23.9035 36.0755 23.9274 36.0652 23.9512C36.0555 23.9738 36.0455 23.9962 36.0353 24.0184C36.0256 24.0396 36.0156 24.0607 36.0054 24.0816C35.9956 24.1017 35.9857 24.1217 35.9755 24.1415C35.9658 24.1605 35.9558 24.1794 35.9456 24.1981C35.9359 24.2162 35.9258 24.234 35.9157 24.2519C35.9059 24.2691 35.896 24.2862 35.8858 24.3033C35.876 24.3199 35.866 24.3364 35.8559 24.3527C35.8461 24.3687 35.8362 24.3846 35.826 24.4004C35.8162 24.4156 35.8062 24.4308 35.7961 24.4458C35.7863 24.4605 35.7763 24.475 35.7662 24.4895C35.7564 24.5037 35.7464 24.5179 35.7363 24.532C35.7265 24.5457 35.7165 24.5594 35.7064 24.5729C35.6966 24.5862 35.6866 24.5992 35.6765 24.6123C35.6666 24.6251 35.6567 24.6379 35.6466 24.6506C35.6368 24.6631 35.6268 24.6754 35.6167 24.6877C35.6069 24.6997 35.5969 24.7116 35.5868 24.7235C35.5769 24.7352 35.567 24.747 35.5569 24.7586C35.5471 24.7699 35.5371 24.7811 35.5271 24.7922C35.5172 24.8033 35.5072 24.8142 35.4971 24.8251C35.4872 24.8359 35.4773 24.8466 35.4673 24.8572C35.4574 24.8676 35.4474 24.8778 35.4374 24.8881C35.4274 24.8983 35.4175 24.9085 35.4074 24.9186C35.3976 24.9284 35.3875 24.9381 35.3776 24.9478C35.3676 24.9574 35.3577 24.967 35.3476 24.9766C35.3378 24.9859 35.3278 24.9951 35.3178 25.0043C35.3078 25.0135 35.2979 25.0226 35.2879 25.0315C35.2779 25.0404 35.268 25.0493 35.258 25.058C35.2481 25.0667 35.2381 25.0753 35.2281 25.0838C35.2181 25.0923 35.2082 25.1007 35.1982 25.1091C35.1883 25.1173 35.1783 25.1254 35.1683 25.1335C35.1583 25.1415 35.1484 25.1496 35.1384 25.1575C35.1285 25.1653 35.1185 25.173 35.1085 25.1807C35.0985 25.1883 35.0886 25.196 35.0786 25.2036C35.0687 25.211 35.0587 25.2183 35.0487 25.2256C35.0387 25.2329 35.0288 25.2402 35.0188 25.2474C35.0089 25.2545 34.9989 25.2614 34.9889 25.2683C34.9789 25.2753 34.969 25.2822 34.959 25.2891C34.9491 25.2958 34.9391 25.3023 34.9291 25.309C34.9191 25.3156 34.9092 25.3222 34.8992 25.3287C34.8893 25.3351 34.8793 25.3414 34.8693 25.3477C34.8594 25.3539 34.8494 25.3602 34.8394 25.3663C34.8295 25.3724 34.8195 25.3784 34.8095 25.3844L34.7796 25.4021C34.7697 25.4079 34.7597 25.4137 34.7497 25.4194C34.7398 25.425 34.7298 25.4305 34.7198 25.4361C34.7098 25.4416 34.6999 25.4472 34.6899 25.4526C34.68 25.4579 34.67 25.4631 34.66 25.4684C34.65 25.4736 34.6401 25.479 34.6301 25.4841C34.6202 25.4892 34.6102 25.494 34.6002 25.499C34.5902 25.504 34.5803 25.509 34.5703 25.5138C34.5604 25.5186 34.5504 25.5233 34.5404 25.528L34.5105 25.542L34.4806 25.5556C34.4707 25.56 34.4607 25.5643 34.4507 25.5686C34.4407 25.5729 34.4308 25.5774 34.4208 25.5816C34.4109 25.5858 34.4009 25.5897 34.3909 25.5938C34.381 25.5978 34.371 25.602 34.361 25.606C34.3511 25.6099 34.3411 25.6137 34.3311 25.6175C34.3212 25.6213 34.3112 25.6251 34.3012 25.6288L34.2713 25.6399C34.2614 25.6434 34.2514 25.6469 34.2414 25.6504C34.2315 25.6539 34.2216 25.6575 34.2115 25.6609C34.2016 25.6642 34.1916 25.6673 34.1816 25.6706L34.1517 25.6803C34.1418 25.6834 34.1318 25.6864 34.1218 25.6895L34.0919 25.6984C34.082 25.7013 34.072 25.7043 34.062 25.7071C34.0521 25.7099 34.0421 25.7125 34.0321 25.7152C34.0222 25.7179 34.0122 25.7207 34.0022 25.7233L33.9724 25.7308L33.9424 25.7381L33.9126 25.7452C33.9026 25.7475 33.8926 25.7495 33.8826 25.7517C33.8727 25.7539 33.8627 25.7561 33.8527 25.7582L33.8229 25.7642L33.7929 25.7699C33.783 25.7718 33.773 25.7738 33.7631 25.7755C33.7531 25.7773 33.7431 25.7788 33.7331 25.7805L33.7033 25.7854L33.6734 25.7899L33.6435 25.7941C33.6335 25.7955 33.6236 25.797 33.6136 25.7983C33.6036 25.7995 33.5936 25.8005 33.5837 25.8017C33.5737 25.8029 33.5638 25.8041 33.5538 25.8051C33.5438 25.8062 33.5339 25.8073 33.5239 25.8082C33.5139 25.8092 33.5039 25.81 33.494 25.8109C33.484 25.8118 33.474 25.8127 33.4641 25.8135C33.4541 25.8143 33.4441 25.8149 33.4342 25.8156L33.4043 25.8175C33.3943 25.8181 33.3844 25.8188 33.3744 25.8193C33.3644 25.8198 33.3544 25.82 33.3445 25.8204L33.3146 25.8216L33.2847 25.8223C33.2747 25.8226 33.2648 25.8226 33.2548 25.8227L33.2249 25.8231L33.2187 25.8232H33.195H33.1651H33.1352H33.1053H33.0754H33.0455H33.0156H32.9857H32.9558H32.9259H32.896H32.8661H32.8362H32.8063H32.7764H32.7465H32.7166H32.6867H32.6568H32.6269H32.597H32.5671H32.5372H32.5073H32.4774H32.4475H32.4177H32.3877H32.3578H32.3279H32.298H32.2682H32.2382H32.2084H32.1784H32.1486H32.1187H32.0888H32.0589H32.029H31.9991H31.9692H31.9393H31.9094H31.8795H31.8496H31.8197H31.7898H31.7599H31.73H31.7001H31.6702H31.6403H31.6104H31.5805H31.5506H31.5207H31.4908H31.4609H31.431H31.4011H31.3712H31.3413H31.3114H31.2815H31.2516H31.2217H31.1918H31.1619H31.132H31.1021H31.0722H31.0423H31.0124H30.9825H30.9526H30.9227H30.8928H30.8629H30.833H30.8031H30.7732H30.7433H30.7134H30.6835H30.6537H30.6237H30.5939H30.564H30.5341H30.5042H30.4743H30.4444H30.4145H30.3846H30.3547H30.3248H30.2949H30.265H30.2351H30.2052H30.1753H30.1454H30.1155H30.0856H30.0557H30.0258H29.9959H29.966H29.9361H29.9062H29.8763H29.8464H29.8165H29.7866H29.7567H29.7268H29.6969H29.667H29.6371H29.6072H29.5773H29.5474H29.5175H29.4876H29.4577H29.4278H29.3979H29.368H29.3381H29.3082H29.2783H29.2484H29.2185H29.1886H29.1587H29.1288H29.099H29.069H29.0392H29.0092H28.9794H28.9495H28.9196H28.8897H28.8598H28.8299H28.8H28.7701H28.7402H28.6757V19.5137H28.7402H28.7701H28.8H28.8299H28.8598H28.8897H28.9196H28.9495H28.9794H29.0092H29.0392H29.069H29.099H29.1288H29.1587H29.1886H29.2185H29.2484H29.2783H29.3082H29.3381H29.368H29.3979H29.4278H29.4577H29.4876H29.5175H29.5474H29.5773H29.6072H29.6371H29.667H29.6969H29.7268H29.7567H29.7866H29.8165H29.8464H29.8763H29.9062H29.9361H29.966H29.9959H30.0258H30.0557H30.0856H30.1155H30.1454H30.1753H30.2052H30.2351H30.265H30.2949H30.3248H30.3547H30.3846H30.4145H30.4444H30.4743H30.5042H30.5341H30.564H30.5939H30.6237H30.6537H30.6835H30.7134H30.7433H30.7732H30.8031H30.833H30.8629H30.8928H30.9227H30.9526H30.9825H31.0124H31.0423H31.0722H31.1021H31.132H31.1619H31.1918H31.2217H31.2516H31.2815H31.3114H31.3413H31.3712H31.4011H31.431H31.4609H31.4908H31.5207H31.5506H31.5805H31.6104H31.6403H31.6702H31.7001H31.73H31.7599H31.7898H31.8197H31.8496H31.8795H31.9094H31.9393H31.9692H31.9991H32.029H32.0589H32.0888H32.1187H32.1486H32.1784H32.2084H32.2382H32.2682H32.298H32.3279H32.3578H32.3877H32.4177H32.4475H32.4774H32.5073H32.5372H32.5671H32.597H32.6269H32.6568H32.6867H32.7166H32.7465H32.7764H32.8063H32.8362H32.8661H32.896H32.9259H32.9558H32.9857H33.0156H33.0455H33.0754H33.1053H33.1352H33.1651H33.195H33.2249H33.2548H33.2847H33.3146H33.3445H33.3744H33.4043H33.4342H33.4641H33.4799L33.494 19.5136L33.5239 19.5134L33.5538 19.5127C33.5638 19.5125 33.5737 19.5123 33.5837 19.512C33.5937 19.5117 33.6036 19.5112 33.6136 19.5107L33.6435 19.5093L33.6734 19.5075L33.7033 19.5055L33.7331 19.5032L33.7631 19.5004C33.773 19.4995 33.783 19.4986 33.7929 19.4975C33.803 19.4965 33.8129 19.4953 33.8229 19.4941L33.8527 19.4905C33.8627 19.4892 33.8727 19.488 33.8826 19.4866C33.8927 19.4852 33.9026 19.4836 33.9126 19.4822C33.9225 19.4807 33.9325 19.4792 33.9424 19.4776L33.9724 19.4725L34.0022 19.4672C34.0122 19.4653 34.0222 19.4635 34.0321 19.4615C34.0422 19.4596 34.0521 19.4574 34.062 19.4553L34.0919 19.4489C34.1019 19.4467 34.1119 19.4444 34.1218 19.4421C34.1319 19.4398 34.1418 19.4373 34.1517 19.4348C34.1617 19.4323 34.1717 19.4298 34.1816 19.4272C34.1916 19.4246 34.2016 19.4219 34.2115 19.4192C34.2215 19.4164 34.2315 19.4135 34.2414 19.4106C34.2514 19.4077 34.2614 19.4048 34.2713 19.4018L34.3012 19.3924C34.3113 19.3892 34.3212 19.3859 34.3311 19.3826C34.3411 19.3792 34.3511 19.3758 34.361 19.3723C34.371 19.3688 34.381 19.3653 34.3909 19.3617C34.401 19.358 34.4109 19.3541 34.4208 19.3503C34.4308 19.3464 34.4408 19.3425 34.4507 19.3385C34.4607 19.3345 34.4707 19.3305 34.4806 19.3263C34.4907 19.3221 34.5006 19.3178 34.5105 19.3135C34.5205 19.3091 34.5305 19.3045 34.5404 19.3C34.5504 19.2954 34.5604 19.2908 34.5703 19.286C34.5803 19.2812 34.5903 19.2764 34.6002 19.2715C34.6103 19.2665 34.6202 19.2614 34.6301 19.2562C34.6401 19.251 34.6501 19.2456 34.66 19.2402C34.6701 19.2347 34.68 19.2292 34.6899 19.2236C34.6999 19.2179 34.7099 19.2121 34.7198 19.2063C34.7298 19.2003 34.7398 19.1943 34.7497 19.1882C34.7598 19.1819 34.7697 19.1756 34.7796 19.1692C34.7897 19.1627 34.7996 19.156 34.8095 19.1493C34.8196 19.1425 34.8295 19.1356 34.8394 19.1286C34.8495 19.1214 34.8594 19.1142 34.8693 19.1069C34.8794 19.0994 34.8893 19.0918 34.8992 19.0841C34.9093 19.0763 34.9192 19.0683 34.9291 19.0603C34.9392 19.052 34.9491 19.0437 34.959 19.0353C34.9691 19.0266 34.979 19.0178 34.9889 19.0089C34.999 18.9997 35.009 18.9905 35.0188 18.9811C35.0289 18.9714 35.0389 18.9617 35.0487 18.9518C35.0588 18.9415 35.0688 18.9312 35.0786 18.9207C35.0887 18.9098 35.0987 18.8988 35.1085 18.8877C35.1186 18.8761 35.1286 18.8644 35.1384 18.8526C35.1486 18.8402 35.1585 18.8277 35.1683 18.8151C35.1784 18.8018 35.1885 18.7884 35.1982 18.7748C35.2085 18.7604 35.2183 18.7457 35.2281 18.7309C35.2383 18.7152 35.2483 18.6993 35.258 18.6832C35.2683 18.6659 35.2783 18.6484 35.2879 18.6306C35.2983 18.6113 35.3083 18.5917 35.3178 18.5718C35.3283 18.5496 35.3383 18.527 35.3476 18.5042C35.3584 18.4779 35.3684 18.4513 35.3776 18.4242C35.3888 18.3909 35.3987 18.3568 35.4074 18.3222C35.4202 18.2716 35.4302 18.2196 35.4374 18.1664C35.446 18.1018 35.4506 18.0354 35.4506 17.9672C35.4506 17.9008 35.4461 17.8362 35.4374 17.7736C35.4302 17.7221 35.4202 17.6719 35.4074 17.6231C35.3987 17.5898 35.3888 17.5571 35.3776 17.5251C35.3684 17.4988 35.3584 17.4729 35.3476 17.4475C35.3383 17.4255 35.3283 17.4038 35.3178 17.3825C35.3083 17.3632 35.2983 17.3443 35.2879 17.3256C35.2783 17.3085 35.2683 17.2915 35.258 17.2748C35.2484 17.2592 35.2383 17.2439 35.2281 17.2288C35.2184 17.2146 35.2084 17.2004 35.1982 17.1865C35.1885 17.1734 35.1785 17.1605 35.1683 17.1477C35.1585 17.1355 35.1486 17.1234 35.1384 17.1115C35.1286 17.1001 35.1187 17.0887 35.1085 17.0776C35.0987 17.0668 35.0887 17.0562 35.0786 17.0457C35.0688 17.0356 35.0588 17.0257 35.0487 17.0158C35.0389 17.0063 35.0289 16.9968 35.0188 16.9875C35.009 16.9785 34.999 16.9696 34.9889 16.9608C34.979 16.9522 34.9691 16.9437 34.959 16.9353C34.9491 16.9271 34.9392 16.9191 34.9291 16.9111C34.9192 16.9033 34.9093 16.8956 34.8992 16.888C34.8893 16.8806 34.8794 16.8733 34.8693 16.8661C34.8594 16.859 34.8494 16.852 34.8394 16.8451C34.8295 16.8383 34.8196 16.8316 34.8095 16.825C34.7996 16.8185 34.7896 16.8121 34.7796 16.8058C34.7697 16.7996 34.7598 16.7934 34.7497 16.7874C34.7398 16.7815 34.7299 16.7756 34.7198 16.7699C34.7099 16.7642 34.6999 16.7586 34.6899 16.7531C34.68 16.7476 34.6701 16.7423 34.66 16.737C34.6501 16.7318 34.6401 16.7266 34.6301 16.7215C34.6202 16.7165 34.6102 16.7116 34.6002 16.7067C34.5903 16.7019 34.5804 16.6971 34.5703 16.6924C34.5604 16.6878 34.5504 16.6833 34.5404 16.6789C34.5305 16.6745 34.5205 16.6701 34.5105 16.6659C34.5006 16.6616 34.4906 16.6575 34.4806 16.6534C34.4707 16.6493 34.4608 16.6452 34.4507 16.6413C34.4408 16.6374 34.4308 16.6336 34.4208 16.6298C34.4109 16.6261 34.4009 16.6225 34.3909 16.6189C34.381 16.6153 34.371 16.6119 34.361 16.6084C34.3511 16.605 34.3412 16.6016 34.3311 16.5983C34.3212 16.595 34.3112 16.5918 34.3012 16.5887C34.2913 16.5855 34.2813 16.5825 34.2713 16.5795L34.2414 16.5708C34.2315 16.5679 34.2215 16.5651 34.2115 16.5623C34.2016 16.5596 34.1916 16.557 34.1816 16.5545C34.1717 16.5519 34.1617 16.5494 34.1517 16.5469C34.1418 16.5445 34.1318 16.5421 34.1218 16.5397C34.1119 16.5374 34.1019 16.5352 34.0919 16.533C34.082 16.5307 34.072 16.5286 34.062 16.5266C34.0521 16.5245 34.0422 16.5224 34.0321 16.5204L34.0022 16.5147L33.9724 16.5094C33.9624 16.5077 33.9525 16.5059 33.9424 16.5043L33.9126 16.4996C33.9026 16.4981 33.8926 16.4967 33.8826 16.4953L33.8527 16.4912L33.8229 16.4875L33.7929 16.4841L33.7631 16.481L33.7331 16.4782L33.7033 16.4757L33.6757 16.4736L33.6756 16.4378L33.7033 16.4335L33.7331 16.4285C33.7432 16.4268 33.7531 16.4251 33.7631 16.4233L33.7929 16.4176C33.803 16.4156 33.8129 16.4135 33.8229 16.4114L33.8527 16.4049C33.8627 16.4027 33.8728 16.4004 33.8826 16.398C33.8927 16.3956 33.9026 16.3931 33.9126 16.3905C33.9226 16.388 33.9325 16.3853 33.9424 16.3826C33.9525 16.3799 33.9624 16.3771 33.9724 16.3743C33.9824 16.3714 33.9923 16.3685 34.0022 16.3655C34.0122 16.3625 34.0223 16.3594 34.0321 16.3562C34.0422 16.353 34.0521 16.3497 34.062 16.3463C34.0721 16.343 34.082 16.3395 34.0919 16.3359C34.102 16.3324 34.1119 16.3288 34.1218 16.3251C34.1319 16.3213 34.1418 16.3175 34.1517 16.3136C34.1618 16.3097 34.1717 16.3056 34.1816 16.3015C34.1917 16.2974 34.2016 16.2932 34.2115 16.2889C34.2216 16.2845 34.2315 16.28 34.2414 16.2755C34.2515 16.2709 34.2614 16.2662 34.2713 16.2615C34.2814 16.2566 34.2913 16.2517 34.3012 16.2467C34.3113 16.2416 34.3213 16.2365 34.3311 16.2313C34.3412 16.2259 34.3512 16.2205 34.361 16.2151C34.3711 16.2095 34.381 16.2038 34.3909 16.198C34.401 16.1922 34.411 16.1862 34.4208 16.1802C34.4309 16.174 34.4408 16.1678 34.4507 16.1614C34.4608 16.155 34.4708 16.1484 34.4806 16.1417C34.4907 16.1349 34.5007 16.128 34.5105 16.121C34.5206 16.1138 34.5306 16.1065 34.5404 16.0992C34.5505 16.0916 34.5605 16.084 34.5703 16.0763C34.5804 16.0683 34.5904 16.0603 34.6002 16.0521C34.6103 16.0437 34.6203 16.0351 34.6301 16.0265C34.6402 16.0176 34.6502 16.0085 34.66 15.9994C34.6701 15.99 34.6801 15.9804 34.6899 15.9708C34.7 15.9608 34.71 15.9507 34.7198 15.9404C34.73 15.9297 34.7399 15.9189 34.7497 15.908C34.7599 15.8966 34.7698 15.8851 34.7796 15.8734C34.7898 15.8612 34.7998 15.8488 34.8095 15.8363C34.8197 15.8231 34.8297 15.8097 34.8394 15.7962C34.8497 15.7819 34.8596 15.7674 34.8693 15.7527C34.8796 15.7371 34.8896 15.7213 34.8992 15.7053C34.9096 15.6879 34.9195 15.6703 34.9291 15.6526C34.9396 15.6331 34.9495 15.6133 34.959 15.5933C34.9696 15.5708 34.9796 15.548 34.9889 15.525C34.9997 15.4982 35.0097 15.471 35.0188 15.4434C35.0302 15.4088 35.0402 15.3736 35.0487 15.3379C35.0625 15.2801 35.0724 15.221 35.0786 15.161C35.0834 15.1136 35.086 15.0656 35.086 15.017C35.086 14.9658 35.0834 14.9159 35.0786 14.8672C35.0724 14.8049 35.0624 14.7448 35.0487 14.6868C35.0401 14.6506 35.0301 14.6151 35.0188 14.5806C35.0097 14.5529 34.9997 14.5258 34.9889 14.4992C34.9795 14.4763 34.9696 14.4538 34.959 14.4317C34.9495 14.412 34.9395 14.3926 34.9291 14.3736C34.9195 14.3561 34.9095 14.3389 34.8992 14.322C34.8895 14.3063 34.8796 14.2908 34.8693 14.2755C34.8596 14.2612 34.8496 14.2472 34.8394 14.2333C34.8297 14.2202 34.8197 14.2072 34.8095 14.1945C34.7997 14.1823 34.7898 14.1702 34.7796 14.1584C34.7698 14.1471 34.7599 14.136 34.7497 14.1251C34.7399 14.1145 34.73 14.1041 34.7198 14.0939C34.71 14.084 34.7 14.0742 34.6899 14.0646C34.6801 14.0552 34.6701 14.046 34.66 14.0369C34.6502 14.0282 34.6402 14.0195 34.6301 14.0109C34.6203 14.0026 34.6103 13.9944 34.6002 13.9863C34.5904 13.9784 34.5804 13.9706 34.5703 13.9629C34.5605 13.9555 34.5505 13.9481 34.5404 13.9409C34.5305 13.9337 34.5206 13.9268 34.5105 13.9199C34.5006 13.9131 34.4907 13.9065 34.4806 13.8999C34.4708 13.8935 34.4608 13.8872 34.4507 13.8809C34.4408 13.8748 34.4309 13.8688 34.4208 13.8628C34.4109 13.857 34.401 13.8513 34.3909 13.8456C34.381 13.84 34.3711 13.8345 34.361 13.8291C34.3511 13.8238 34.3412 13.8186 34.3311 13.8134C34.3212 13.8083 34.3113 13.8033 34.3012 13.7984C34.2913 13.7936 34.2814 13.7887 34.2713 13.7841C34.2614 13.7794 34.2515 13.7749 34.2414 13.7704C34.2315 13.766 34.2216 13.7617 34.2115 13.7574C34.2016 13.7532 34.1916 13.7491 34.1816 13.745C34.1717 13.741 34.1617 13.737 34.1517 13.7332C34.1418 13.7293 34.1319 13.7255 34.1218 13.7218C34.1119 13.7181 34.102 13.7145 34.0919 13.711C34.082 13.7075 34.0721 13.7041 34.062 13.7007C34.0521 13.6974 34.0422 13.6942 34.0321 13.691C34.0222 13.6878 34.0123 13.6847 34.0022 13.6817C33.9923 13.6786 33.9824 13.6756 33.9724 13.6727C33.9624 13.6699 33.9525 13.6671 33.9424 13.6644C33.9325 13.6617 33.9226 13.6591 33.9126 13.6565L33.8826 13.6489C33.8727 13.6464 33.8628 13.644 33.8527 13.6417C33.8428 13.6394 33.8329 13.6371 33.8229 13.635L33.7929 13.6286C33.783 13.6265 33.7731 13.6245 33.7631 13.6225C33.7531 13.6206 33.7431 13.6188 33.7331 13.617L33.7033 13.6117C33.6933 13.6101 33.6834 13.6084 33.6734 13.6068L33.6435 13.6022L33.6136 13.598L33.5837 13.5941L33.5538 13.5905L33.5239 13.5873L33.494 13.5843L33.4641 13.5817L33.4342 13.5794L33.4043 13.5773L33.3744 13.5755L33.3625 13.5749L33.3445 13.5738L33.3146 13.572L33.2847 13.5703L33.2548 13.5688L33.2249 13.5674L33.195 13.5661L33.1651 13.565L33.1352 13.5641L33.1053 13.5634L33.0754 13.563L33.0589 13.5629H33.0455H33.0156H32.9857H32.9558H32.9259H32.896H32.8661H32.8362H32.8063H32.7764H32.7465H32.7166H32.6867H32.6568H32.6269H32.597H32.5671H32.5372H32.5073H32.4774H32.4475H32.4177H32.3877H32.3578H32.3279H32.298H32.2682H32.2382H32.2084H32.1784H32.1486H32.1187H32.0888H32.0589H32.029H31.9991H31.9692H31.9393H31.9094H31.8795H31.8496H31.8197H31.7898H31.7599H31.73H31.7001H31.6702H31.6403H31.6104H31.5805H31.5506H31.5207H31.4908H31.4609H31.431H31.4011H31.3712H31.3413H31.3114H31.2815H31.2516H31.2217H31.1918H31.1619H31.132H31.1021H31.0722H31.0423H31.0124H30.9825H30.9526H30.9227H30.8928H30.8629H30.833H30.8031H30.7732H30.7433H30.7134H30.6835H30.6537H30.6237H30.5939H30.564H30.5341H30.5042H30.4743H30.4444H30.4145H30.3846H30.3547H30.3248H30.2949H30.265H30.2351H30.2052H30.1753H30.1454H30.1155H30.0856H30.0557H30.0258H29.9959H29.966H29.9361H29.9062H29.8763H29.8464H29.8165H29.7866H29.7567H29.7268H29.6969H29.667H29.6371H29.6072H29.5773H29.5474H29.5175H29.4876H29.4577H29.4278H29.3979H29.368H29.3381H29.3082H29.2783H29.2484H29.2185H29.1886H29.1587H29.1288H29.099H29.069H29.0392H29.0092H28.9794H28.9495H28.9196H28.8897H28.8598H28.8299H28.8H28.7701H28.7402H28.6757V10.349C28.6757 10.1328 28.6979 9.92184 28.7402 9.71813C28.7492 9.6745 28.7592 9.63125 28.7701 9.58834C28.7794 9.55163 28.7894 9.51518 28.8 9.47901C28.8094 9.4467 28.8194 9.41461 28.8299 9.38275C28.8394 9.35363 28.8493 9.32467 28.8598 9.29595C28.8694 9.26931 28.8793 9.24282 28.8897 9.21652C28.8993 9.19196 28.9093 9.16753 28.9196 9.14329C28.9293 9.12041 28.9392 9.09763 28.9495 9.07503C28.9592 9.05356 28.9692 9.03225 28.9794 9.01105C28.9891 8.99083 28.9991 8.97075 29.0092 8.95077C29.019 8.93155 29.029 8.91249 29.0392 8.8935C29.0489 8.8752 29.0589 8.85703 29.069 8.83896C29.0789 8.82143 29.0888 8.80405 29.099 8.78674C29.1088 8.76996 29.1187 8.75325 29.1288 8.73668C29.1387 8.72061 29.1486 8.70467 29.1587 8.6888C29.1685 8.67342 29.1786 8.6582 29.1886 8.64302C29.1985 8.62817 29.2084 8.61336 29.2185 8.59868C29.2284 8.58429 29.2383 8.56991 29.2484 8.5557C29.2583 8.54193 29.2683 8.52834 29.2783 8.51475C29.2882 8.50138 29.2982 8.48811 29.3082 8.47491C29.3182 8.46191 29.328 8.44887 29.3381 8.43604C29.348 8.42356 29.358 8.41128 29.368 8.39895C29.3779 8.3868 29.3879 8.37474 29.3979 8.36276C29.4078 8.35092 29.4177 8.33909 29.4278 8.3274C29.4377 8.31601 29.4477 8.30482 29.4577 8.29358C29.4677 8.28244 29.4775 8.27128 29.4876 8.26028C29.4975 8.24951 29.5075 8.23884 29.5175 8.2282C29.5274 8.2177 29.5374 8.20727 29.5474 8.1969C29.5573 8.18668 29.5672 8.17645 29.5773 8.16635C29.5872 8.15642 29.5972 8.14664 29.6072 8.13686C29.6172 8.12713 29.627 8.1173 29.6371 8.10772C29.647 8.09834 29.657 8.08918 29.667 8.07992C29.6769 8.07071 29.6869 8.06147 29.6969 8.05239C29.7068 8.04345 29.7168 8.03468 29.7268 8.0259C29.7367 8.01716 29.7467 8.00842 29.7567 7.9998C29.7666 7.99131 29.7766 7.98294 29.7866 7.97457C29.7965 7.96628 29.8065 7.95801 29.8165 7.94984C29.8264 7.94174 29.8364 7.93374 29.8464 7.9258L29.8763 7.9023L29.9062 7.87943C29.9161 7.87192 29.9261 7.86447 29.9361 7.85709C29.946 7.84979 29.956 7.84251 29.966 7.83531L29.9959 7.81409C30.0058 7.80713 30.0158 7.80022 30.0258 7.79339L30.0557 7.77316L30.0856 7.75348C30.0955 7.74702 30.1055 7.74058 30.1155 7.73424L30.1454 7.71557C30.1554 7.70941 30.1653 7.70324 30.1753 7.6972C30.1852 7.69121 30.1952 7.68539 30.2052 7.67953C30.2151 7.67366 30.225 7.66774 30.2351 7.662C30.245 7.65633 30.255 7.65086 30.265 7.64529C30.2749 7.63972 30.2848 7.63405 30.2949 7.6286C30.3048 7.62323 30.3148 7.61803 30.3248 7.61275C30.3347 7.60748 30.3446 7.60218 30.3547 7.59701C30.3646 7.59188 30.3746 7.58691 30.3846 7.5819C30.3945 7.57693 30.4045 7.57193 30.4145 7.56705L30.4444 7.55262C30.4543 7.54789 30.4643 7.54328 30.4743 7.53865C30.4842 7.53405 30.4941 7.52937 30.5042 7.52486C30.5141 7.5204 30.5241 7.51615 30.5341 7.51179C30.544 7.50743 30.5539 7.503 30.564 7.49874C30.5739 7.49453 30.5839 7.49052 30.5939 7.48641C30.6038 7.48233 30.6137 7.47819 30.6237 7.47421L30.6537 7.46245L30.6835 7.45108C30.6935 7.44732 30.7034 7.44351 30.7134 7.43987C30.7234 7.43625 30.7334 7.43286 30.7433 7.42934C30.7533 7.42583 30.7632 7.42224 30.7732 7.41882C30.7832 7.41543 30.7932 7.41224 30.8031 7.40894L30.833 7.39926C30.843 7.39609 30.8529 7.3929 30.8629 7.38983C30.8729 7.38678 30.8829 7.38391 30.8928 7.38097C30.9028 7.37799 30.9127 7.37492 30.9227 7.37208C30.9327 7.36926 30.9427 7.36663 30.9526 7.36391C30.9626 7.36118 30.9725 7.35844 30.9825 7.35581L31.0124 7.34809C31.0224 7.34559 31.0323 7.34321 31.0423 7.34081C31.0523 7.33841 31.0622 7.33583 31.0722 7.33353C31.0821 7.33125 31.0922 7.32917 31.1021 7.32697L31.132 7.32046L31.1619 7.31429C31.1718 7.31231 31.1818 7.31045 31.1918 7.30857C31.2018 7.30667 31.2117 7.30464 31.2217 7.30283C31.2317 7.30102 31.2417 7.29949 31.2516 7.2978L31.2815 7.29285C31.2915 7.29127 31.3014 7.28963 31.3114 7.28815C31.3214 7.28666 31.3313 7.28535 31.3413 7.28396C31.3513 7.28258 31.3612 7.28107 31.3712 7.27978C31.3811 7.27849 31.3911 7.27735 31.4011 7.27616L31.431 7.27275C31.441 7.27166 31.4509 7.27044 31.4609 7.26945C31.4708 7.26846 31.4808 7.2677 31.4908 7.26681L31.5207 7.26416L31.5506 7.2619C31.5605 7.26119 31.5705 7.26062 31.5805 7.26C31.5904 7.2594 31.6004 7.25864 31.6104 7.25812C31.6203 7.2576 31.6303 7.2573 31.6403 7.25688L31.6702 7.25576C31.6802 7.25544 31.6901 7.25502 31.7001 7.2548C31.71 7.25457 31.72 7.25455 31.73 7.2544C31.7399 7.25425 31.7499 7.25408 31.7599 7.25403L31.7674 7.25393H31.7898H31.8197H31.8496H31.8795H31.9094H31.9393H31.9692H31.9991H32.029H32.0589H32.0888H32.1187H32.1486H32.1784H32.2084H32.2382H32.2682H32.298H32.3279H32.3578H32.3877H32.4177H32.4475H32.4774H32.5073H32.5372H32.5671H32.597H32.6269H32.6568H32.6867H32.7166H32.7465H32.7764H32.8063H32.8362H32.8661H32.896H32.9259H32.9558H32.9857H33.0156H33.0455H33.0754H33.1053H33.1352H33.1651H33.195H33.2249H33.2548H33.2847H33.3146H33.3445H33.3744H33.4043H33.4342H33.4641H33.494H33.5239H33.5538H33.5837H33.6136H33.6435H33.6734H33.7033H33.7331H33.7631H33.7929H33.8229H33.8527H33.8826H33.9126H33.9424H33.9724H34.0022H34.0321H34.062H34.0919H34.1218H34.1517H34.1816H34.2115H34.2414H34.2713H34.3012H34.3311H34.361H34.3909H34.4208H34.4507H34.4806H34.5105H34.5404H34.5703H34.6002H34.6301H34.66H34.6899H34.7198H34.7497H34.7796H34.8095H34.8394H34.8693H34.8992H34.9291H34.959H34.9889H35.0188H35.0487H35.0786H35.1085H35.1384H35.1683H35.1982H35.2281H35.258H35.2879H35.3178H35.3476H35.3776H35.4074H35.4374H35.4673H35.4971H35.5271H35.5569H35.5868H35.6167H35.6466H35.6765H35.7064H35.7363H35.7662H35.7961H35.826H35.8559H35.8858H35.9157H35.9456H35.9755H36.0054H36.0353H36.0652H36.0951H36.125H36.1549H36.1848H36.2147H36.2446H36.2745H36.3044V7.25391Z" fill="#479951"/>
<path fill-rule="evenodd" clip-rule="evenodd" d="M11.6422 18.0231C11.6208 18.0129 11.5995 18.0027 11.5781 17.9924V10.349C11.5781 10.1334 11.6002 9.92298 11.6422 9.71981C11.6513 9.67619 11.6613 9.63296 11.6721 9.59003C11.6814 9.55326 11.6913 9.51679 11.7019 9.48057C11.7114 9.44829 11.7213 9.41625 11.7318 9.38441C11.7413 9.35527 11.7512 9.32625 11.7616 9.29748C11.7713 9.27087 11.7811 9.2444 11.7915 9.21813C11.8011 9.19357 11.8111 9.16909 11.8213 9.14482C11.831 9.12195 11.8409 9.09922 11.8512 9.07664C11.8609 9.05517 11.8708 9.03388 11.881 9.01269C11.8907 8.99244 11.9007 8.97233 11.9108 8.95233C11.9206 8.93311 11.9305 8.91405 11.9407 8.89509C11.9504 8.87679 11.9604 8.85862 11.9705 8.84054C11.9803 8.82304 11.9902 8.80563 12.0004 8.78835C12.0102 8.77157 12.0201 8.75483 12.0302 8.73824C12.04 8.7222 12.05 8.70628 12.0601 8.69043C12.0698 8.67508 12.0799 8.65983 12.0899 8.64466C12.0997 8.6298 12.1097 8.61499 12.1197 8.60031C12.1297 8.5859 12.1395 8.57152 12.1496 8.55728C12.1594 8.54354 12.1694 8.52997 12.1794 8.51638C12.1893 8.50301 12.1992 8.48974 12.2093 8.47655C12.2192 8.46357 12.229 8.4505 12.2391 8.43768C12.2489 8.42522 12.259 8.41297 12.269 8.40066C12.2788 8.38851 12.2888 8.3764 12.2988 8.36439C12.3087 8.35258 12.3186 8.3408 12.3287 8.32914C12.3385 8.31772 12.3485 8.30651 12.3585 8.29524C12.3684 8.28408 12.3783 8.27293 12.3884 8.26194C12.3982 8.25117 12.4082 8.24055 12.4182 8.22993C12.4281 8.21941 12.438 8.20898 12.4481 8.19861C12.4579 8.18838 12.4679 8.17816 12.4779 8.16806C12.4878 8.15813 12.4978 8.14835 12.5077 8.13857C12.5177 8.12884 12.5275 8.11904 12.5376 8.10945C12.5474 8.10007 12.5575 8.09091 12.5674 8.08165C12.5774 8.07242 12.5872 8.06316 12.5973 8.05407C12.6071 8.04516 12.6172 8.03642 12.6271 8.02763C12.6371 8.01889 12.6469 8.01012 12.657 8.00151C12.6669 7.99302 12.6768 7.98467 12.6868 7.9763C12.6967 7.96801 12.7066 7.95972 12.7166 7.95155C12.7265 7.94347 12.7365 7.93548 12.7465 7.92751C12.7564 7.91961 12.7663 7.91178 12.7763 7.90401C12.7862 7.89631 12.7962 7.88871 12.8062 7.88113C12.8161 7.87363 12.8261 7.86615 12.836 7.85878L12.8659 7.83704C12.8758 7.82988 12.8857 7.82278 12.8957 7.81575C12.9056 7.80879 12.9156 7.80191 12.9256 7.79507C12.9355 7.78827 12.9454 7.78151 12.9554 7.77482C12.9653 7.76821 12.9753 7.7617 12.9853 7.75519C12.9952 7.74873 13.0051 7.74221 13.0151 7.73585C13.025 7.72956 13.035 7.72342 13.045 7.71723C13.0549 7.71107 13.0648 7.70483 13.0748 7.69879C13.0847 7.69282 13.0947 7.68703 13.1046 7.68116C13.1146 7.67529 13.1245 7.66933 13.1345 7.66356C13.1444 7.65789 13.1544 7.65247 13.1643 7.6469C13.1743 7.64132 13.1842 7.63568 13.1942 7.63021C13.2041 7.62481 13.2141 7.61961 13.224 7.61434C13.234 7.60906 13.2439 7.60377 13.2539 7.59859C13.2638 7.59347 13.2737 7.58844 13.2837 7.58341L13.3135 7.56861C13.3235 7.56373 13.3334 7.55885 13.3434 7.5541C13.3533 7.54937 13.3633 7.54479 13.3732 7.54016C13.3832 7.53553 13.3931 7.5308 13.4031 7.5263C13.413 7.52182 13.423 7.51761 13.4329 7.51325C13.4429 7.50889 13.4528 7.50446 13.4628 7.5002C13.4727 7.49599 13.4827 7.49193 13.4926 7.48782L13.5225 7.47564L13.5523 7.46381L13.5822 7.45247C13.5921 7.4487 13.602 7.44482 13.612 7.44115C13.6219 7.43754 13.6319 7.43417 13.6419 7.43066C13.6518 7.42714 13.6617 7.42358 13.6717 7.42016L13.7015 7.41018L13.7314 7.4005C13.7413 7.39733 13.7512 7.39409 13.7612 7.39102C13.7711 7.38797 13.7811 7.38508 13.7911 7.38213C13.801 7.37916 13.8109 7.37614 13.8209 7.37327C13.8308 7.37042 13.8408 7.36777 13.8508 7.36502L13.8806 7.35693C13.8906 7.3543 13.9005 7.35163 13.9105 7.3491C13.9204 7.34658 13.9303 7.34427 13.9403 7.34185C13.9502 7.33942 13.9602 7.3369 13.9701 7.33457C13.9801 7.33227 13.99 7.33011 14 7.32791L14.0298 7.32142C14.0398 7.31929 14.0497 7.31714 14.0597 7.31513C14.0696 7.31315 14.0796 7.31132 14.0895 7.30941C14.0995 7.30751 14.1094 7.30553 14.1194 7.30372C14.1293 7.30191 14.1392 7.30028 14.1492 7.29857L14.1791 7.29362C14.189 7.29203 14.1989 7.29033 14.2089 7.28882C14.2188 7.28731 14.2288 7.28604 14.2387 7.28463C14.2487 7.28324 14.2586 7.28176 14.2686 7.28045L14.2984 7.27671L14.3283 7.27332C14.3383 7.2722 14.3481 7.27092 14.3581 7.2699C14.368 7.26889 14.378 7.26814 14.388 7.26723L14.4178 7.2646C14.4278 7.26376 14.4377 7.26294 14.4477 7.26223C14.4576 7.26151 14.4676 7.26094 14.4775 7.26032C14.4875 7.2597 14.4974 7.25898 14.5074 7.25844C14.5173 7.25789 14.5272 7.25752 14.5372 7.25708L14.567 7.25594C14.577 7.25559 14.5869 7.25507 14.5969 7.25482C14.6068 7.25457 14.6168 7.2546 14.6267 7.25445C14.6367 7.2543 14.6466 7.25413 14.6566 7.25408L14.6698 7.25391H14.6864H14.7163H14.7461H14.7759H14.8058H14.8356H14.8655H14.8953H14.9252H14.955H14.9849H15.0147H15.0446H15.0744H15.1043H15.1341H15.164H15.1938H15.2236H15.2535H15.2833H15.3132H15.343H15.3728H15.4027H15.4325H15.4624H15.4922H15.5221H15.5519H15.5818H15.6116H15.6415H15.6713H15.7012H15.731H15.7608H15.7907H15.8205H15.8504H15.8802H15.9101H15.9399H15.9698H15.9996H16.0294H16.0593H16.0891H16.119H16.1488H16.1787H16.2085H16.2384H16.2682H16.2981H16.3279H16.3577H16.3876H16.4174H16.4473H16.4771H16.507H16.5368H16.5667H16.5965H16.6263H16.6562H16.686H16.7159H16.7457H16.7756H16.8054H16.8353H16.8651H16.8949H16.9248H16.9546H16.9845H17.0143H17.0442H17.074H17.1039H17.1337H17.1636H17.1934H17.2233H17.2531H17.2829H17.3128H17.3426H17.3725H17.4023H17.4322H17.462H17.4918H17.5217H17.5515H17.5814H17.6112H17.6411H17.6709H17.7008H17.7306H17.7605H17.7903H17.8202H17.85H17.8798H17.9097H17.9395H17.9694H17.9992H18.029H18.0589H18.0887H18.1186H18.1484H18.1783H18.2081H18.238H18.2678H18.2977H18.3275H18.3574H18.3872H18.4171H18.4469H18.4767H18.5066H18.5364H18.5663H18.5961H18.626H18.6558H18.6856H18.7155H18.7453H18.7752H18.805H18.8349H18.8647H18.8946H18.9244H18.9543H18.9841H19.0139H19.0438H19.0736H19.1035H19.1333H19.1632H19.193H19.2183V22.7283C19.2183 22.8629 19.2097 22.9955 19.193 23.1256C19.185 23.1883 19.1749 23.2502 19.1632 23.3116C19.1542 23.3583 19.1443 23.4047 19.1333 23.4506C19.1241 23.4893 19.1141 23.5277 19.1035 23.5658C19.0941 23.5993 19.0841 23.6325 19.0736 23.6655C19.0641 23.6953 19.0542 23.7249 19.0438 23.7544C19.0342 23.7817 19.0243 23.8088 19.0139 23.8357C19.0043 23.8608 18.9944 23.8858 18.9841 23.9106C18.9744 23.9339 18.9645 23.9572 18.9543 23.9802C18.9446 24.0021 18.9346 24.0239 18.9244 24.0455C18.9147 24.0661 18.9047 24.0866 18.8946 24.107C18.8848 24.1265 18.8749 24.146 18.8647 24.1653C18.8549 24.1839 18.845 24.2024 18.8349 24.2207C18.8251 24.2385 18.8152 24.2562 18.805 24.2738C18.7952 24.2907 18.7853 24.3075 18.7752 24.3243C18.7654 24.3405 18.7554 24.3565 18.7453 24.3725C18.7355 24.3881 18.7256 24.4036 18.7155 24.419C18.7056 24.4341 18.6958 24.4492 18.6856 24.4641C18.6758 24.4785 18.6658 24.4928 18.6558 24.5071C18.646 24.521 18.636 24.5348 18.626 24.5486C18.6161 24.5622 18.6062 24.5757 18.5961 24.589C18.5863 24.6021 18.5763 24.6151 18.5663 24.628C18.5564 24.6406 18.5464 24.6531 18.5364 24.6655C18.5265 24.6778 18.5166 24.6901 18.5066 24.7023C18.4967 24.7141 18.4867 24.7258 18.4767 24.7375C18.4669 24.7491 18.4569 24.7605 18.4469 24.7719C18.437 24.7831 18.4271 24.7944 18.4171 24.8055C18.4072 24.8164 18.3972 24.827 18.3872 24.8377C18.3773 24.8484 18.3674 24.859 18.3574 24.8695C18.3475 24.8797 18.3375 24.8899 18.3275 24.9C18.3176 24.9101 18.3077 24.92 18.2977 24.9299C18.2878 24.9397 18.2778 24.9494 18.2678 24.959C18.2579 24.9685 18.248 24.9779 18.238 24.9872C18.2281 24.9965 18.2182 25.0058 18.2081 25.015C18.1983 25.024 18.1883 25.0328 18.1783 25.0417C18.1683 25.0505 18.1585 25.0594 18.1484 25.0681C18.1386 25.0766 18.1285 25.0849 18.1186 25.0933C18.1087 25.1017 18.0988 25.1102 18.0887 25.1185C18.0789 25.1266 18.0689 25.1345 18.0589 25.1425C18.049 25.1505 18.0391 25.1585 18.029 25.1664C18.0192 25.1741 18.0092 25.1816 17.9992 25.1892C17.9893 25.1968 17.9794 25.2044 17.9694 25.2119C17.9595 25.2192 17.9495 25.2264 17.9395 25.2336C17.9296 25.2408 17.9197 25.2481 17.9097 25.2552C17.8998 25.2622 17.8898 25.269 17.8798 25.2759C17.8699 25.2828 17.86 25.2897 17.85 25.2965C17.8401 25.3031 17.8301 25.3096 17.8202 25.3161C17.8102 25.3227 17.8003 25.3293 17.7903 25.3358C17.7804 25.3421 17.7704 25.3482 17.7605 25.3544C17.7505 25.3606 17.7406 25.3669 17.7306 25.373C17.7207 25.379 17.7107 25.3848 17.7008 25.3907C17.6908 25.3966 17.6809 25.4026 17.6709 25.4084C17.661 25.4141 17.6511 25.4197 17.6411 25.4253C17.6312 25.4309 17.6212 25.4365 17.6112 25.442C17.6013 25.4474 17.5914 25.4528 17.5814 25.4581L17.5515 25.4739C17.5416 25.479 17.5317 25.4842 17.5217 25.4893C17.5118 25.4943 17.5018 25.4992 17.4918 25.5041C17.4819 25.509 17.472 25.5141 17.462 25.5189C17.4521 25.5236 17.4421 25.5282 17.4322 25.5328C17.4222 25.5375 17.4123 25.5422 17.4023 25.5468C17.3924 25.5513 17.3824 25.5556 17.3725 25.56L17.3426 25.573L17.3128 25.5857C17.3029 25.5898 17.2929 25.5938 17.2829 25.5979C17.273 25.6019 17.2631 25.606 17.2531 25.6099C17.2432 25.6138 17.2332 25.6175 17.2233 25.6213C17.2133 25.625 17.2034 25.6289 17.1934 25.6326C17.1835 25.6363 17.1735 25.6398 17.1636 25.6433L17.1337 25.6538L17.1039 25.664C17.0939 25.6674 17.084 25.6705 17.074 25.6737C17.0641 25.6769 17.0542 25.6803 17.0442 25.6834C17.0343 25.6865 17.0243 25.6893 17.0143 25.6923L16.9845 25.7012L16.9546 25.7097C16.9447 25.7125 16.9348 25.7151 16.9248 25.7178C16.9148 25.7204 16.9049 25.7233 16.8949 25.7258C16.8851 25.7284 16.875 25.7306 16.8651 25.7331C16.8552 25.7355 16.8452 25.738 16.8353 25.7404L16.8054 25.7472L16.7756 25.7537C16.7656 25.7559 16.7557 25.7582 16.7457 25.7603C16.7358 25.7623 16.7258 25.764 16.7159 25.7659C16.7059 25.7679 16.696 25.7698 16.686 25.7717L16.6562 25.777C16.6463 25.7788 16.6363 25.7803 16.6263 25.782C16.6164 25.7836 16.6065 25.7854 16.5965 25.7869C16.5866 25.7885 16.5766 25.7897 16.5667 25.7912L16.5368 25.7954C16.5269 25.7967 16.5169 25.7981 16.507 25.7993C16.497 25.8005 16.4871 25.8016 16.4771 25.8027C16.4672 25.8039 16.4572 25.8051 16.4473 25.8061C16.4374 25.8072 16.4274 25.8081 16.4174 25.809L16.3876 25.8117C16.3776 25.8125 16.3677 25.8135 16.3577 25.8143C16.3478 25.815 16.3378 25.8155 16.3279 25.8162L16.2981 25.818L16.2682 25.8196C16.2583 25.8201 16.2483 25.8204 16.2384 25.8208C16.2284 25.8211 16.2185 25.8216 16.2085 25.8219C16.1986 25.8222 16.1886 25.8223 16.1787 25.8225L16.1488 25.8228C16.1396 25.8229 16.1304 25.8232 16.1212 25.8232H16.119H16.0891H16.0593H16.0294H15.9996H15.9698H15.9399H15.9101H15.8802H15.8504H15.8205H15.7907H15.7608H15.731H15.7012H15.6713H15.6415H15.6116H15.5818H15.5519H15.5221H15.4922H15.4624H15.4325H15.4027H15.3728H15.343H15.3132H15.2833H15.2535H15.2236H15.1938H15.164H15.1341H15.1043H15.0744H15.0446H15.0147H14.9849H14.955H14.9252H14.8953H14.8655H14.8356H14.8058H14.7759H14.7461H14.7163H14.6864H14.6566H14.6267H14.5969H14.567H14.5372H14.5074H14.4775H14.4477H14.4178H14.388H14.3581H14.3283H14.2984H14.2686H14.2387H14.2089H14.1791H14.1492H14.1194H14.0895H14.0597H14.0298H14H13.9701H13.9403H13.9105H13.8806H13.8508H13.8209H13.7911H13.7612H13.7314H13.7015H13.6717H13.6419H13.612H13.5822H13.5523H13.5225H13.4926H13.4628H13.4329H13.4031H13.3732H13.3434H13.3135H13.2837H13.2539H13.224H13.1942H13.1643H13.1345H13.1046H13.0748H13.045H13.0151H12.9853H12.9554H12.9256H12.8957H12.8659H12.836H12.8062H12.7763H12.7465H12.7166H12.6868H12.657H12.6271H12.5973H12.5674H12.5376H12.5077H12.4779H12.4481H12.4182H12.3884H12.3585H12.3287H12.2988H12.269H12.2391H12.2093H12.1794H12.1496H12.1197H12.0899H12.0601H12.0302H12.0004H11.9705H11.9407H11.9108H11.881H11.8512H11.8213H11.7915H11.7616H11.7318H11.7019H11.6721H11.6422H11.5781V19.3009C11.5781 19.3009 11.6002 19.3069 11.6422 19.3175L11.6721 19.325L11.7019 19.3323L11.7318 19.3394L11.7616 19.3465L11.7915 19.3534L11.8213 19.3603L11.8512 19.367L11.881 19.3736L11.9108 19.3802L11.9407 19.3866L11.9705 19.393L12.0004 19.3993L12.0302 19.4055L12.0601 19.4116L12.0899 19.4176L12.1197 19.4236L12.1496 19.4295L12.1794 19.4353L12.2093 19.441L12.2391 19.4467L12.269 19.4523L12.2988 19.4578L12.3287 19.4632L12.3585 19.4686L12.3884 19.4739L12.4182 19.4792L12.4481 19.4843L12.4779 19.4894L12.5077 19.4944L12.5376 19.4994L12.5674 19.5043L12.5973 19.5091L12.6271 19.5139L12.657 19.5186L12.6868 19.5232L12.7166 19.5278L12.7465 19.5323L12.7763 19.5367L12.8062 19.5411L12.836 19.5454L12.8659 19.5496L12.8957 19.5538L12.9256 19.5579L12.9554 19.5619L12.9853 19.5659L13.0151 19.5698L13.045 19.5737L13.0748 19.5774L13.1046 19.5812L13.1345 19.5848L13.1643 19.5884L13.1942 19.5919L13.224 19.5954L13.2539 19.5988L13.2837 19.6021L13.3135 19.6054L13.3434 19.6086L13.3732 19.6118L13.4031 19.6148L13.4329 19.6179L13.4628 19.6208L13.4926 19.6237L13.5225 19.6265L13.5523 19.6293L13.5822 19.632L13.612 19.6346L13.6419 19.6371L13.6717 19.6397L13.7015 19.6421L13.7314 19.6445L13.7612 19.6467L13.7911 19.649L13.8209 19.6512L13.8508 19.6533L13.8806 19.6553L13.9105 19.6573L13.9403 19.6592L13.9701 19.6611L14 19.6628L14.0298 19.6646L14.0597 19.6662L14.0895 19.6678L14.1194 19.6693L14.1492 19.6707L14.1791 19.6721L14.2089 19.6734L14.2387 19.6747L14.2686 19.6759L14.2984 19.6769L14.3283 19.678L14.3581 19.679L14.388 19.6799L14.4178 19.6808L14.4477 19.6815L14.4775 19.6822L14.5074 19.6829L14.5372 19.6833L14.567 19.6838L14.5969 19.6843L14.6267 19.6846L14.6566 19.6849L14.6864 19.6851L14.7163 19.6852L14.7461 19.6853L14.7576 19.6854L14.7759 19.6853L14.8058 19.6851L14.8356 19.6849L14.8655 19.6847L14.8953 19.6845L14.9252 19.684L14.955 19.6834L14.9849 19.6829L15.0147 19.6824L15.0446 19.6816L15.0744 19.6807L15.1043 19.6798L15.1341 19.6788L15.164 19.6779L15.1938 19.6765L15.2236 19.6752L15.2535 19.6739L15.2833 19.6726L15.3132 19.6709L15.343 19.6692L15.3728 19.6675L15.4027 19.6657L15.4325 19.6638L15.4624 19.6616L15.4922 19.6595L15.5221 19.6573L15.5519 19.655L15.5818 19.6524L15.6116 19.6498L15.6415 19.6472L15.6713 19.6444L15.7012 19.6414L15.731 19.6383L15.7608 19.6353L15.7907 19.632L15.8205 19.6285L15.8504 19.625L15.8802 19.6215L15.9101 19.6176L15.9399 19.6136L15.9698 19.6096L15.9996 19.6056C16.0097 19.6041 16.0195 19.6025 16.0294 19.6011L16.0593 19.5966L16.0891 19.5921L16.119 19.5874C16.129 19.5858 16.1388 19.584 16.1488 19.5823L16.1787 19.5773C16.1886 19.5757 16.1987 19.574 16.2085 19.5723C16.2186 19.5705 16.2284 19.5686 16.2384 19.5668L16.2682 19.5612L16.2981 19.5556L16.3279 19.5498C16.3379 19.5478 16.3478 19.5457 16.3577 19.5437L16.3876 19.5375L16.4174 19.5313C16.4275 19.5291 16.4373 19.5268 16.4473 19.5246L16.4771 19.5178C16.487 19.5156 16.4971 19.5134 16.507 19.5111C16.517 19.5088 16.5268 19.5063 16.5368 19.5039L16.5667 19.4965C16.5766 19.494 16.5867 19.4917 16.5965 19.4892C16.6065 19.4866 16.6164 19.4839 16.6263 19.4813L16.6562 19.4734C16.6661 19.4707 16.6762 19.4681 16.686 19.4654C16.6961 19.4626 16.7059 19.4598 16.7159 19.4569L16.7457 19.4483C16.7557 19.4454 16.7657 19.4426 16.7756 19.4396L16.8054 19.4305L16.8353 19.4211C16.8452 19.418 16.8553 19.415 16.8651 19.4118L16.8949 19.4018L16.9248 19.3917C16.9347 19.3884 16.9448 19.3851 16.9546 19.3816C16.9647 19.3781 16.9745 19.3744 16.9845 19.3708L17.0143 19.36C17.0243 19.3563 17.0343 19.3527 17.0442 19.3489C17.0543 19.3451 17.0641 19.3411 17.074 19.3373C17.084 19.3334 17.094 19.3295 17.1039 19.3256L17.1337 19.3134L17.1636 19.3009C17.1735 19.2967 17.1836 19.2927 17.1934 19.2884C17.2035 19.284 17.2133 19.2794 17.2233 19.275L17.2531 19.2616L17.2829 19.2477C17.293 19.243 17.3029 19.2382 17.3128 19.2334C17.3227 19.2286 17.3328 19.2238 17.3426 19.2189C17.3527 19.2139 17.3625 19.2087 17.3725 19.2036C17.3824 19.1985 17.3925 19.1934 17.4023 19.1883C17.4124 19.183 17.4222 19.1775 17.4322 19.1721C17.4422 19.1667 17.4521 19.1613 17.462 19.1558C17.472 19.1502 17.482 19.1445 17.4918 19.1389C17.5019 19.1331 17.5118 19.1272 17.5217 19.1214C17.5317 19.1154 17.5417 19.1095 17.5515 19.1035C17.5616 19.0974 17.5715 19.0911 17.5814 19.0849C17.5914 19.0786 17.6014 19.0724 17.6112 19.066C17.6213 19.0595 17.6312 19.0528 17.6411 19.0461C17.6511 19.0394 17.6611 19.0328 17.6709 19.026C17.681 19.019 17.6909 19.0119 17.7008 19.0048C17.7107 18.9977 17.7208 18.9905 17.7306 18.9833C17.7407 18.9759 17.7506 18.9683 17.7605 18.9608C17.7705 18.9531 17.7805 18.9454 17.7903 18.9377C17.8004 18.9297 17.8103 18.9217 17.8202 18.9136C17.8302 18.9053 17.8402 18.897 17.85 18.8887C17.86 18.8801 17.8701 18.8716 17.8798 18.863C17.89 18.8541 17.8998 18.845 17.9097 18.836C17.9197 18.8268 17.9298 18.8177 17.9395 18.8084C17.9497 18.7988 17.9595 18.7891 17.9694 18.7793C17.9795 18.7693 17.9894 18.7592 17.9992 18.7491C18.0093 18.7387 18.0193 18.7284 18.029 18.7179C18.0392 18.707 18.049 18.6959 18.0589 18.6847C18.069 18.6733 18.079 18.6618 18.0887 18.6503C18.0988 18.6384 18.1089 18.6264 18.1186 18.6143C18.1287 18.6018 18.1387 18.5892 18.1484 18.5765C18.1586 18.5632 18.1685 18.5498 18.1783 18.5363C18.1885 18.5223 18.1984 18.5082 18.2081 18.494C18.2183 18.4792 18.2283 18.4643 18.238 18.4492C18.2482 18.4335 18.2581 18.4176 18.2678 18.4016C18.278 18.3848 18.288 18.3678 18.2977 18.3507C18.3079 18.3325 18.3179 18.3142 18.3275 18.2958C18.3378 18.2761 18.3477 18.2563 18.3574 18.2363C18.3677 18.2148 18.3776 18.1931 18.3872 18.1713C18.3976 18.1476 18.4076 18.1237 18.4171 18.0996C18.4275 18.0731 18.4375 18.0463 18.4469 18.0193C18.4575 17.9886 18.4674 17.9576 18.4767 17.9264C18.4876 17.8899 18.4975 17.8531 18.5066 17.8159C18.5178 17.7697 18.5278 17.723 18.5364 17.6758C18.5492 17.6055 18.5591 17.5341 18.5663 17.4617C18.5763 17.3608 18.5812 17.2581 18.5812 17.1538V13.563H18.5663H18.5364H18.5066H18.4767H18.4469H18.4171H18.3872H18.3574H18.3275H18.2977H18.2678H18.238H18.2081H18.1783H18.1484H18.1186H18.0887H18.0589H18.029H17.9992H17.9694H17.9395H17.9097H17.8798H17.85H17.8202H17.7903H17.7605H17.7306H17.7008H17.6709H17.6411H17.6112H17.5814H17.5515H17.5217H17.4918H17.462H17.4322H17.4023H17.3725H17.3426H17.3128H17.2829H17.2531H17.2233H17.1934H17.1636H17.1337H17.1039H17.074H17.0442H17.0143H16.9845H16.9546H16.9248H16.8949H16.8651H16.8353H16.8054H16.7756H16.7457H16.7159H16.686H16.6562H16.6263H16.5965H16.5667H16.5368H16.507H16.4771H16.4473H16.4174H16.3876H16.3577H16.3279H16.2981H16.2682H16.2384H16.2085H16.1787H16.1488H16.119H16.0891H16.0593H16.0294H15.9996H15.9698H15.9399H15.9173V17.1538C15.9173 17.21 15.9148 17.2654 15.9101 17.3196C15.904 17.3887 15.894 17.4561 15.8802 17.5216C15.8717 17.562 15.8618 17.6017 15.8504 17.6407C15.8413 17.6718 15.8314 17.7023 15.8205 17.7323C15.8113 17.7579 15.8013 17.7831 15.7907 17.8079C15.7812 17.83 15.7713 17.8518 15.7608 17.8733C15.7513 17.8929 15.7414 17.9122 15.731 17.9312C15.7214 17.9487 15.7114 17.9658 15.7012 17.9828C15.6915 17.9987 15.6816 18.0145 15.6713 18.03C15.6616 18.0446 15.6517 18.059 15.6415 18.0731C15.6318 18.0866 15.6219 18.1 15.6116 18.1132C15.6019 18.1256 15.5919 18.1379 15.5818 18.15C15.572 18.1616 15.5621 18.173 15.5519 18.1844C15.5422 18.1953 15.5322 18.206 15.5221 18.2166C15.5123 18.2268 15.5024 18.2369 15.4922 18.2468C15.4825 18.2564 15.4725 18.2659 15.4624 18.2752C15.4526 18.2842 15.4426 18.2931 15.4325 18.3018C15.4228 18.3103 15.4128 18.3187 15.4027 18.327C15.3929 18.335 15.3829 18.3429 15.3728 18.3507C15.363 18.3583 15.3531 18.3657 15.343 18.3731C15.3332 18.3803 15.3232 18.3874 15.3132 18.3943C15.3033 18.4011 15.2934 18.4078 15.2833 18.4144C15.2735 18.4209 15.2635 18.4272 15.2535 18.4335C15.2436 18.4395 15.2337 18.4455 15.2236 18.4514C15.2138 18.4572 15.2038 18.4628 15.1938 18.4684C15.1839 18.4739 15.174 18.4792 15.164 18.4845C15.1541 18.4897 15.1442 18.4948 15.1341 18.4998C15.1242 18.5047 15.1143 18.5095 15.1043 18.5143C15.0944 18.5189 15.0845 18.5236 15.0744 18.5281C15.0645 18.5325 15.0546 18.5368 15.0446 18.5411C15.0347 18.5452 15.0247 18.5492 15.0147 18.5532C15.0049 18.5571 14.9949 18.561 14.9849 18.5647C14.975 18.5685 14.9651 18.5721 14.955 18.5757C14.9451 18.5792 14.9352 18.5827 14.9252 18.586C14.9153 18.5893 14.9053 18.5925 14.8953 18.5957C14.8855 18.5988 14.8755 18.6017 14.8655 18.6047C14.8556 18.6076 14.8457 18.6105 14.8356 18.6132C14.8257 18.6159 14.8158 18.6187 14.8058 18.6213C14.7959 18.6238 14.786 18.6263 14.7759 18.6287C14.7661 18.631 14.7561 18.6333 14.7461 18.6356C14.7362 18.6378 14.7263 18.6399 14.7163 18.642C14.7064 18.6441 14.6965 18.6461 14.6864 18.648C14.6765 18.6499 14.6666 18.6516 14.6566 18.6534C14.6467 18.6551 14.6367 18.6568 14.6267 18.6585L14.5969 18.663C14.587 18.6644 14.577 18.6658 14.567 18.6671C14.5571 18.6684 14.5472 18.6697 14.5372 18.6708L14.5074 18.6742C14.4975 18.6752 14.4875 18.6761 14.4775 18.677C14.4676 18.6779 14.4577 18.6788 14.4477 18.6795C14.4378 18.6803 14.4278 18.681 14.4178 18.6816C14.4079 18.6823 14.3979 18.6828 14.388 18.6833C14.378 18.6839 14.3681 18.6844 14.3581 18.6848C14.3482 18.6852 14.3383 18.6854 14.3283 18.6857L14.2984 18.6864C14.2885 18.6866 14.2786 18.6866 14.2686 18.6867L14.2574 18.6868L14.2387 18.6867L14.2089 18.6865L14.1791 18.6861L14.1492 18.6855L14.1194 18.6847L14.0895 18.6837L14.0597 18.6825L14.0298 18.6811L14 18.6796L13.9701 18.6778L13.9403 18.6759L13.9105 18.6738L13.8806 18.6715L13.8508 18.669L13.8209 18.6663L13.7911 18.6634L13.7612 18.6604L13.7314 18.6571L13.7015 18.6538L13.6717 18.6501L13.6419 18.6463L13.612 18.6424L13.5822 18.6383L13.5523 18.6339L13.5225 18.6295L13.4926 18.6248L13.4628 18.62L13.4329 18.615L13.4031 18.6098L13.3732 18.6044L13.3434 18.5989L13.3135 18.5932L13.2837 18.5873L13.2539 18.5813L13.224 18.575L13.1942 18.5687L13.1643 18.5621L13.1345 18.5554L13.1046 18.5485L13.0748 18.5415L13.045 18.5342L13.0151 18.5269L12.9853 18.5194L12.9554 18.5116L12.9256 18.5037L12.8957 18.4957L12.8659 18.4875L12.836 18.4792L12.8062 18.4707L12.7763 18.462L12.7465 18.4532L12.7166 18.4442L12.6868 18.4351L12.657 18.4258L12.6271 18.4163L12.5973 18.4067L12.5674 18.397L12.5376 18.3871L12.5077 18.377L12.4779 18.3668L12.4481 18.3565L12.4182 18.3459L12.3884 18.3353L12.3585 18.3245L12.3287 18.3135L12.2988 18.3024L12.269 18.2912L12.2391 18.2798L12.2093 18.2683L12.1794 18.2566L12.1496 18.2448L12.1197 18.2329L12.0899 18.2208L12.0601 18.2085L12.0302 18.1962L12.0004 18.1837L11.9705 18.171L11.9407 18.1582L11.9108 18.1453L11.881 18.1322L11.8512 18.1191L11.8213 18.1058L11.7915 18.0923L11.7616 18.0787L11.7318 18.065L11.7019 18.0512L11.6721 18.0372L11.6422 18.0231V18.0231Z" fill="#265797"/>
<path fill-rule="evenodd" clip-rule="evenodd" d="M20.316 14.3476C20.2943 14.3652 20.2729 14.3829 20.252 14.4008V10.349C20.252 10.1335 20.2741 9.92322 20.316 9.72013C20.3251 9.67653 20.335 9.63333 20.3459 9.59042C20.3552 9.55361 20.3651 9.51709 20.3757 9.48082C20.3852 9.44851 20.3951 9.41642 20.4056 9.38456C20.4151 9.35544 20.425 9.32647 20.4354 9.29775C20.445 9.27114 20.455 9.24465 20.4653 9.21838C20.4749 9.19382 20.4849 9.16938 20.4951 9.14512C20.5048 9.12224 20.5147 9.09951 20.525 9.07691C20.5346 9.05545 20.5447 9.03413 20.5548 9.01294C20.5645 8.99268 20.5745 8.97263 20.5847 8.95262C20.5944 8.93341 20.6044 8.91435 20.6145 8.89536C20.6243 8.87706 20.6342 8.85889 20.6443 8.84082C20.6541 8.82331 20.6641 8.80588 20.6742 8.7886C20.684 8.77181 20.6939 8.7551 20.704 8.73851C20.7138 8.7225 20.7238 8.70658 20.7339 8.69076C20.7437 8.67536 20.7537 8.66013 20.7637 8.64493C20.7736 8.63005 20.7835 8.61527 20.7936 8.60059C20.8035 8.58618 20.8133 8.57177 20.8234 8.55756C20.8332 8.54379 20.8433 8.53025 20.8533 8.51668C20.8631 8.50331 20.8731 8.49001 20.8831 8.47682C20.893 8.46382 20.9029 8.4508 20.913 8.43797C20.9227 8.42552 20.9328 8.41324 20.9428 8.40093C20.9527 8.38878 20.9626 8.37667 20.9727 8.36469C20.9825 8.35285 20.9925 8.34107 21.0025 8.32941C21.0124 8.31802 21.0224 8.30678 21.0324 8.29554C21.0422 8.2844 21.0522 8.27321 21.0622 8.26219C21.072 8.25142 21.082 8.24077 21.092 8.23015C21.1019 8.21965 21.1118 8.20923 21.1219 8.19886C21.1318 8.18863 21.1417 8.17841 21.1517 8.16831C21.1616 8.1584 21.1716 8.14862 21.1816 8.13884C21.1915 8.12911 21.2014 8.11931 21.2114 8.1097C21.2213 8.10032 21.2313 8.09116 21.2412 8.0819C21.2512 8.07266 21.261 8.0634 21.2711 8.05432C21.281 8.0454 21.291 8.03664 21.3009 8.02785C21.3109 8.01909 21.3208 8.01035 21.3308 8.00173C21.3407 7.99324 21.3507 7.9849 21.3606 7.97653C21.3706 7.96823 21.3805 7.95994 21.3905 7.95174C21.4004 7.94367 21.4103 7.93568 21.4203 7.92773C21.4302 7.91983 21.4402 7.91198 21.4502 7.90421C21.4601 7.89653 21.47 7.88893 21.48 7.88136C21.4899 7.87385 21.4999 7.86638 21.5099 7.859C21.5198 7.85167 21.5297 7.84444 21.5397 7.83724C21.5496 7.83011 21.5596 7.82298 21.5696 7.81594C21.5795 7.80899 21.5894 7.80213 21.5994 7.79527C21.6093 7.78846 21.6193 7.78168 21.6293 7.77499C21.6391 7.76838 21.6491 7.76187 21.6591 7.75536C21.669 7.74887 21.6789 7.74239 21.689 7.73602C21.6989 7.72974 21.7088 7.7236 21.7188 7.71741C21.7287 7.71124 21.7386 7.705 21.7486 7.69896C21.7585 7.69297 21.7685 7.68718 21.7785 7.68131C21.7885 7.67544 21.7983 7.66945 21.8083 7.66371C21.8182 7.65804 21.8283 7.65259 21.8382 7.64702C21.8482 7.64145 21.858 7.63583 21.868 7.63038C21.8779 7.62498 21.8879 7.61978 21.8979 7.61449C21.9078 7.60921 21.9177 7.60391 21.9277 7.59874L21.9576 7.58356L21.9874 7.56873C21.9973 7.56388 22.0073 7.55898 22.0173 7.55422C22.0272 7.5495 22.0372 7.54492 22.0471 7.54029C22.0571 7.53568 22.0669 7.53093 22.077 7.52642C22.0868 7.52194 22.0969 7.51773 22.1068 7.51337C22.1168 7.50902 22.1267 7.50458 22.1367 7.50033C22.1466 7.49612 22.1565 7.49203 22.1665 7.48792L22.1963 7.47574C22.2063 7.47175 22.2162 7.46777 22.2262 7.46388C22.2361 7.46002 22.2461 7.45631 22.256 7.45254C22.266 7.44878 22.2759 7.44489 22.2859 7.44123C22.2958 7.43761 22.3058 7.43425 22.3157 7.43073C22.3257 7.42721 22.3356 7.42365 22.3456 7.42023C22.3555 7.41682 22.3655 7.41355 22.3754 7.41026L22.4053 7.40057C22.4152 7.39741 22.4251 7.39416 22.4351 7.39107C22.445 7.38802 22.455 7.38515 22.465 7.3822C22.4749 7.37923 22.4848 7.37619 22.4948 7.37332C22.5047 7.37047 22.5147 7.36782 22.5247 7.36507L22.5545 7.35698C22.5645 7.35435 22.5744 7.35168 22.5844 7.34915C22.5943 7.34665 22.6043 7.3443 22.6142 7.34187C22.6241 7.33945 22.6341 7.33692 22.644 7.33459C22.654 7.33229 22.6639 7.33014 22.6739 7.32793L22.7037 7.32145C22.7137 7.31934 22.7236 7.31716 22.7336 7.31516C22.7435 7.31315 22.7535 7.31135 22.7634 7.30944C22.7734 7.30753 22.7833 7.30553 22.7933 7.30372L22.8231 7.29857L22.853 7.29364C22.8629 7.29203 22.8728 7.29033 22.8828 7.28882C22.8927 7.28731 22.9027 7.28604 22.9127 7.28463C22.9226 7.28324 22.9325 7.28178 22.9425 7.28047L22.9724 7.27673L23.0022 7.27332C23.0122 7.2722 23.0221 7.27092 23.0321 7.2699C23.042 7.26889 23.052 7.26814 23.0619 7.26723L23.0918 7.2646C23.1017 7.26376 23.1116 7.26294 23.1216 7.26223C23.1315 7.26151 23.1415 7.26094 23.1514 7.26032C23.1614 7.2597 23.1713 7.25898 23.1813 7.25844C23.1912 7.25789 23.2012 7.25752 23.2111 7.25708L23.241 7.25594C23.2509 7.25559 23.2608 7.25507 23.2708 7.25482C23.2807 7.25457 23.2907 7.2546 23.3007 7.25445C23.3106 7.2543 23.3206 7.25413 23.3305 7.25408L23.3437 7.25391H23.3604H23.3902H23.4201H23.4499H23.4798H23.5096H23.5395H23.5693H23.5991H23.629H23.6588H23.6887H23.7185H23.7484H23.7782H23.8081H23.8379H23.8678H23.8976H23.9274H23.9573H23.9871H24.017H24.0468H24.0767H24.1065H24.1364H24.1662H24.1961H24.2259H24.2558H24.2856H24.3155H24.3453H24.3752H24.405H24.4348H24.4647H24.4945H24.5244H24.5542H24.5841H24.6139H24.6438H24.6736H24.7034H24.7333H24.7631H24.793H24.8228H24.8527H24.8825H24.9124H24.9422H24.9721H25.0019H25.0318H25.0616H25.0915H25.1213H25.1512H25.181H25.2108H25.2407H25.2705H25.3004H25.3302H25.3601H25.3899H25.4198H25.4496H25.4795H25.5093H25.5392H25.569H25.5989H25.6287H25.6585H25.6884H25.7182H25.7481H25.7779H25.8078H25.8376H25.8675H25.8973H25.9272H25.957H25.9869H26.0167H26.0466H26.0764H26.1062H26.1361H26.1659H26.1958H26.2256H26.2555H26.2853H26.3152H26.345H26.3749H26.4047H26.4346H26.4644H26.4943H26.5241H26.5539H26.5838H26.6136H26.6435H26.6733H26.7032H26.733H26.7629H26.7927H26.8226H26.8524H26.8823H26.9121H26.942H26.9718H27.0017H27.0315H27.0613H27.0912H27.121H27.1509H27.1807H27.2106H27.2404H27.2703H27.3001H27.33H27.3598H27.3897H27.4195H27.4494H27.4792H27.509H27.5389H27.5687H27.5986H27.6284H27.6583H27.6881H27.718H27.7478H27.7776H27.8075H27.8374H27.8672H27.8925V22.7283C27.8925 22.8629 27.8839 22.9954 27.8672 23.1254C27.8592 23.188 27.8491 23.25 27.8374 23.3114C27.8284 23.3581 27.8185 23.4044 27.8075 23.4504C27.7982 23.4891 27.7883 23.5275 27.7776 23.5657C27.7682 23.5991 27.7583 23.6323 27.7478 23.6653C27.7383 23.6952 27.7283 23.7248 27.718 23.7542C27.7084 23.7815 27.6984 23.8086 27.6881 23.8355C27.6785 23.8606 27.6686 23.8856 27.6583 23.9104C27.6486 23.9337 27.6386 23.957 27.6284 23.9801C27.6187 24.0019 27.6088 24.0237 27.5986 24.0453C27.5888 24.0659 27.5789 24.0864 27.5687 24.1068C27.559 24.1264 27.549 24.1458 27.5389 24.1651C27.5291 24.1837 27.5192 24.2022 27.509 24.2206C27.4992 24.2384 27.4893 24.2561 27.4792 24.2736C27.4694 24.2906 27.4594 24.3074 27.4494 24.3241C27.4396 24.3403 27.4296 24.3563 27.4195 24.3723C27.4097 24.3879 27.3997 24.4034 27.3897 24.4188C27.3798 24.4339 27.3699 24.449 27.3598 24.4639C27.35 24.4783 27.34 24.4927 27.33 24.5069C27.3202 24.5209 27.3102 24.5347 27.3001 24.5485C27.2902 24.562 27.2803 24.5755 27.2703 24.5889C27.2604 24.6019 27.2505 24.6149 27.2404 24.6278C27.2306 24.6404 27.2206 24.6529 27.2106 24.6653C27.2007 24.6776 27.1908 24.6899 27.1807 24.7021C27.1709 24.7139 27.1609 24.7257 27.1509 24.7374C27.141 24.7489 27.1311 24.7603 27.121 24.7717C27.1111 24.783 27.1012 24.7942 27.0912 24.8053C27.0813 24.8162 27.0713 24.8268 27.0613 24.8376C27.0514 24.8482 27.0415 24.8589 27.0315 24.8694C27.0216 24.8796 27.0116 24.8897 27.0017 24.8999C26.9918 24.9099 26.9819 24.9198 26.9718 24.9297C26.9619 24.9395 26.952 24.9492 26.942 24.9589C26.9321 24.9684 26.9221 24.9777 26.9121 24.9871C26.9022 24.9964 26.8923 25.0057 26.8823 25.0149C26.8724 25.0239 26.8624 25.0327 26.8524 25.0415C26.8425 25.0504 26.8326 25.0593 26.8226 25.068C26.8127 25.0765 26.8027 25.0848 26.7927 25.0932C26.7828 25.1016 26.7729 25.1101 26.7629 25.1183C26.753 25.1265 26.743 25.1344 26.733 25.1424C26.7231 25.1503 26.7132 25.1584 26.7032 25.1662C26.6933 25.174 26.6833 25.1815 26.6733 25.1891C26.6634 25.1967 26.6535 25.2043 26.6435 25.2118C26.6336 25.2191 26.6236 25.2263 26.6136 25.2335C26.6037 25.2407 26.5938 25.248 26.5838 25.2551C26.5739 25.2621 26.5639 25.2689 26.5539 25.2758C26.544 25.2827 26.5341 25.2896 26.5241 25.2964C26.5142 25.303 26.5042 25.3095 26.4943 25.316C26.4843 25.3226 26.4745 25.3292 26.4644 25.3356C26.4545 25.342 26.4445 25.3481 26.4346 25.3543C26.4246 25.3605 26.4147 25.3668 26.4047 25.3729C26.3948 25.3789 26.3848 25.3847 26.3749 25.3906C26.3649 25.3965 26.355 25.4024 26.345 25.4082C26.3351 25.414 26.3252 25.4196 26.3152 25.4252L26.2853 25.4419L26.2555 25.458L26.2256 25.4738C26.2157 25.4789 26.2058 25.4841 26.1958 25.4892C26.1859 25.4942 26.1759 25.4991 26.1659 25.504C26.156 25.509 26.1461 25.514 26.1361 25.5188C26.1262 25.5235 26.1162 25.5281 26.1062 25.5327C26.0963 25.5374 26.0864 25.5421 26.0764 25.5467C26.0665 25.5512 26.0565 25.5555 26.0466 25.5599L26.0167 25.5729L25.9869 25.5856L25.957 25.5978C25.9471 25.6018 25.9371 25.6059 25.9272 25.6099C25.9173 25.6138 25.9073 25.6174 25.8973 25.6212C25.8874 25.625 25.8775 25.6288 25.8675 25.6325C25.8576 25.6362 25.8476 25.6397 25.8376 25.6432L25.8078 25.6538L25.7779 25.664C25.768 25.6673 25.758 25.6704 25.7481 25.6736C25.7381 25.6769 25.7282 25.6802 25.7182 25.6833C25.7084 25.6864 25.6983 25.6893 25.6884 25.6923L25.6585 25.7011L25.6287 25.7096C25.6188 25.7124 25.6088 25.715 25.5989 25.7177C25.5889 25.7204 25.579 25.7232 25.569 25.7258C25.5591 25.7283 25.5491 25.7306 25.5392 25.733C25.5292 25.7355 25.5193 25.738 25.5093 25.7403L25.4795 25.7472L25.4496 25.7537C25.4397 25.7558 25.4298 25.7581 25.4198 25.7602C25.4099 25.7622 25.3999 25.764 25.3899 25.7659L25.3601 25.7716L25.3302 25.777C25.3203 25.7787 25.3104 25.7803 25.3004 25.7819C25.2904 25.7836 25.2805 25.7853 25.2705 25.7869C25.2606 25.7884 25.2506 25.7897 25.2407 25.7912L25.2108 25.7953C25.2009 25.7967 25.191 25.798 25.181 25.7993C25.1711 25.8005 25.1611 25.8015 25.1512 25.8027C25.1412 25.8038 25.1313 25.8051 25.1213 25.8061C25.1114 25.8071 25.1014 25.808 25.0915 25.809L25.0616 25.8117C25.0517 25.8125 25.0418 25.8135 25.0318 25.8143C25.0219 25.815 25.0119 25.8155 25.0019 25.8161L24.9721 25.818L24.9422 25.8196C24.9323 25.8201 24.9223 25.8204 24.9124 25.8207C24.9024 25.8211 24.8925 25.8216 24.8825 25.8219C24.8726 25.8221 24.8627 25.8222 24.8527 25.8224L24.8228 25.8228C24.8135 25.8229 24.8043 25.8232 24.795 25.8232H24.793H24.7631H24.7333H24.7034H24.6736H24.6438H24.6139H24.5841H24.5542H24.5244H24.4945H24.4647H24.4348H24.405H24.3752H24.3453H24.3155H24.2856H24.2558H24.2259H24.1961H24.1662H24.1364H24.1065H24.0767H24.0468H24.017H23.9871H23.9573H23.9274H23.8976H23.8678H23.8379H23.8081H23.7782H23.7484H23.7185H23.6887H23.6588H23.629H23.5991H23.5693H23.5395H23.5096H23.4798H23.4499H23.4201H23.3902H23.3604H23.3305H23.3007H23.2708H23.241H23.2111H23.1813H23.1514H23.1216H23.0918H23.0619H23.0321H23.0022H22.9724H22.9425H22.9127H22.8828H22.853H22.8231H22.7933H22.7634H22.7336H22.7037H22.6739H22.644H22.6142H22.5844H22.5545H22.5247H22.4948H22.465H22.4351H22.4053H22.3754H22.3456H22.3157H22.2859H22.256H22.2262H22.1963H22.1665H22.1367H22.1068H22.077H22.0471H22.0173H21.9874H21.9576H21.9277H21.8979H21.868H21.8382H21.8083H21.7785H21.7486H21.7188H21.689H21.6591H21.6293H21.5994H21.5696H21.5397H21.5099H21.48H21.4502H21.4203H21.3905H21.3606H21.3308H21.3009H21.2711H21.2412H21.2114H21.1816H21.1517H21.1219H21.092H21.0622H21.0324H21.0025H20.9727H20.9428H20.913H20.8831H20.8533H20.8234H20.7936H20.7637H20.7339H20.704H20.6742H20.6443H20.6145H20.5847H20.5548H20.525H20.4951H20.4653H20.4354H20.4056H20.3757H20.3459H20.316H20.252V18.6775C20.2729 18.6954 20.2943 18.7131 20.316 18.7307C20.3259 18.7387 20.3359 18.7466 20.3459 18.7545C20.3558 18.7622 20.3657 18.77 20.3757 18.7777C20.3856 18.7853 20.3955 18.7928 20.4056 18.8004C20.4154 18.8077 20.4254 18.815 20.4354 18.8223C20.4453 18.8294 20.4553 18.8366 20.4653 18.8437C20.4752 18.8507 20.4851 18.8577 20.4951 18.8647L20.525 18.8851C20.5348 18.8918 20.5448 18.8984 20.5548 18.9049L20.5847 18.9244C20.5945 18.9308 20.6045 18.9372 20.6145 18.9435C20.6243 18.9497 20.6344 18.9558 20.6443 18.9619L20.6742 18.9801C20.6841 18.986 20.694 18.992 20.704 18.9978C20.7139 19.0036 20.7239 19.0093 20.7339 19.015L20.7637 19.032L20.7936 19.0485L20.8234 19.0647C20.8333 19.07 20.8432 19.0753 20.8533 19.0806C20.8631 19.0857 20.8731 19.0908 20.8831 19.0959L20.913 19.1111L20.9428 19.1259L20.9727 19.1403C20.9826 19.1451 20.9925 19.1499 21.0025 19.1546L21.0324 19.1683L21.0622 19.182L21.092 19.1952L21.1219 19.2082L21.1517 19.2209L21.1816 19.2333L21.2114 19.2456L21.2412 19.2575L21.2711 19.2692L21.3009 19.2806C21.3109 19.2843 21.3208 19.2882 21.3308 19.2919L21.3606 19.3027C21.3706 19.3064 21.3805 19.31 21.3905 19.3136C21.4004 19.3171 21.4104 19.3205 21.4203 19.324L21.4502 19.3344L21.48 19.3444C21.49 19.3477 21.4998 19.3511 21.5099 19.3543C21.5197 19.3576 21.5298 19.3607 21.5397 19.3639L21.5696 19.3734L21.5994 19.3826L21.6293 19.3917L21.6591 19.4005L21.689 19.4093L21.7188 19.4177L21.7486 19.4261L21.7785 19.4342L21.8083 19.4421L21.8382 19.45L21.868 19.4575L21.8979 19.465L21.9277 19.4723L21.9576 19.4795L21.9874 19.4864L22.0173 19.4932L22.0471 19.4998L22.077 19.5064L22.1068 19.5128L22.1367 19.5189L22.1665 19.5251L22.1963 19.5309L22.2262 19.5367L22.256 19.5424L22.2859 19.5479L22.3157 19.5533L22.3456 19.5585L22.3754 19.5636L22.4053 19.5686L22.4351 19.5735L22.465 19.5783L22.4948 19.5828L22.5247 19.5874L22.5545 19.5917L22.5844 19.596L22.6142 19.6002L22.644 19.6041L22.6739 19.608L22.7037 19.6118L22.7336 19.6155L22.7634 19.6192L22.7933 19.6226L22.8231 19.6259L22.853 19.6293L22.8828 19.6323L22.9127 19.6354L22.9425 19.6384L22.9724 19.6412L23.0022 19.644L23.0321 19.6466L23.0619 19.6491L23.0918 19.6516L23.1216 19.6539L23.1514 19.6562L23.1813 19.6585L23.2111 19.6605L23.241 19.6625L23.2708 19.6645L23.3007 19.6662L23.3305 19.6679L23.3604 19.6696L23.3902 19.6711L23.4201 19.6726L23.4499 19.674L23.4798 19.6753L23.5096 19.6765L23.5395 19.6777L23.5693 19.6787L23.5991 19.6797L23.629 19.6806L23.6588 19.6814L23.6887 19.6821L23.7185 19.6829L23.7484 19.6834L23.7782 19.6839L23.8081 19.6844L23.8379 19.6847L23.8678 19.685L23.8976 19.6852L23.9274 19.6854L23.9573 19.6854L23.9871 19.6855L24.017 19.6854L24.0468 19.6852L24.0767 19.685L24.1065 19.6848L24.1364 19.6844L24.1662 19.684L24.1961 19.6836L24.2259 19.683L24.2558 19.6824L24.2856 19.6818L24.3155 19.681L24.3453 19.6802L24.3752 19.6793L24.405 19.6784L24.4348 19.6774L24.4647 19.6764L24.4945 19.6754L24.5244 19.6741L24.5542 19.6729L24.5841 19.6716L24.5987 19.671L24.6139 19.6703L24.6438 19.6688L24.6736 19.6673L24.7034 19.6656L24.7333 19.6638L24.7631 19.662L24.793 19.66L24.8228 19.6579L24.8527 19.6557L24.8825 19.6535L24.9124 19.6511L24.9422 19.6487L24.9721 19.6462L25.0019 19.6435L25.0318 19.6408L25.0616 19.638L25.0915 19.6352L25.1213 19.6322L25.1512 19.6292L25.181 19.626L25.2108 19.6228L25.2407 19.6195L25.2705 19.6162L25.3004 19.6127L25.3302 19.6092L25.3601 19.6056L25.3899 19.6019L25.4198 19.5982L25.4496 19.5944L25.4795 19.5906L25.5093 19.5866L25.5392 19.5826L25.569 19.5785L25.5989 19.5743L25.6287 19.5701L25.6585 19.5658L25.6884 19.5615L25.7182 19.557L25.7481 19.5525L25.7779 19.548L25.8078 19.5434L25.8376 19.5387L25.8675 19.5339L25.8973 19.5292L25.9272 19.5243L25.957 19.5194L25.9869 19.5144L26.0167 19.5093L26.0466 19.5042L26.0764 19.499L26.1062 19.4938L26.1361 19.4885L26.1659 19.4832L26.1958 19.4778L26.2256 19.4723L26.2555 19.4668L26.2853 19.4612L26.3152 19.4556L26.345 19.4499L26.3749 19.4441L26.4047 19.4383L26.4346 19.4324L26.4644 19.4265L26.4943 19.4205L26.5241 19.4145L26.5539 19.4084L26.5838 19.4022L26.6136 19.396L26.6435 19.3897L26.6733 19.3833L26.7032 19.3769L26.733 19.3705L26.7629 19.3639L26.7927 19.3573L26.8226 19.3506L26.8524 19.3439L26.8823 19.3371L26.9121 19.3301L26.942 19.3231L26.9718 19.3161L27.0017 19.3089L27.0313 19.3016V17.9924L27.0017 18.0071L26.9718 18.0219L26.942 18.0365L26.9121 18.0509L26.8823 18.0653L26.8524 18.0795L26.8226 18.0935L26.7927 18.1074L26.7629 18.1211L26.733 18.1347L26.7032 18.1482L26.6733 18.1615L26.6435 18.1746L26.6136 18.1876L26.5838 18.2004L26.5539 18.2131L26.5241 18.2257L26.4943 18.238L26.4644 18.2502L26.4346 18.2622L26.4047 18.2741L26.3749 18.2859L26.345 18.2974L26.3152 18.3088L26.2853 18.32L26.2555 18.331L26.2256 18.3419L26.1958 18.3526L26.1659 18.3631L26.1361 18.3735L26.1062 18.3837L26.0764 18.3937L26.0466 18.4036L26.0167 18.4133L25.9869 18.4228L25.957 18.4322L25.9272 18.4413L25.8973 18.4503L25.8675 18.4592L25.8376 18.4679L25.8078 18.4764L25.7779 18.4847L25.7481 18.4928L25.7182 18.5008L25.6884 18.5087L25.6585 18.5163L25.6287 18.5238L25.5989 18.5311L25.569 18.5383L25.5392 18.5453L25.5093 18.552L25.4795 18.5587L25.4496 18.5652L25.4198 18.5715L25.3899 18.5776L25.3601 18.5836L25.3302 18.5895L25.3004 18.5951L25.2705 18.6005L25.2407 18.6059L25.2108 18.611L25.181 18.616L25.1512 18.6208L25.1213 18.6255L25.0915 18.63L25.0616 18.6343L25.0318 18.6385L25.0019 18.6426L24.9721 18.6464L24.9422 18.6501L24.9124 18.6537L24.8825 18.657L24.8527 18.6603L24.8228 18.6634L24.793 18.6662L24.7631 18.669L24.7333 18.6716L24.7034 18.6741L24.6854 18.6755L24.6736 18.6763L24.6438 18.6783L24.6139 18.6803L24.5841 18.6819L24.5542 18.6834L24.5244 18.6848L24.4945 18.6857L24.4647 18.6867L24.4348 18.6873L24.405 18.6878L24.3752 18.6882C24.3651 18.6882 24.3553 18.6881 24.3453 18.6881L24.3155 18.688L24.2856 18.6875L24.2558 18.6869L24.2259 18.6861C24.2159 18.6858 24.206 18.6853 24.1961 18.6849C24.1861 18.6845 24.1761 18.6842 24.1662 18.6837L24.1364 18.682L24.1065 18.6802L24.0767 18.6782L24.0468 18.6758C24.0369 18.675 24.0269 18.6743 24.017 18.6734C24.007 18.6725 23.9971 18.6714 23.9871 18.6704L23.9573 18.6674L23.9274 18.6639L23.8976 18.6603L23.8678 18.6564L23.8379 18.6521C23.8279 18.6507 23.818 18.6493 23.8081 18.6477C23.7981 18.6461 23.7881 18.6444 23.7782 18.6428C23.7683 18.6411 23.7582 18.6396 23.7484 18.6378C23.7383 18.636 23.7285 18.6341 23.7185 18.6322C23.7086 18.6304 23.6985 18.6286 23.6887 18.6267C23.6786 18.6247 23.6688 18.6225 23.6588 18.6204C23.6489 18.6183 23.6389 18.6163 23.629 18.6142C23.619 18.612 23.6091 18.6096 23.5991 18.6073L23.5693 18.6003C23.5593 18.5979 23.5494 18.5953 23.5395 18.5928C23.5295 18.5902 23.5195 18.5877 23.5096 18.585C23.4996 18.5824 23.4897 18.5796 23.4798 18.5768C23.4698 18.574 23.4598 18.5712 23.4499 18.5683C23.4399 18.5653 23.43 18.5623 23.4201 18.5592C23.4101 18.5562 23.4001 18.5531 23.3902 18.5499C23.3802 18.5467 23.3703 18.5434 23.3604 18.5401C23.3504 18.5367 23.3404 18.5334 23.3305 18.53C23.3205 18.5265 23.3106 18.5228 23.3007 18.5192C23.2907 18.5156 23.2807 18.512 23.2708 18.5082C23.2608 18.5044 23.2509 18.5005 23.241 18.4965C23.231 18.4926 23.221 18.4887 23.2111 18.4847C23.2011 18.4805 23.1912 18.4762 23.1813 18.472C23.1713 18.4677 23.1613 18.4634 23.1514 18.459C23.1414 18.4545 23.1315 18.4499 23.1216 18.4453C23.1116 18.4406 23.1016 18.436 23.0918 18.4312C23.0817 18.4264 23.0718 18.4214 23.0619 18.4165C23.0519 18.4114 23.0419 18.4063 23.0321 18.4011C23.0221 18.3959 23.012 18.3907 23.0022 18.3853C22.9921 18.3799 22.9823 18.3742 22.9724 18.3686C22.9624 18.3629 22.9524 18.3573 22.9425 18.3515C22.9325 18.3456 22.9226 18.3395 22.9127 18.3335C22.9026 18.3273 22.8927 18.321 22.8828 18.3148C22.8728 18.3084 22.8628 18.3021 22.853 18.2955C22.8429 18.2889 22.833 18.282 22.8231 18.2751C22.8131 18.2682 22.8031 18.2611 22.7933 18.254C22.7833 18.2468 22.7733 18.2396 22.7634 18.2322C22.7534 18.2247 22.7435 18.2169 22.7336 18.2092C22.7235 18.2013 22.7136 18.1934 22.7037 18.1853C22.6937 18.1771 22.6837 18.169 22.6739 18.1606C22.6638 18.152 22.6539 18.1432 22.644 18.1344C22.634 18.1254 22.6241 18.1163 22.6142 18.1071C22.6042 18.0977 22.5942 18.0882 22.5844 18.0786C22.5743 18.0688 22.5643 18.059 22.5545 18.049C22.5444 18.0387 22.5345 18.0281 22.5247 18.0175C22.5145 18.0066 22.5046 17.9956 22.4948 17.9845C22.4847 17.973 22.4748 17.9615 22.465 17.9498C22.4549 17.9378 22.4449 17.9256 22.4351 17.9133C22.425 17.9006 22.415 17.8877 22.4053 17.8747C22.3952 17.8612 22.3852 17.8476 22.3754 17.8338C22.3653 17.8195 22.3553 17.805 22.3456 17.7903C22.3354 17.775 22.3255 17.7595 22.3157 17.7438C22.3055 17.7274 22.2956 17.7107 22.2859 17.6939C22.2756 17.6762 22.2657 17.6582 22.256 17.6401C22.2458 17.6209 22.2358 17.6013 22.2262 17.5816C22.2159 17.5606 22.2059 17.5394 22.1963 17.5178C22.186 17.4947 22.176 17.4713 22.1665 17.4475C22.156 17.4213 22.1462 17.3945 22.1367 17.3675C22.1261 17.3375 22.1161 17.3071 22.1068 17.2762C22.096 17.2404 22.0861 17.204 22.077 17.1669C22.0657 17.1209 22.0558 17.0738 22.0471 17.0259C22.0343 16.9548 22.0242 16.8818 22.0173 16.8068C22.0092 16.7201 22.0051 16.6309 22.0051 16.539C22.0051 16.4472 22.0092 16.3579 22.0173 16.2712C22.0242 16.1961 22.0343 16.1231 22.0471 16.0519C22.0558 16.004 22.0657 15.9569 22.077 15.9108C22.0861 15.8737 22.096 15.8373 22.1068 15.8015C22.1161 15.7706 22.1261 15.7402 22.1367 15.7102C22.1462 15.6831 22.156 15.6563 22.1665 15.63C22.176 15.6062 22.186 15.5829 22.1963 15.5597C22.2059 15.5382 22.2159 15.5169 22.2262 15.4959C22.2358 15.4762 22.2458 15.4566 22.256 15.4374C22.2657 15.4192 22.2756 15.4013 22.2859 15.3835C22.2956 15.3667 22.3055 15.35 22.3157 15.3336C22.3255 15.3179 22.3354 15.3024 22.3456 15.2871C22.3553 15.2724 22.3653 15.2579 22.3754 15.2436C22.3852 15.2298 22.3952 15.2162 22.4053 15.2027C22.415 15.1897 22.425 15.1768 22.4351 15.1641C22.4449 15.1518 22.4549 15.1396 22.465 15.1276C22.4748 15.1159 22.4847 15.1043 22.4948 15.0929C22.5046 15.0817 22.5145 15.0707 22.5247 15.0598C22.5345 15.0492 22.5444 15.0386 22.5545 15.0283C22.5643 15.0183 22.5743 15.0084 22.5844 14.9986C22.5942 14.989 22.6042 14.9796 22.6142 14.9702C22.6241 14.961 22.634 14.9519 22.644 14.9429C22.6539 14.9341 22.6638 14.9253 22.6739 14.9167C22.6837 14.9083 22.6937 14.9001 22.7037 14.8919C22.7136 14.8839 22.7235 14.8759 22.7336 14.8681C22.7435 14.8603 22.7534 14.8525 22.7634 14.845C22.7733 14.8376 22.7833 14.8304 22.7933 14.8232C22.8031 14.816 22.8131 14.8091 22.8231 14.8021C22.833 14.7952 22.8429 14.7883 22.853 14.7816C22.8628 14.7751 22.8728 14.7688 22.8828 14.7624C22.8927 14.7561 22.9026 14.7498 22.9127 14.7437C22.9226 14.7376 22.9325 14.7316 22.9425 14.7257C22.9524 14.7199 22.9624 14.7142 22.9724 14.7086C22.9823 14.7029 22.9921 14.6973 23.0022 14.6918C23.012 14.6865 23.0221 14.6813 23.0321 14.676C23.0419 14.6709 23.0519 14.6657 23.0619 14.6607C23.0718 14.6557 23.0817 14.6508 23.0918 14.6459C23.1016 14.6411 23.1116 14.6365 23.1216 14.6318C23.1315 14.6272 23.1414 14.6226 23.1514 14.6181C23.1613 14.6137 23.1713 14.6095 23.1813 14.6052C23.1912 14.6009 23.2011 14.5966 23.2111 14.5924C23.221 14.5884 23.231 14.5845 23.241 14.5806C23.2509 14.5766 23.2608 14.5727 23.2708 14.5689C23.2807 14.5651 23.2907 14.5615 23.3007 14.5579C23.3106 14.5543 23.3205 14.5506 23.3305 14.5471C23.3404 14.5437 23.3504 14.5403 23.3604 14.537C23.3703 14.5337 23.3802 14.5304 23.3902 14.5271C23.4001 14.524 23.4101 14.5209 23.4201 14.5178C23.43 14.5148 23.4399 14.5118 23.4499 14.5088L23.4798 14.5003C23.4897 14.4975 23.4996 14.4947 23.5096 14.492C23.5195 14.4894 23.5295 14.4869 23.5395 14.4843C23.5494 14.4818 23.5593 14.4792 23.5693 14.4768L23.5991 14.4698C23.6091 14.4675 23.619 14.4651 23.629 14.4629C23.6389 14.4607 23.6489 14.4587 23.6588 14.4566C23.6688 14.4545 23.6786 14.4524 23.6887 14.4504C23.6985 14.4484 23.7086 14.4467 23.7185 14.4448C23.7285 14.443 23.7383 14.441 23.7484 14.4392C23.7582 14.4375 23.7683 14.4359 23.7782 14.4343C23.7881 14.4326 23.7981 14.4309 23.8081 14.4293L23.8379 14.4249L23.8678 14.4206L23.8976 14.4167L23.9274 14.4131L23.9573 14.4096L23.9871 14.4066C23.9971 14.4056 24.007 14.4046 24.017 14.4036C24.0269 14.4027 24.0369 14.402 24.0468 14.4012L24.0767 14.3988L24.1065 14.3968L24.1364 14.395L24.1662 14.3933C24.1761 14.3928 24.1861 14.3925 24.1961 14.3921C24.206 14.3917 24.2159 14.3912 24.2259 14.3909L24.2558 14.3901L24.2856 14.3895L24.3155 14.3891L24.3453 14.389C24.3553 14.3889 24.3651 14.3888 24.3752 14.3889L24.405 14.3892L24.4348 14.3897L24.4647 14.3903L24.4945 14.3913L24.5244 14.3922L24.5542 14.3936L24.5841 14.3951L24.6139 14.3968L24.6438 14.3987L24.6736 14.4007L24.6854 14.4015L24.7034 14.403L24.7333 14.4053L24.7631 14.4079L24.793 14.4106L24.8228 14.4135L24.8527 14.4165L24.8825 14.4197L24.9124 14.423L24.9422 14.4265L24.9721 14.4302L25.0019 14.434L25.0318 14.438L25.0616 14.4421L25.0915 14.4464L25.1213 14.4508L25.1512 14.4554L25.181 14.4602L25.2108 14.4651L25.2407 14.4702L25.2705 14.4755L25.3004 14.4809L25.3302 14.4865L25.3601 14.4923L25.3899 14.4982L25.4198 14.5043L25.4496 14.5105L25.4795 14.517L25.5093 14.5236L25.5392 14.5303L25.569 14.5373L25.5989 14.5444L25.6287 14.5517L25.6585 14.5591L25.6884 14.5667L25.7182 14.5745L25.7481 14.5825L25.7779 14.5906L25.8078 14.5989L25.8376 14.6074L25.8675 14.6161L25.8973 14.6249L25.9272 14.6339L25.957 14.6431L25.9869 14.6524L26.0167 14.6619L26.0466 14.6716L26.0764 14.6815L26.1062 14.6916L26.1361 14.7018L26.1659 14.7122L26.1958 14.7227L26.2256 14.7335L26.2555 14.7444L26.2853 14.7555L26.3152 14.7667L26.345 14.7782L26.3749 14.7898L26.4047 14.8015L26.4346 14.8135L26.4644 14.8256L26.4943 14.8378L26.5241 14.8503L26.5539 14.8629L26.5838 14.8757L26.6136 14.8886L26.6435 14.9017L26.6733 14.9149L26.7032 14.9283L26.733 14.9419L26.7629 14.9556L26.7927 14.9695L26.8226 14.9835L26.8524 14.9977L26.8823 15.012L26.9121 15.0265L26.942 15.0411L26.9718 15.0558L27.0017 15.0707L27.0313 15.0856V13.7755L27.0017 13.7681L26.9718 13.761L26.942 13.7539L26.9121 13.7469L26.8823 13.74L26.8524 13.7332L26.8226 13.7264L26.7927 13.7197L26.7629 13.7131L26.733 13.7066L26.7032 13.7001L26.6733 13.6937L26.6435 13.6873L26.6136 13.6811L26.5838 13.6749L26.5539 13.6687L26.5241 13.6626L26.4943 13.6565L26.4644 13.6505L26.4346 13.6446L26.4047 13.6388L26.3749 13.6329L26.345 13.6272L26.3152 13.6215L26.2853 13.6159L26.2555 13.6103L26.2256 13.6048L26.1958 13.5993L26.1659 13.5939L26.1361 13.5886L26.1062 13.5833L26.0764 13.5781L26.0466 13.5729L26.0167 13.5678L25.9869 13.5628L25.957 13.5578L25.9272 13.5529L25.8973 13.548L25.8675 13.5433L25.8376 13.5385L25.8078 13.5339L25.7779 13.5292L25.7481 13.5247L25.7182 13.5202L25.6884 13.5158L25.6585 13.5114L25.6287 13.5072L25.5989 13.503L25.569 13.4988L25.5392 13.4947L25.5093 13.4907L25.4795 13.4868L25.4496 13.4829L25.4198 13.4791L25.3899 13.4754L25.3601 13.4717L25.3302 13.4681L25.3004 13.4647L25.2705 13.4612L25.2407 13.4579L25.2108 13.4546L25.181 13.4514L25.1512 13.4483L25.1213 13.4453L25.0915 13.4423L25.0616 13.4394L25.0318 13.4366L25.0019 13.434L24.9721 13.4313L24.9422 13.4288L24.9124 13.4264L24.8825 13.424L24.8527 13.4218L24.8228 13.4196L24.793 13.4176L24.7631 13.4156L24.7333 13.4138L24.7034 13.412L24.6736 13.4104L24.6438 13.4088L24.6139 13.4074L24.5987 13.4067L24.5841 13.4061L24.5542 13.4048L24.5244 13.4036L24.4945 13.4023L24.4647 13.4013L24.4348 13.4003L24.405 13.3992L24.3752 13.3984L24.3453 13.3975L24.3155 13.3967L24.2856 13.3959L24.2558 13.3953L24.2259 13.3947L24.1961 13.3941L24.1662 13.3937L24.1364 13.3933L24.1065 13.3929L24.0767 13.3927L24.0468 13.3925L24.017 13.3923L23.9871 13.3923L23.9573 13.3923L23.9274 13.3924L23.8976 13.3925L23.8678 13.3927L23.8379 13.393L23.8081 13.3933L23.7782 13.3938L23.7484 13.3943L23.7185 13.3949L23.6887 13.3956L23.6588 13.3963L23.629 13.3971L23.5991 13.3981L23.5693 13.399L23.5395 13.4L23.5096 13.4012L23.4798 13.4025L23.4499 13.4037L23.4201 13.4052L23.3902 13.4066L23.3604 13.4081L23.3305 13.4098L23.3007 13.4115L23.2708 13.4133L23.241 13.4153L23.2111 13.4173L23.1813 13.4193L23.1514 13.4215L23.1216 13.4238L23.0918 13.4261L23.0619 13.4287L23.0321 13.4312L23.0022 13.4338L22.9724 13.4366L22.9425 13.4394L22.9127 13.4424L22.8828 13.4455L22.853 13.4485L22.8231 13.4519L22.7933 13.4552L22.7634 13.4586L22.7336 13.4623L22.7037 13.4659L22.6739 13.4698L22.644 13.4737L22.6142 13.4777L22.5844 13.4819L22.5545 13.4861L22.5247 13.4905L22.4948 13.495L22.465 13.4995L22.4351 13.5043L22.4053 13.5092L22.3754 13.5142L22.3456 13.5193L22.3157 13.5245L22.2859 13.53L22.256 13.5355L22.2262 13.5411L22.1963 13.547L22.1665 13.5528L22.1367 13.559L22.1068 13.5651L22.077 13.5715L22.0471 13.578L22.0173 13.5847L21.9874 13.5915L21.9576 13.5984L21.9277 13.6056L21.8979 13.6129L21.868 13.6204L21.8382 13.628L21.8083 13.6358L21.7785 13.6438L21.7486 13.6519L21.7188 13.6602L21.689 13.6687L21.6591 13.6774L21.6293 13.6862L21.5994 13.6954L21.5696 13.7045L21.5397 13.7141C21.5298 13.7173 21.5197 13.7204 21.5099 13.7237L21.48 13.7336C21.4701 13.7369 21.4601 13.7402 21.4502 13.7436L21.4203 13.754L21.3905 13.7644C21.3805 13.768 21.3706 13.7717 21.3606 13.7753C21.3507 13.7789 21.3407 13.7825 21.3308 13.7861L21.3009 13.7975C21.291 13.8012 21.281 13.805 21.2711 13.8088L21.2412 13.8206L21.2114 13.8325L21.1816 13.8447L21.1517 13.8571L21.1219 13.8699L21.092 13.8829L21.0622 13.8961L21.0324 13.9098L21.0025 13.9235C20.9925 13.9282 20.9826 13.933 20.9727 13.9378L20.9428 13.9522L20.913 13.9671L20.8831 13.9822C20.8731 13.9873 20.8631 13.9924 20.8533 13.9976C20.8432 14.0028 20.8333 14.0082 20.8234 14.0135L20.7936 14.0296L20.7637 14.0462C20.7537 14.0518 20.7438 14.0574 20.7339 14.0631C20.7239 14.0689 20.7139 14.0746 20.704 14.0803C20.694 14.0862 20.6841 14.0922 20.6742 14.0981C20.6642 14.1041 20.6542 14.1102 20.6443 14.1163C20.6344 14.1224 20.6243 14.1285 20.6145 14.1347C20.6045 14.1411 20.5945 14.1474 20.5847 14.1538L20.5548 14.1733C20.5448 14.1799 20.5348 14.1865 20.525 14.1931L20.4951 14.2136C20.4851 14.2206 20.4752 14.2276 20.4653 14.2346C20.4553 14.2417 20.4453 14.2488 20.4354 14.256C20.4254 14.2633 20.4154 14.2706 20.4056 14.2779C20.3955 14.2854 20.3856 14.293 20.3757 14.3006C20.3657 14.3083 20.3558 14.3161 20.3459 14.3238C20.3359 14.3317 20.3259 14.3396 20.316 14.3476V14.3476Z" fill="#CA4638"/>
</svg>
