<svg width="48" height="32" viewBox="0 0 48 32" fill="none" xmlns="http://www.w3.org/2000/svg">
<path d="M0 5.33333C0 2.38782 2.38781 0 5.33333 0H42.6667C45.6122 0 48 2.38781 48 5.33333V26.6667C48 29.6122 45.6122 32 42.6667 32H5.33333C2.38781 32 0 29.6122 0 26.6667V5.33333Z" fill="white"/>
<path fill-rule="evenodd" clip-rule="evenodd" d="M20.2228 10.2248L18.1792 22.7838H21.4488L23.4926 10.2248H20.2228V10.2248ZM15.4283 10.2248L12.311 18.8628L11.9423 17.0027L11.9425 17.0033L11.8613 16.5864C11.484 15.7734 10.6102 14.228 8.96033 12.9092C8.47254 12.5194 7.98083 12.1867 7.50549 11.9026L10.3386 22.7838H13.7452L18.9474 10.2248H15.4283V10.2248ZM28.1888 13.7114C28.1888 12.2915 31.3731 12.474 32.7723 13.245L33.2388 10.5476C33.2388 10.5476 31.7989 10 30.298 10C28.6753 10 24.8222 10.7096 24.8222 14.1576C24.8222 17.4026 29.3446 17.4429 29.3446 19.1465C29.3446 20.8502 25.2885 20.5457 23.9499 19.471L23.4634 22.2904C23.4634 22.2904 24.9233 23 27.1545 23C29.3854 23 32.7519 21.8442 32.7519 18.7004C32.7519 15.4351 28.1888 15.131 28.1888 13.7114ZM41.531 10.2248H38.9022C37.6883 10.2248 37.3927 11.1607 37.3927 11.1607L32.5168 22.7838H35.9247L36.6064 20.9185H40.763L41.1465 22.7838H44.1487L41.531 10.2248ZM37.5486 18.3412L39.2667 13.6413L40.2333 18.3412H37.5486Z" fill="#005BAC"/>
<path fill-rule="evenodd" clip-rule="evenodd" d="M10.8906 11.4069C10.8906 11.4069 10.7552 10.2734 9.31041 10.2734H4.06124L3.99976 10.4865C3.99976 10.4865 6.52292 11.0008 8.94359 12.9278C11.2569 14.7696 12.0115 17.0655 12.0115 17.0655L10.8906 11.4069Z" fill="#F6AC1D"/>
</svg>
