<svg width="48" height="32" viewBox="0 0 48 32" fill="none" xmlns="http://www.w3.org/2000/svg">
<path d="M0 5.33333C0 2.38782 2.38781 0 5.33333 0H42.6667C45.6122 0 48 2.38781 48 5.33333V26.6667C48 29.6122 45.6122 32 42.6667 32H5.33333C2.38781 32 0 29.6122 0 26.6667V5.33333Z" fill="white"/>
<path d="M19.6016 25C24.5721 25 28.6016 20.9706 28.6016 16C28.6016 11.0294 24.5721 7 19.6016 7C14.631 7 10.6016 11.0294 10.6016 16C10.6016 20.9706 14.631 25 19.6016 25Z" fill="#F93232"/>
<path d="M30.4023 7C28.3809 7 26.5215 7.675 25.0203 8.8H25.0023V8.8126C24.6459 9.0808 24.3183 9.3832 24.006 9.7H25.9986C26.2758 9.9817 26.5314 10.2832 26.7681 10.6H23.2293C23.0115 10.8871 22.8117 11.1868 22.629 11.5H27.3666C27.5358 11.7916 27.6951 12.0886 27.8328 12.4H22.1709C22.0422 12.6925 21.9288 12.9922 21.8316 13.3H28.1712C28.2648 13.5934 28.3386 13.8949 28.4034 14.2H21.5967C21.5364 14.4952 21.486 14.794 21.4554 15.1H28.5483C28.5834 15.3952 28.6023 15.6949 28.6023 16H21.4023C21.4023 16.3051 21.4266 16.603 21.4563 16.9H28.5501C28.5159 17.2051 28.4664 17.5048 28.4043 17.8H21.5976C21.6597 18.1069 21.7398 18.4057 21.8325 18.7H28.1721C28.0749 19.0078 27.9615 19.3075 27.8328 19.6H22.1709C22.3068 19.9096 22.4598 20.2102 22.629 20.5H27.3666C27.1848 20.8132 26.9823 21.1129 26.7645 21.4H23.2293C23.4687 21.7168 23.727 22.0183 24.0051 22.3H25.9986C25.6854 22.6177 25.3587 22.9192 25.0023 23.1874C26.5071 24.3205 28.3728 25 30.4023 25C35.373 25 39.4023 20.9698 39.4023 16C39.4023 11.0302 35.373 7 30.4023 7Z" fill="#FED049"/>
</svg>
