<svg width="48" height="32" viewBox="0 0 48 32" fill="none" xmlns="http://www.w3.org/2000/svg">
<path d="M0 5.33333C0 2.38782 2.38781 0 5.33333 0H42.6667C45.6122 0 48 2.38781 48 5.33333V26.6667C48 29.6122 45.6122 32 42.6667 32H5.33333C2.38781 32 0 29.6122 0 26.6667V5.33333Z" fill="white"/>
<path fill-rule="evenodd" clip-rule="evenodd" d="M20.2232 10.2248L18.1796 22.7838H21.4491L23.493 10.2248H20.2232ZM15.4287 10.2248L12.3114 18.8628L11.9427 17.0027L11.9429 17.0033L11.8617 16.5864C11.4844 15.7734 10.6106 14.228 8.9607 12.9092C8.47291 12.5194 7.9812 12.1867 7.50586 11.9026L10.339 22.7838H13.7456L18.9477 10.2248H15.4287ZM28.1892 13.7114C28.1892 12.2915 31.3735 12.474 32.7726 13.245L33.2392 10.5476C33.2392 10.5476 31.7992 10 30.2983 10C28.6757 10 24.8226 10.7096 24.8226 14.1576C24.8226 17.4026 29.345 17.4429 29.345 19.1465C29.345 20.8502 25.2888 20.5457 23.9503 19.471L23.4638 22.2904C23.4638 22.2904 24.9237 23 27.1548 23C29.3857 23 32.7523 21.8442 32.7523 18.7004C32.7523 15.4351 28.1892 15.131 28.1892 13.7114ZM41.5314 10.2248H38.9026C37.6887 10.2248 37.3931 11.1607 37.3931 11.1607L32.5171 22.7838H35.925L36.6068 20.9185H40.7634L41.1469 22.7838H44.149L41.5314 10.2248ZM37.549 18.3412L39.2671 13.6413L40.2336 18.3412H37.549Z" fill="#005BAC"/>
<path fill-rule="evenodd" clip-rule="evenodd" d="M10.8908 11.4069C10.8908 11.4069 10.7555 10.2734 9.31066 10.2734H4.06149L4 10.4865C4 10.4865 6.52317 11.0008 8.94383 12.9279C11.2571 14.7696 12.0117 17.0655 12.0117 17.0655L10.8908 11.4069Z" fill="#F6AC1D"/>
</svg>
