<svg width="48" height="32" viewBox="0 0 48 32" fill="none" xmlns="http://www.w3.org/2000/svg">
<path d="M0 5.33333C0 2.38782 2.38781 0 5.33333 0H42.6667C45.6122 0 48 2.38781 48 5.33333V26.6667C48 29.6122 45.6122 32 42.6667 32H5.33333C2.38781 32 0 29.6122 0 26.6667V5.33333Z" fill="white"/>
<g clip-path="url(#clip0_3032_24075)">
<path fill-rule="evenodd" clip-rule="evenodd" d="M38.9565 5C37.1965 5 18.5627 5 8.15648 5C7.27648 5 6.39648 5.88 6.39648 6.76V24.36C6.39648 26.12 7.27648 27 9.03648 27C18.8536 27 37.1965 27 38.9565 27C40.7165 27 41.5965 26.12 41.5965 24.36V7.64C41.5965 5.88 40.7165 5 38.9565 5Z" fill="#F4F4F4"/>
<path fill-rule="evenodd" clip-rule="evenodd" d="M17.2949 27.0002C26.7518 27.0002 37.6209 27.0002 38.9555 27.0002C40.7155 27.0002 41.5955 26.1202 41.5955 24.3602V13.8945C41.5955 13.8945 36.3505 23.1289 17.2949 27.0002Z" fill="#D97B16"/>
<path fill-rule="evenodd" clip-rule="evenodd" d="M17.8457 15.762H18.162L19.1411 17.2231H19.1461V15.762H19.3871V17.5394H19.0809L18.0917 16.0783H18.0867V17.5394H17.8457V15.762ZM19.844 15.762H20.9913V15.9879H20.0851V16.5176H20.9286V16.7436H20.0851V17.3135H21.0365V17.5394H19.844V15.762ZM21.7495 15.9879H21.1771V15.762H22.5629V15.9879H21.9905V17.5394H21.7495V15.9879ZM22.593 15.762H22.8441L23.2357 17.1829H23.2407L23.66 15.762H23.9361L24.3554 17.1829H24.3604L24.752 15.762H25.0031L24.4859 17.5394H24.2324L23.8006 16.0883H23.7955L23.3663 17.5394H23.1127L22.593 15.762ZM26.05 17.5846C25.9144 17.5846 25.7897 17.5607 25.6759 17.513C25.5621 17.4653 25.4646 17.3997 25.3834 17.316C25.3023 17.2323 25.2387 17.1335 25.1926 17.0197C25.1466 16.9059 25.1236 16.7829 25.1236 16.6507C25.1236 16.5185 25.1466 16.3955 25.1926 16.2817C25.2387 16.1678 25.3023 16.0691 25.3834 15.9854C25.4646 15.9017 25.5621 15.836 25.6759 15.7883C25.7897 15.7406 25.9144 15.7168 26.05 15.7168C26.1855 15.7168 26.3102 15.7406 26.424 15.7883C26.5378 15.836 26.6353 15.9017 26.7165 15.9854C26.7977 16.0691 26.8613 16.1678 26.9073 16.2817C26.9533 16.3955 26.9763 16.5185 26.9763 16.6507C26.9763 16.7829 26.9533 16.9059 26.9073 17.0197C26.8613 17.1335 26.7977 17.2323 26.7165 17.316C26.6353 17.3997 26.5378 17.4653 26.424 17.513C26.3102 17.5607 26.1855 17.5846 26.05 17.5846ZM26.05 17.3587C26.1521 17.3587 26.2441 17.3398 26.3261 17.3022C26.4081 17.2645 26.4784 17.2139 26.537 17.1503C26.5956 17.0867 26.6408 17.0118 26.6726 16.9256C26.7044 16.8394 26.7203 16.7478 26.7203 16.6507C26.7203 16.5536 26.7044 16.462 26.6726 16.3758C26.6408 16.2896 26.5956 16.2147 26.537 16.1511C26.4784 16.0875 26.4081 16.0369 26.3261 15.9992C26.2441 15.9616 26.1521 15.9427 26.05 15.9427C25.9479 15.9427 25.8558 15.9616 25.7738 15.9992C25.6918 16.0369 25.6215 16.0875 25.5629 16.1511C25.5043 16.2147 25.4592 16.2896 25.4274 16.3758C25.3956 16.462 25.3797 16.5536 25.3797 16.6507C25.3797 16.7478 25.3956 16.8394 25.4274 16.9256C25.4592 17.0118 25.5043 17.0867 25.5629 17.1503C25.6215 17.2139 25.6918 17.2645 25.7738 17.3022C25.8558 17.3398 25.9479 17.3587 26.05 17.3587C26.05 17.3587 25.9479 17.3587 26.05 17.3587ZM27.3228 15.762H27.9479C28.0617 15.762 28.1554 15.7775 28.2291 15.8084C28.3027 15.8394 28.3609 15.8787 28.4035 15.9264C28.4462 15.9741 28.4759 16.0277 28.4927 16.0871C28.5094 16.1465 28.5178 16.2038 28.5178 16.2591C28.5178 16.316 28.5077 16.3708 28.4876 16.4235C28.4675 16.4762 28.4387 16.5239 28.401 16.5666C28.3634 16.6093 28.3173 16.6453 28.2629 16.6745C28.2086 16.7038 28.1479 16.7218 28.0809 16.7285L28.5855 17.5394H28.2843L27.8324 16.7561H27.5638V17.5394H27.3228V15.762ZM27.5638 16.5453H27.8801C27.927 16.5453 27.9734 16.5415 28.0194 16.534C28.0655 16.5264 28.1065 16.5126 28.1424 16.4925C28.1784 16.4725 28.2073 16.4436 28.2291 16.4059C28.2508 16.3683 28.2617 16.3193 28.2617 16.2591C28.2617 16.1988 28.2508 16.1499 28.2291 16.1122C28.2073 16.0745 28.1784 16.0457 28.1424 16.0256C28.1065 16.0055 28.0655 15.9917 28.0194 15.9842C27.9734 15.9766 27.927 15.9729 27.8801 15.9729H27.5638V16.5453ZM28.8567 15.762H29.0977V16.5302H29.1178L29.9035 15.762H30.2399L29.3814 16.5829L30.2977 17.5394H29.9462L29.1178 16.6507H29.0977V17.5394H28.8567V15.762Z" fill="black"/>
<path fill-rule="evenodd" clip-rule="evenodd" d="M9.50586 10.2554H11.1631C11.4403 10.2554 11.7076 10.2979 11.965 10.3831C12.2224 10.4682 12.4501 10.5979 12.6481 10.7721C12.8461 10.9464 13.0045 11.1652 13.1233 11.4285C13.2421 11.6918 13.3015 12.0017 13.3015 12.3581C13.3015 12.7185 13.2332 13.0303 13.0966 13.2937C12.96 13.557 12.7838 13.7748 12.5679 13.9471C12.3521 14.1193 12.1125 14.248 11.8492 14.3332C11.5858 14.4183 11.3275 14.4609 11.074 14.4609H9.50586V10.2554ZM10.8127 13.7837C11.0463 13.7837 11.2671 13.757 11.475 13.7035C11.6829 13.6501 11.864 13.5669 12.0185 13.454C12.1729 13.3412 12.2947 13.1947 12.3838 13.0145C12.4729 12.8343 12.5174 12.6155 12.5174 12.3581C12.5174 12.1047 12.4778 11.8869 12.3986 11.7047C12.3194 11.5226 12.2096 11.375 12.069 11.2622C11.9284 11.1493 11.7621 11.0662 11.57 11.0127C11.3779 10.9592 11.1671 10.9325 10.9374 10.9325H10.2543V13.7837H10.8127ZM13.9965 10.2554H14.7449V14.4609H13.9965V10.2554ZM17.7268 11.1582C17.6476 11.0434 17.5417 10.9592 17.409 10.9058C17.2764 10.8523 17.1368 10.8256 16.9903 10.8256C16.9031 10.8256 16.819 10.8355 16.7378 10.8553C16.6566 10.8751 16.5834 10.9068 16.518 10.9503C16.4527 10.9939 16.4002 11.0503 16.3606 11.1196C16.321 11.1889 16.3012 11.2711 16.3012 11.3661C16.3012 11.5087 16.3507 11.6176 16.4497 11.6928C16.5487 11.7681 16.6715 11.8334 16.818 11.8889C16.9645 11.9443 17.1249 11.9978 17.2991 12.0492C17.4734 12.1007 17.6338 12.172 17.7803 12.2631C17.9268 12.3542 18.0496 12.4749 18.1486 12.6254C18.2476 12.7759 18.2971 12.9759 18.2971 13.2254C18.2971 13.4511 18.2555 13.6481 18.1723 13.8164C18.0892 13.9847 17.9773 14.1243 17.8367 14.2352C17.6961 14.346 17.5328 14.4292 17.3467 14.4846C17.1605 14.5401 16.9645 14.5678 16.7586 14.5678C16.4972 14.5678 16.2458 14.5242 16.0042 14.4371C15.7627 14.35 15.5548 14.2035 15.3805 13.9976L15.9448 13.4511C16.0359 13.5897 16.1557 13.6976 16.3042 13.7748C16.4527 13.852 16.6101 13.8906 16.7764 13.8906C16.8635 13.8906 16.9507 13.8788 17.0378 13.855C17.1249 13.8312 17.2041 13.7956 17.2754 13.7481C17.3467 13.7006 17.4041 13.6402 17.4476 13.5669C17.4912 13.4936 17.513 13.4095 17.513 13.3145C17.513 13.16 17.4635 13.0412 17.3645 12.9581C17.2655 12.8749 17.1427 12.8046 16.9962 12.7472C16.8497 12.6898 16.6893 12.6353 16.5151 12.5838C16.3408 12.5324 16.1804 12.4621 16.0339 12.373C15.8874 12.2839 15.7646 12.1651 15.6656 12.0166C15.5666 11.8681 15.5171 11.6691 15.5171 11.4196C15.5171 11.2018 15.5617 11.0137 15.6508 10.8553C15.7399 10.6969 15.8567 10.5652 16.0013 10.4603C16.1458 10.3553 16.3111 10.2771 16.4972 10.2257C16.6834 10.1742 16.8734 10.1484 17.0675 10.1484C17.2892 10.1484 17.5041 10.1821 17.712 10.2494C17.9199 10.3167 18.107 10.4276 18.2733 10.5821C18.2733 10.5821 18.107 10.4276 18.2733 10.5821L17.7268 11.1582ZM21.962 11.2414C21.8076 11.0751 21.6581 10.9642 21.5136 10.9088C21.369 10.8533 21.2235 10.8256 21.077 10.8256C20.8592 10.8256 20.6622 10.8642 20.486 10.9414C20.3097 11.0186 20.1583 11.1256 20.0315 11.2622C19.9048 11.3988 19.8068 11.5582 19.7375 11.7404C19.6682 11.9225 19.6336 12.1185 19.6336 12.3284C19.6336 12.5541 19.6682 12.762 19.7375 12.9521C19.8068 13.1422 19.9048 13.3065 20.0315 13.4451C20.1583 13.5837 20.3097 13.6926 20.486 13.7718C20.6622 13.851 20.8592 13.8906 21.077 13.8906C21.2473 13.8906 21.4126 13.85 21.573 13.7689C21.7334 13.6877 21.8828 13.558 22.0214 13.3798L22.6392 13.8194C22.4491 14.0807 22.2175 14.2708 21.9442 14.3896C21.671 14.5084 21.3799 14.5678 21.071 14.5678C20.7463 14.5678 20.4483 14.5153 20.1771 14.4104C19.9058 14.3054 19.6722 14.1569 19.4761 13.9649C19.2801 13.7728 19.1267 13.5422 19.0158 13.2729C18.9049 13.0036 18.8495 12.7046 18.8495 12.3759C18.8495 12.0393 18.9049 11.7334 19.0158 11.4582C19.1267 11.183 19.2801 10.9484 19.4761 10.7543C19.6722 10.5603 19.9058 10.4108 20.1771 10.3058C20.4483 10.2009 20.7463 10.1484 21.071 10.1484C21.3562 10.1484 21.6205 10.1989 21.864 10.2999C22.1076 10.4009 22.3343 10.5722 22.5442 10.8137C22.5442 10.8137 22.3343 10.5722 22.5442 10.8137L21.962 11.2414ZM27.605 10.2554H28.4663L29.6128 13.4333L30.7948 10.2554H31.6027L29.9038 14.4609H29.2564L27.605 10.2554ZM32.0541 10.2554H34.84V10.9325H32.8025V11.9661H34.733V12.6432H32.8025V13.7837H34.9469V14.4609H32.0541V10.2554ZM35.6834 10.2554H37.1447C37.3466 10.2554 37.5417 10.2742 37.7298 10.3118C37.9179 10.3494 38.0852 10.4138 38.2317 10.5048C38.3782 10.5959 38.495 10.7187 38.5822 10.8731C38.6693 11.0276 38.7128 11.2236 38.7128 11.4612C38.7128 11.7661 38.6287 12.0215 38.4604 12.2274C38.2921 12.4334 38.0515 12.5581 37.7387 12.6017L38.8554 14.4609H37.9525L36.9784 12.6789H36.4319V14.4609H35.6834V10.2554ZM37.014 12.0374C37.1209 12.0374 37.2278 12.0324 37.3348 12.0225C37.4417 12.0126 37.5397 11.9888 37.6288 11.9512C37.7179 11.9136 37.7902 11.8562 37.8456 11.779C37.901 11.7017 37.9288 11.5938 37.9288 11.4552C37.9288 11.3325 37.903 11.2335 37.8515 11.1582C37.8001 11.083 37.7327 11.0266 37.6496 10.9889C37.5664 10.9513 37.4744 10.9266 37.3734 10.9147C37.2724 10.9028 37.1744 10.8969 37.0793 10.8969H36.4319V12.0374H37.014Z" fill="black"/>
<path d="M25.3282 14.5704C26.5493 14.5704 27.5392 13.5805 27.5392 12.3594C27.5392 11.1383 26.5493 10.1484 25.3282 10.1484C24.1071 10.1484 23.1172 11.1383 23.1172 12.3594C23.1172 13.5805 24.1071 14.5704 25.3282 14.5704Z" fill="#D97B16"/>
</g>
<defs>
<clipPath id="clip0_3032_24075">
<rect width="35.2" height="22" fill="white" transform="translate(6.40039 5)"/>
</clipPath>
</defs>
</svg>
