<svg width="48" height="32" viewBox="0 0 48 32" fill="none" xmlns="http://www.w3.org/2000/svg">
<path d="M0 5.33333C0 2.38782 2.38781 0 5.33333 0H42.6667C45.6122 0 48 2.38781 48 5.33333V26.6667C48 29.6122 45.6122 32 42.6667 32H5.33333C2.38781 32 0 29.6122 0 26.6667V5.33333Z" fill="white"/>
<g clip-path="url(#clip0_3648_20082)">
<path fill-rule="evenodd" clip-rule="evenodd" d="M38.9567 5C37.1967 5 18.5629 5 8.15673 5C7.27673 5 6.39673 5.88 6.39673 6.76V24.36C6.39673 26.12 7.27673 27 9.03673 27C18.8538 27 37.1967 27 38.9567 27C40.7167 27 41.5967 26.12 41.5967 24.36V7.64C41.5967 5.88 40.7167 5 38.9567 5Z" fill="#F4F4F4"/>
<path fill-rule="evenodd" clip-rule="evenodd" d="M17.2952 27.0002C26.7521 27.0002 37.6212 27.0002 38.9557 27.0002C40.7157 27.0002 41.5957 26.1202 41.5957 24.3602V13.8945C41.5957 13.8945 36.3507 23.1289 17.2952 27.0002Z" fill="#D97B16"/>
<path fill-rule="evenodd" clip-rule="evenodd" d="M17.8459 15.762H18.1623L19.1414 17.2231H19.1464V15.762H19.3874V17.5394H19.0811L18.092 16.0783H18.087V17.5394H17.8459V15.762ZM19.8443 15.762H20.9916V15.9879H20.0853V16.5176H20.9288V16.7436H20.0853V17.3135H21.0368V17.5394H19.8443V15.762ZM21.7497 15.9879H21.1774V15.762H22.5631V15.9879H21.9908V17.5394H21.7497V15.9879ZM22.5933 15.762H22.8443L23.2359 17.1829H23.241L23.6602 15.762H23.9364L24.3556 17.1829H24.3606L24.7523 15.762H25.0033L24.4862 17.5394H24.2326L23.8008 16.0883H23.7958L23.3665 17.5394H23.1129L22.5933 15.762ZM26.0502 17.5846C25.9146 17.5846 25.7899 17.5607 25.6761 17.513C25.5623 17.4653 25.4648 17.3997 25.3837 17.316C25.3025 17.2323 25.2389 17.1335 25.1929 17.0197C25.1468 16.9059 25.1238 16.7829 25.1238 16.6507C25.1238 16.5185 25.1468 16.3955 25.1929 16.2817C25.2389 16.1678 25.3025 16.0691 25.3837 15.9854C25.4648 15.9017 25.5623 15.836 25.6761 15.7883C25.7899 15.7406 25.9146 15.7168 26.0502 15.7168C26.1858 15.7168 26.3105 15.7406 26.4243 15.7883C26.5381 15.836 26.6356 15.9017 26.7167 15.9854C26.7979 16.0691 26.8615 16.1678 26.9075 16.2817C26.9536 16.3955 26.9766 16.5185 26.9766 16.6507C26.9766 16.7829 26.9536 16.9059 26.9075 17.0197C26.8615 17.1335 26.7979 17.2323 26.7167 17.316C26.6356 17.3997 26.5381 17.4653 26.4243 17.513C26.3105 17.5607 26.1858 17.5846 26.0502 17.5846ZM26.0502 17.3587C26.1523 17.3587 26.2443 17.3398 26.3264 17.3022C26.4084 17.2645 26.4787 17.2139 26.5372 17.1503C26.5958 17.0867 26.641 17.0118 26.6728 16.9256C26.7046 16.8394 26.7205 16.7478 26.7205 16.6507C26.7205 16.5536 26.7046 16.462 26.6728 16.3758C26.641 16.2896 26.5958 16.2147 26.5372 16.1511C26.4787 16.0875 26.4084 16.0369 26.3264 15.9992C26.2443 15.9616 26.1523 15.9427 26.0502 15.9427C25.9481 15.9427 25.8561 15.9616 25.774 15.9992C25.692 16.0369 25.6217 16.0875 25.5632 16.1511C25.5046 16.2147 25.4594 16.2896 25.4276 16.3758C25.3958 16.462 25.3799 16.5536 25.3799 16.6507C25.3799 16.7478 25.3958 16.8394 25.4276 16.9256C25.4594 17.0118 25.5046 17.0867 25.5632 17.1503C25.6217 17.2139 25.692 17.2645 25.774 17.3022C25.8561 17.3398 25.9481 17.3587 26.0502 17.3587C25.9481 17.3587 26.0502 17.3587 26.0502 17.3587ZM27.323 15.762H27.9481C28.0619 15.762 28.1557 15.7775 28.2293 15.8084C28.3029 15.8394 28.3611 15.8787 28.4038 15.9264C28.4465 15.9741 28.4762 16.0277 28.4929 16.0871C28.5096 16.1465 28.518 16.2038 28.518 16.2591C28.518 16.316 28.508 16.3708 28.4879 16.4235C28.4678 16.4762 28.4389 16.5239 28.4013 16.5666C28.3636 16.6093 28.3176 16.6453 28.2632 16.6745C28.2088 16.7038 28.1481 16.7218 28.0812 16.7285L28.5858 17.5394H28.2845L27.8326 16.7561H27.564V17.5394H27.323V15.762ZM27.564 16.5453H27.8803C27.9272 16.5453 27.9736 16.5415 28.0197 16.534C28.0657 16.5264 28.1067 16.5126 28.1427 16.4925C28.1787 16.4725 28.2075 16.4436 28.2293 16.4059C28.2511 16.3683 28.2619 16.3193 28.2619 16.2591C28.2619 16.1988 28.2511 16.1499 28.2293 16.1122C28.2075 16.0745 28.1787 16.0457 28.1427 16.0256C28.1067 16.0055 28.0657 15.9917 28.0197 15.9842C27.9736 15.9766 27.9272 15.9729 27.8803 15.9729H27.564V16.5453ZM28.8569 15.762H29.0979V16.5302H29.118L29.9038 15.762H30.2402L29.3816 16.5829L30.2979 17.5394H29.9465L29.118 16.6507H29.0979V17.5394H28.8569V15.762Z" fill="black"/>
<path fill-rule="evenodd" clip-rule="evenodd" d="M9.5061 10.2554H11.1634C11.4406 10.2554 11.7079 10.2979 11.9653 10.3831C12.2227 10.4682 12.4504 10.5979 12.6484 10.7721C12.8464 10.9464 13.0048 11.1652 13.1236 11.4285C13.2424 11.6918 13.3018 12.0017 13.3018 12.3581C13.3018 12.7185 13.2335 13.0303 13.0968 13.2937C12.9602 13.557 12.784 13.7748 12.5682 13.9471C12.3524 14.1193 12.1128 14.248 11.8494 14.3332C11.5861 14.4183 11.3277 14.4609 11.0743 14.4609H9.5061V10.2554ZM10.8129 13.7837C11.0465 13.7837 11.2673 13.757 11.4752 13.7035C11.6831 13.6501 11.8643 13.5669 12.0187 13.454C12.1732 13.3412 12.2949 13.1947 12.384 13.0145C12.4731 12.8343 12.5177 12.6155 12.5177 12.3581C12.5177 12.1047 12.4781 11.8869 12.3989 11.7047C12.3197 11.5226 12.2098 11.375 12.0692 11.2622C11.9286 11.1493 11.7623 11.0662 11.5703 11.0127C11.3782 10.9592 11.1673 10.9325 10.9376 10.9325H10.2545V13.7837H10.8129ZM13.9967 10.2554H14.7452V14.4609H13.9967V10.2554ZM17.7271 11.1582C17.6479 11.0434 17.5419 10.9592 17.4093 10.9058C17.2766 10.8523 17.137 10.8256 16.9905 10.8256C16.9034 10.8256 16.8192 10.8355 16.7381 10.8553C16.6569 10.8751 16.5836 10.9068 16.5183 10.9503C16.4529 10.9939 16.4005 11.0503 16.3609 11.1196C16.3213 11.1889 16.3015 11.2711 16.3015 11.3661C16.3015 11.5087 16.351 11.6176 16.45 11.6928C16.549 11.7681 16.6717 11.8334 16.8182 11.8889C16.9648 11.9443 17.1251 11.9978 17.2994 12.0492C17.4736 12.1007 17.634 12.172 17.7805 12.2631C17.927 12.3542 18.0498 12.4749 18.1488 12.6254C18.2478 12.7759 18.2973 12.9759 18.2973 13.2254C18.2973 13.4511 18.2557 13.6481 18.1726 13.8164C18.0894 13.9847 17.9775 14.1243 17.837 14.2352C17.6964 14.346 17.533 14.4292 17.3469 14.4846C17.1608 14.5401 16.9648 14.5678 16.7588 14.5678C16.4975 14.5678 16.246 14.5242 16.0045 14.4371C15.7629 14.35 15.555 14.2035 15.3808 13.9976L15.9451 13.4511C16.0361 13.5897 16.1559 13.6976 16.3044 13.7748C16.4529 13.852 16.6103 13.8906 16.7767 13.8906C16.8638 13.8906 16.9509 13.8788 17.038 13.855C17.1251 13.8312 17.2043 13.7956 17.2756 13.7481C17.3469 13.7006 17.4043 13.6402 17.4479 13.5669C17.4914 13.4936 17.5132 13.4095 17.5132 13.3145C17.5132 13.16 17.4637 13.0412 17.3647 12.9581C17.2657 12.8749 17.143 12.8046 16.9964 12.7472C16.8499 12.6898 16.6895 12.6353 16.5153 12.5838C16.3411 12.5324 16.1807 12.4621 16.0342 12.373C15.8876 12.2839 15.7649 12.1651 15.6659 12.0166C15.5669 11.8681 15.5174 11.6691 15.5174 11.4196C15.5174 11.2018 15.5619 11.0137 15.651 10.8553C15.7401 10.6969 15.857 10.5652 16.0015 10.4603C16.146 10.3553 16.3114 10.2771 16.4975 10.2257C16.6836 10.1742 16.8737 10.1484 17.0677 10.1484C17.2895 10.1484 17.5043 10.1821 17.7122 10.2494C17.9201 10.3167 18.1072 10.4276 18.2735 10.5821C18.2735 10.5821 18.1072 10.4276 18.2735 10.5821L17.7271 11.1582ZM21.9623 11.2414C21.8078 11.0751 21.6584 10.9642 21.5138 10.9088C21.3693 10.8533 21.2237 10.8256 21.0772 10.8256C20.8594 10.8256 20.6624 10.8642 20.4862 10.9414C20.31 11.0186 20.1585 11.1256 20.0318 11.2622C19.9051 11.3988 19.8071 11.5582 19.7378 11.7404C19.6685 11.9225 19.6338 12.1185 19.6338 12.3284C19.6338 12.5541 19.6685 12.762 19.7378 12.9521C19.8071 13.1422 19.9051 13.3065 20.0318 13.4451C20.1585 13.5837 20.31 13.6926 20.4862 13.7718C20.6624 13.851 20.8594 13.8906 21.0772 13.8906C21.2475 13.8906 21.4128 13.85 21.5732 13.7689C21.7336 13.6877 21.8831 13.558 22.0217 13.3798L22.6394 13.8194C22.4494 14.0807 22.2177 14.2708 21.9445 14.3896C21.6712 14.5084 21.3802 14.5678 21.0713 14.5678C20.7466 14.5678 20.4486 14.5153 20.1773 14.4104C19.9061 14.3054 19.6724 14.1569 19.4764 13.9649C19.2804 13.7728 19.1269 13.5422 19.016 13.2729C18.9052 13.0036 18.8497 12.7046 18.8497 12.3759C18.8497 12.0393 18.9052 11.7334 19.016 11.4582C19.1269 11.183 19.2804 10.9484 19.4764 10.7543C19.6724 10.5603 19.9061 10.4108 20.1773 10.3058C20.4486 10.2009 20.7466 10.1484 21.0713 10.1484C21.3564 10.1484 21.6207 10.1989 21.8643 10.2999C22.1078 10.4009 22.3345 10.5722 22.5444 10.8137C22.5444 10.8137 22.3345 10.5722 22.5444 10.8137L21.9623 11.2414ZM27.6053 10.2554H28.4666L29.613 13.4333L30.7951 10.2554H31.6029L29.9041 14.4609H29.2566L27.6053 10.2554ZM32.0543 10.2554H34.8402V10.9325H32.8028V11.9661H34.7333V12.6432H32.8028V13.7837H34.9471V14.4609H32.0543V10.2554ZM35.6837 10.2554H37.1449C37.3469 10.2554 37.5419 10.2742 37.73 10.3118C37.9181 10.3494 38.0854 10.4138 38.2319 10.5048C38.3785 10.5959 38.4953 10.7187 38.5824 10.8731C38.6695 11.0276 38.7131 11.2236 38.7131 11.4612C38.7131 11.7661 38.6289 12.0215 38.4606 12.2274C38.2923 12.4334 38.0518 12.5581 37.7389 12.6017L38.8556 14.4609H37.9528L36.9786 12.6789H36.4321V14.4609H35.6837V10.2554ZM37.0142 12.0374C37.1212 12.0374 37.2281 12.0324 37.335 12.0225C37.4419 12.0126 37.5399 11.9888 37.629 11.9512C37.7181 11.9136 37.7904 11.8562 37.8458 11.779C37.9013 11.7017 37.929 11.5938 37.929 11.4552C37.929 11.3325 37.9033 11.2335 37.8518 11.1582C37.8003 11.083 37.733 11.0266 37.6498 10.9889C37.5667 10.9513 37.4746 10.9266 37.3736 10.9147C37.2726 10.9028 37.1746 10.8969 37.0796 10.8969H36.4321V12.0374H37.0142Z" fill="black"/>
<path d="M25.3284 14.5704C26.5495 14.5704 27.5394 13.5805 27.5394 12.3594C27.5394 11.1383 26.5495 10.1484 25.3284 10.1484C24.1073 10.1484 23.1174 11.1383 23.1174 12.3594C23.1174 13.5805 24.1073 14.5704 25.3284 14.5704Z" fill="#D97B16"/>
</g>
<defs>
<clipPath id="clip0_3648_20082">
<rect width="35.2" height="22" fill="white" transform="translate(6.40039 5)"/>
</clipPath>
</defs>
</svg>
