<svg width="48" height="32" viewBox="0 0 48 32" fill="none" xmlns="http://www.w3.org/2000/svg">
<path d="M0 5.33333C0 2.38782 2.38781 0 5.33333 0H42.6667C45.6122 0 48 2.38781 48 5.33333V26.6667C48 29.6122 45.6122 32 42.6667 32H5.33333C2.38781 32 0 29.6122 0 26.6667V5.33333Z" fill="white"/>
<path d="M35.6956 20.8607V20.622C35.1231 20.9188 35.4888 20.8607 27.3897 20.8607C27.3897 19.5248 27.3951 19.5938 27.3897 19.5248C27.2997 19.5196 27.2201 19.5196 26.8914 19.5196C26.8914 20.4683 26.8862 19.88 26.8862 20.8607H24.7872C24.7872 20.2192 24.7925 20.0497 24.7925 19.3128C24.2625 19.6309 23.584 19.6521 22.9744 19.6414C22.9744 20.4205 22.9691 20.0815 22.9691 20.8607H20.3773C20.1069 20.5583 20.2341 20.6961 19.561 19.9382C19.3913 20.1238 18.8825 20.6751 18.7075 20.8607H14.3612V15.9682H18.7658C19.0309 16.2651 18.9143 16.1325 19.5874 16.8798C19.757 16.6944 20.234 16.1695 20.4196 15.9682H23.4939C24.0133 15.9682 24.448 16.069 24.7819 16.2651V15.9682C27.6601 15.9682 28.1902 15.8939 28.7945 16.2385V15.9682H32.9395V16.2438C33.5437 15.878 33.9783 15.9682 36.3794 15.9682V16.2332C36.9254 15.9204 37.2593 15.9576 39.2577 15.9682V6.67124C39.2577 5.26662 38.1181 4.12695 36.7133 4.12695H11.2709C9.86628 4.12695 8.72668 5.26662 8.72668 6.67124V12.4912C9.225 11.3304 9.77092 10.053 9.95108 9.63429H12.0554C12.2834 10.1696 12.1402 9.83032 12.5325 10.7526V9.63429H14.9707C15.1244 9.9628 15.5591 10.9063 15.7075 11.2244C16.0149 10.5035 16.2429 9.95749 16.3754 9.63429H21.8349C21.8349 9.62891 22.4445 9.63429 22.4498 9.63429C24.7661 9.64478 25.2908 9.59179 25.8632 9.91512V9.63429H27.9783V10.1272C28.381 9.80382 28.9271 9.63429 29.6054 9.63429H31.0683C31.0683 9.66079 31.1692 9.65016 31.1903 9.65016H32.9076C33.1303 10.1695 33.0455 9.96811 33.374 10.742V9.65016H35.6692C35.9289 10.0742 35.6162 9.55473 36.2627 10.6254V9.65016H38.3777V14.5266H36.1727C35.8864 14.0495 36.0985 14.41 35.4731 13.3659V14.5266H32.6743C32.3352 13.7421 32.6689 14.5107 32.3245 13.7156H31.3173C31.0948 14.2456 31.2008 13.9913 30.9782 14.5266H29.5575C28.9058 14.5266 28.3756 14.3676 27.9834 14.0549V14.5266H24.4586C24.4427 13.7899 24.4532 13.2121 24.4532 13.2121C24.3578 13.1962 24.2729 13.2015 23.9338 13.2015V14.5319H16.7517V13.9276C16.6191 14.2244 16.6086 14.2404 16.4813 14.5319H14.9177C14.7056 14.0601 14.764 14.1927 14.6474 13.9276V14.5319H11.8434C11.6207 13.9965 11.7268 14.251 11.5042 13.7209H10.4865C10.2639 14.2509 10.3699 13.9965 10.1472 14.5319H8.73724V25.3288C8.73724 26.7336 9.87691 27.8732 11.2815 27.8732H36.7292C38.1337 27.8732 39.2734 26.7336 39.2734 25.3288V20.5373C38.6003 20.9772 37.5401 20.8607 35.6956 20.8607Z" fill="#016FD0"/>
<path d="M27.3685 10.3398H26.4728V14.013H27.3685V10.3398Z" fill="#016FD0"/>
<path d="M25.9683 11.3252C25.9683 10.4559 25.2209 10.35 24.516 10.35L22.4435 10.334V14.0072H23.3127V12.6768H24.2669C25.2422 12.6768 25.0354 13.2228 25.0513 14.0072H25.9313V13.2916C25.9313 12.804 25.8517 12.4913 25.3482 12.3164C25.7405 12.1574 25.9736 11.7492 25.9683 11.3252ZM24.41 11.9241H23.3128V11.1131H24.426C24.6963 11.1131 24.993 11.1662 24.993 11.5053C24.993 11.8552 24.712 11.9241 24.41 11.9241Z" fill="#016FD0"/>
<path d="M21.8403 11.1136V10.3398H18.8986V14.013H21.8403V13.255H19.7784V12.5236H21.782V11.7762H19.7784V11.1136H21.8403Z" fill="#016FD0"/>
<path d="M18.2473 14.013V10.3398H16.7843L15.7402 12.831L14.5899 10.3398H13.1535V13.8221L11.6641 10.3398H10.3654L8.79114 14.013H9.74002L10.0792 13.202H11.9078L12.2471 14.013H14.0386V11.1401L15.3107 14.013H16.0846L17.3567 11.1401V14.013H18.2473ZM10.3919 12.4387L10.9855 10.9758L11.5951 12.4387H10.3919Z" fill="#016FD0"/>
<path d="M23.5253 16.668H20.7319L19.6188 17.8764L18.5322 16.668H15.0075L15.0021 20.3411H18.4687L19.5976 19.1221L20.6789 20.3411H22.3857L22.3909 19.1062C23.3927 19.1062 25.0041 19.3499 25.0041 17.8712C25.0041 16.9541 24.3521 16.668 23.5253 16.668ZM18.0234 19.5673H15.8713V18.8358H17.7955V18.0885H15.8713V17.4259H18.0817L19.0305 18.4967L18.0234 19.5673ZM21.511 20.002L20.1701 18.5125L21.511 17.0602V20.002ZM23.5147 18.3589H22.3909V17.4259H23.5305C23.8274 17.4259 24.0712 17.5478 24.0712 17.8712C24.0712 18.2103 23.8274 18.3589 23.5147 18.3589Z" fill="#016FD0"/>
<path d="M27.797 12.2051C27.797 13.3818 28.3376 14.0072 29.5461 14.0072H30.5639L30.903 13.1963H32.7211L33.0708 14.0072H34.8572V11.2563L36.5109 14.0072H37.7619V10.3501H36.866V12.8996L35.3235 10.3501H33.9825V13.8165L32.5038 10.3501H31.1892L29.9436 13.2387H29.5514C28.8463 13.2387 28.698 12.8093 28.698 12.1839C28.698 10.9224 29.5301 11.1238 30.4524 11.1397V10.334H29.5989C28.3535 10.334 27.797 10.97 27.797 12.2051ZM31.8307 10.9753L32.4243 12.4383H31.2158L31.8307 10.9753Z" fill="#016FD0"/>
<path d="M34.5976 19.5509H32.891L32.8856 20.3354H34.5925C35.3769 20.3354 35.9812 20.0385 35.9812 19.1693C35.9812 17.4095 33.7074 18.5757 33.7074 17.7751C33.7074 17.4784 33.967 17.4361 34.1949 17.4361H35.8063V16.6621H34.0466C33.3681 16.6621 32.8009 17.0121 32.8009 17.7593C32.8009 19.5085 35.0641 18.4219 35.0641 19.2117C35.0589 19.498 34.8149 19.5509 34.5976 19.5509Z" fill="#016FD0"/>
<path d="M28.954 17.6592C28.954 16.7899 28.2066 16.668 27.5176 16.668H25.4291L25.424 20.3411H26.3038L26.3089 19.0002H27.242C27.825 19.0002 28.0264 19.1063 28.0264 19.7317L28.0211 20.3412H28.901L28.9064 19.6098C28.9064 19.138 28.8109 18.8094 28.3232 18.6345C28.7314 18.4701 28.9488 18.062 28.954 17.6592ZM27.4062 18.2528H26.3089V17.4259H27.4222C27.6925 17.4259 27.9894 17.4791 27.9894 17.8182C27.9893 18.184 27.7031 18.2528 27.4062 18.2528Z" fill="#016FD0"/>
<path d="M32.361 17.4259V16.668H29.4351L29.4298 20.3411H32.3557L32.361 19.5831L30.3149 19.5673V18.8358H32.3239V18.0885H30.3203V17.4259H32.361Z" fill="#016FD0"/>
<path d="M37.6191 17.4418H39.2145V16.668H37.4706C36.7921 16.668 36.2091 17.0178 36.2091 17.7652C36.2091 19.5143 38.4724 18.4437 38.4724 19.2175C38.4724 19.4878 38.2445 19.5567 38.0272 19.5567H36.331L36.3257 20.3411H38.0219C38.4671 20.3411 38.9548 20.2456 39.2145 19.8694V18.5018C38.6578 17.7704 37.1314 18.4329 37.1314 17.7863C37.1314 17.479 37.3751 17.4418 37.6191 17.4418Z" fill="#016FD0"/>
</svg>
