<svg width="48" height="32" viewBox="0 0 48 32" fill="none" xmlns="http://www.w3.org/2000/svg">
<path d="M0 5.33333C0 2.38782 2.38781 0 5.33333 0H42.6667C45.6122 0 48 2.38781 48 5.33333V26.6667C48 29.6122 45.6122 32 42.6667 32H5.33333C2.38781 32 0 29.6122 0 26.6667V5.33333Z" fill="white"/>
<path d="M35.6955 20.8607V20.622C35.123 20.9188 35.4887 20.8607 27.3896 20.8607C27.3896 19.5248 27.395 19.5938 27.3896 19.5248C27.2995 19.5196 27.22 19.5196 26.8913 19.5196C26.8913 20.4683 26.8861 19.88 26.8861 20.8607H24.7871C24.7871 20.2192 24.7924 20.0497 24.7924 19.3128C24.2624 19.6309 23.5839 19.6521 22.9743 19.6414C22.9743 20.4205 22.969 20.0815 22.969 20.8607H20.3771C20.1068 20.5583 20.234 20.6961 19.5609 19.9382C19.3911 20.1238 18.8823 20.6751 18.7074 20.8607H14.3611V15.9682H18.7657C19.0308 16.2651 18.9141 16.1325 19.5872 16.8798C19.7569 16.6944 20.2339 16.1695 20.4195 15.9682H23.4938C24.0131 15.9682 24.4479 16.069 24.7818 16.2651V15.9682C27.66 15.9682 28.19 15.8939 28.7943 16.2385V15.9682H32.9393V16.2438C33.5436 15.878 33.9782 15.9682 36.3793 15.9682V16.2332C36.9253 15.9204 37.2591 15.9576 39.2576 15.9682V6.67124C39.2576 5.26662 38.118 4.12695 36.7132 4.12695H11.2708C9.86616 4.12695 8.72656 5.26662 8.72656 6.67124V12.4912C9.22488 11.3304 9.7708 10.053 9.95096 9.63429H12.0553C12.2833 10.1696 12.14 9.83032 12.5324 10.7526V9.63429H14.9706C15.1243 9.9628 15.559 10.9063 15.7074 11.2244C16.0148 10.5035 16.2428 9.95749 16.3753 9.63429H21.8348C21.8348 9.62891 22.4444 9.63429 22.4497 9.63429C24.7659 9.64478 25.2907 9.59179 25.8631 9.91512V9.63429H27.9781V10.1272C28.3809 9.80382 28.9269 9.63429 29.6053 9.63429H31.0682C31.0682 9.66079 31.1691 9.65016 31.1902 9.65016H32.9075C33.1302 10.1695 33.0453 9.96811 33.3738 10.742V9.65016H35.669C35.9288 10.0742 35.616 9.55473 36.2626 10.6254V9.65016H38.3776V14.5266H36.1726C35.8863 14.0495 36.0984 14.41 35.4729 13.3659V14.5266H32.6742C32.335 13.7421 32.6688 14.5107 32.3244 13.7156H31.3172C31.0946 14.2456 31.2006 13.9913 30.978 14.5266H29.5574C28.9056 14.5266 28.3754 14.3676 27.9832 14.0549V14.5266H24.4585C24.4425 13.7899 24.4531 13.2121 24.4531 13.2121C24.3577 13.1962 24.2728 13.2015 23.9337 13.2015V14.5319H16.7516V13.9276C16.619 14.2244 16.6085 14.2404 16.4812 14.5319H14.9176C14.7055 14.0601 14.7639 14.1927 14.6473 13.9276V14.5319H11.8433C11.6206 13.9965 11.7267 14.251 11.5041 13.7209H10.4863C10.2637 14.2509 10.3698 13.9965 10.1471 14.5319H8.73712V25.3288C8.73712 26.7336 9.87679 27.8732 11.2814 27.8732H36.7291C38.1336 27.8732 39.2733 26.7336 39.2733 25.3288V20.5373C38.6001 20.9772 37.54 20.8607 35.6955 20.8607Z" fill="#016FD0"/>
<path d="M27.3684 10.3398H26.4727V14.013H27.3684V10.3398Z" fill="#016FD0"/>
<path d="M25.9681 11.3252C25.9681 10.4559 25.2208 10.35 24.5158 10.35L22.4434 10.334V14.0072H23.3126V12.6768H24.2667C25.2421 12.6768 25.0353 13.2228 25.0512 14.0072H25.9311V13.2916C25.9311 12.804 25.8516 12.4913 25.348 12.3164C25.7404 12.1574 25.9734 11.7492 25.9681 11.3252ZM24.4099 11.9241H23.3127V11.1131H24.4259C24.6962 11.1131 24.9929 11.1662 24.9929 11.5053C24.9928 11.8552 24.7119 11.9241 24.4099 11.9241Z" fill="#016FD0"/>
<path d="M21.8402 11.1136V10.3398H18.8984V14.013H21.8402V13.255H19.7783V12.5236H21.7819V11.7762H19.7783V11.1136H21.8402Z" fill="#016FD0"/>
<path d="M18.2472 14.013V10.3398H16.7842L15.74 12.831L14.5897 10.3398H13.1534V13.8221L11.6639 10.3398H10.3653L8.79102 14.013H9.73989L10.079 13.202H11.9077L12.2469 14.013H14.0385V11.1401L15.3106 14.013H16.0845L17.3566 11.1401V14.013H18.2472ZM10.3917 12.4387L10.9854 10.9758L11.595 12.4387H10.3917Z" fill="#016FD0"/>
<path d="M23.5251 16.668H20.7318L19.6186 17.8764L18.532 16.668H15.0073L15.002 20.3411H18.4686L19.5975 19.1221L20.6788 20.3411H22.3855L22.3908 19.1062C23.3926 19.1062 25.004 19.3499 25.004 17.8712C25.004 16.9541 24.352 16.668 23.5251 16.668ZM18.0232 19.5673H15.8712V18.8358H17.7953V18.0885H15.8712V17.4259H18.0815L19.0304 18.4967L18.0232 19.5673ZM21.5109 20.002L20.17 18.5125L21.5109 17.0602V20.002ZM23.5146 18.3589H22.3908V17.4259H23.5304C23.8273 17.4259 24.0711 17.5478 24.0711 17.8712C24.0711 18.2103 23.8273 18.3589 23.5146 18.3589Z" fill="#016FD0"/>
<path d="M27.7969 12.2051C27.7969 13.3818 28.3375 14.0072 29.5459 14.0072H30.5638L30.9028 13.1963H32.721L33.0707 14.0072H34.8571V11.2563L36.5108 14.0072H37.7618V10.3501H36.8659V12.8996L35.3234 10.3501H33.9824V13.8165L32.5037 10.3501H31.1891L29.9435 13.2387H29.5513C28.8462 13.2387 28.6979 12.8093 28.6979 12.1839C28.6979 10.9224 29.53 11.1238 30.4523 11.1397V10.334H29.5988C28.3534 10.334 27.7969 10.97 27.7969 12.2051ZM31.8306 10.9753L32.4241 12.4383H31.2157L31.8306 10.9753Z" fill="#016FD0"/>
<path d="M34.5975 19.5509H32.8909L32.8855 20.3354H34.5924C35.3768 20.3354 35.981 20.0385 35.981 19.1693C35.981 17.4095 33.7072 18.5757 33.7072 17.7751C33.7072 17.4784 33.9669 17.4361 34.1948 17.4361H35.8062V16.6621H34.0464C33.368 16.6621 32.8008 17.0121 32.8008 17.7593C32.8008 19.5085 35.064 18.4219 35.064 19.2117C35.0588 19.498 34.8148 19.5509 34.5975 19.5509Z" fill="#016FD0"/>
<path d="M28.9539 17.6592C28.9539 16.7899 28.2065 16.668 27.5175 16.668H25.429L25.4238 20.3411H26.3037L26.3088 19.0002H27.2418C27.8249 19.0002 28.0263 19.1063 28.0263 19.7317L28.021 20.3412H28.9009L28.9062 19.6098C28.9062 19.138 28.8107 18.8094 28.3231 18.6345C28.7313 18.4701 28.9487 18.062 28.9539 17.6592ZM27.4061 18.2528H26.3088V17.4259H27.4221C27.6924 17.4259 27.9892 17.4791 27.9892 17.8182C27.9892 18.184 27.703 18.2528 27.4061 18.2528Z" fill="#016FD0"/>
<path d="M32.3609 17.4259V16.668H29.4349L29.4297 20.3411H32.3556L32.3609 19.5831L30.3148 19.5673V18.8358H32.3237V18.0885H30.3202V17.4259H32.3609Z" fill="#016FD0"/>
<path d="M37.619 17.4418H39.2144V16.668H37.4704C36.792 16.668 36.209 17.0178 36.209 17.7652C36.209 19.5143 38.4722 18.4437 38.4722 19.2175C38.4722 19.4878 38.2443 19.5567 38.0271 19.5567H36.3309L36.3256 20.3411H38.0217C38.467 20.3411 38.9547 20.2456 39.2144 19.8694V18.5018C38.6577 17.7704 37.1313 18.4329 37.1313 17.7863C37.1313 17.479 37.375 17.4418 37.619 17.4418Z" fill="#016FD0"/>
</svg>
